<?xml version="1.0" encoding="utf-8"?>
<!-- Generator: Adobe Illustrator 27.9.0, SVG Export Plug-In . SVG Version: 6.00 Build 0)  -->
<svg version="1.1" id="whole" xmlns="http://www.w3.org/2000/svg" xmlns:xlink="http://www.w3.org/1999/xlink" x="0px" y="0px"
	 viewBox="0 0 568.96 738.63" style="enable-background:new 0 0 568.96 738.63;" xml:space="preserve">
<style type="text/css">
	.st0{fill:#FF0000;}
</style>
<path id="inside" class="st0" d="M560.41,653.94c2.14,6.02,1.24,11.76-2.32,16.94c-6.4,9.33-15.41,14.08-26.7,14.42
	c-2.84,0.08-5.71-0.23-8.56-0.13c-3.62,0.13-4.97,1.47-5.1,5.05c-0.11,2.74,0.17,5.48,0.13,8.22c-0.19,11.32-4.88,20.34-14.1,26.9
	c-5.01,3.56-10.61,4.59-16.59,2.78c-1.92-0.59-3.65-1.56-4.87-3.21c-0.94-1.26-1.14-2.61-0.15-3.96c0.7-0.97,1.66-1.47,2.86-1.11
	c1.63,0.48,2.19,1.68,2.01,3.3c-0.05,0.43-0.06,0.86-0.09,1.33c1.36,0.23,2.13-0.78,2.16-1.56c0.12-3.35,1.99-3.11,4.48-2.77
	c3.87,0.52,7.07-1.14,9.59-4.06c1.83-2.13,3.57-4.35,5.47-6.69c-2.97-0.33-5.35,0.72-7.19,2.65c-3.7,3.88-8.16,4.4-13.04,3.37
	c-7.61-1.61-9.7-0.35-11.46,7.32c-0.34,1.48-0.97,1.09-1.82,0.8c-4.35-1.49-8.51-0.77-12.38,1.38c-4.66,2.58-9.55,3.38-14.85,3.37
	c-36.62-0.05-73.23-0.07-109.85-0.06c-0.62-0.35-1.68-0.12-2.56,0c-17.76,0-35.5,0.01-53.26,0.02c-16.21-0.01-32.42-0.02-48.62-0.02
	c-0.91-0.11-2.06-0.37-2.7,0c-37.35,0-74.72,0.01-112.08,0.03c-3.6,0-6.99-0.49-10.17-2.19c-5.16-2.77-10.42-4.69-16.24-2.01
	c-0.36-1.82-0.47-3.38-1-4.79c-1.43-3.79-4.88-5.35-9.52-4.16c-5.59,1.43-10.6,1.06-14.84-3.43c-1.7-1.8-4.04-2.47-6.81-2.39
	c1.89,2.33,3.57,4.45,5.3,6.53c2.99,3.6,6.83,5.14,11.42,4.18c1.68-0.35,2.41-0.28,2.49,1.62c0.06,1.35,0.7,2.52,2.26,3.04
	c0.66-0.66,0.15-1.41,0.17-2.08c0.06-1.38,0.71-2.28,2-2.7c1.06-0.34,1.97,0.03,2.68,0.8c0.91,0.97,1.17,2.15,0.61,3.36
	c-0.93,2.02-2.71,3.16-4.71,3.86c-6.02,2.15-11.76,1.24-16.94-2.31c-9.32-6.41-14.08-15.42-14.42-26.71
	c-0.08-2.84,0.23-5.71,0.13-8.55c-0.12-3.62-1.47-4.98-5.04-5.11c-2.74-0.1-5.49,0.18-8.23,0.13c-11.31-0.19-20.34-4.88-26.9-14.1
	c-3.56-5.01-4.59-10.61-2.77-16.59c0.58-1.92,1.55-3.65,3.2-4.87c1.27-0.94,2.61-1.14,3.96-0.15c0.97,0.7,1.47,1.66,1.11,2.86
	c-0.48,1.63-1.68,2.2-3.3,2.01c-0.43-0.05-0.86-0.06-1.32-0.09c-0.24,1.36,0.77,2.13,1.55,2.16c3.36,0.12,3.11,1.99,2.77,4.48
	c-0.52,3.87,1.14,7.07,4.06,9.59c2.13,1.83,4.35,3.57,6.69,5.47c0.33-2.97-0.72-5.35-2.65-7.19c-3.88-3.7-4.4-8.16-3.37-13.04
	c1.61-7.61,0.35-9.7-7.32-11.46c-1.48-0.34-1.09-0.97-0.8-1.82c1.49-4.35,0.77-8.51-1.38-12.38c-2.58-4.66-3.38-9.55-3.37-14.85
	c0.1-69.74,0.07-205.79,0.02-278.33v-4.6c0.06-69.71,0.08-139.41-0.02-209.12c-0.01-5.31,0.79-10.19,3.37-14.85
	c2.15-3.87,2.87-8.04,1.38-12.38c-0.29-0.84-0.68-1.48,0.8-1.82c7.67-1.76,8.93-3.86,7.32-11.46c-1.03-4.88-0.51-9.34,3.37-13.04
	c1.93-1.84,2.99-4.22,2.65-7.19c-2.34,1.91-4.56,3.64-6.69,5.47c-2.93,2.51-4.59,5.71-4.06,9.59c0.34,2.5,0.59,4.35-2.77,4.48
	c-0.78,0.02-1.79,0.8-1.55,2.16c0.46-0.03,0.89-0.04,1.32-0.09c1.63-0.18,2.82,0.38,3.3,2.01c0.36,1.2-0.14,2.16-1.11,2.86
	c-1.34,0.99-2.69,0.79-3.96-0.15c-1.65-1.22-2.62-2.94-3.2-4.87c-1.82-5.98-0.79-11.58,2.77-16.59c6.55-9.21,15.58-13.91,26.9-14.1
	c2.74-0.04,5.49,0.24,8.23,0.13c3.57-0.13,4.92-1.48,5.04-5.1c0.1-2.85-0.22-5.71-0.13-8.56c0.34-11.3,5.1-20.3,14.42-26.7
	c5.18-3.56,10.91-4.46,16.94-2.32c2,0.7,3.78,1.84,4.71,3.87c0.56,1.2,0.3,2.38-0.61,3.35c-0.71,0.76-1.62,1.14-2.68,0.8
	c-1.29-0.42-1.94-1.33-2-2.7c-0.02-0.66,0.48-1.43-0.17-2.08c-1.56,0.52-2.2,1.69-2.26,3.04c-0.07,1.9-0.8,1.97-2.49,1.62
	c-4.59-0.96-8.43,0.58-11.42,4.19c-1.73,2.07-3.41,4.19-5.3,6.52c2.77,0.08,5.11-0.58,6.81-2.39c4.24-4.5,9.25-4.86,14.84-3.43
	c4.64,1.19,8.09-0.37,9.52-4.16c0.53-1.4,0.64-2.97,1-4.79c5.81,2.69,11.08,0.76,16.24-2c3.18-1.71,6.57-2.2,10.17-2.2
	c37.36,0.02,74.72,0.03,112.08,0.03c0.64,0.37,1.78,0.11,2.7,0c16.44,0,32.87-0.01,49.3-0.01c17.53,0.01,35.06,0.02,52.6,0.02
	c0.86,0.11,1.92,0.34,2.54,0c36.62,0,73.25-0.02,109.87-0.07c5.31-0.01,10.19,0.79,14.85,3.37c3.87,2.15,8.04,2.88,12.38,1.39
	c0.85-0.29,1.48-0.69,1.82,0.79c1.76,7.67,3.86,8.93,11.46,7.32c4.88-1.03,9.34-0.51,13.04,3.37c1.84,1.93,4.22,2.99,7.19,2.65
	c-1.91-2.34-3.64-4.56-5.47-6.69c-2.51-2.93-5.71-4.59-9.59-4.06c-2.49,0.34-4.35,0.59-4.48-2.77c-0.02-0.78-0.8-1.79-2.16-1.55
	c0.03,0.46,0.04,0.89,0.09,1.32c0.18,1.63-0.38,2.82-2.01,3.31c-1.2,0.35-2.16-0.15-2.86-1.11c-0.99-1.34-0.79-2.7,0.15-3.96
	c1.22-1.66,2.94-2.63,4.87-3.21c5.98-1.82,11.58-0.79,16.59,2.77c9.21,6.55,13.91,15.58,14.1,26.9c0.04,2.74-0.24,5.49-0.13,8.23
	c0.13,3.57,1.48,4.92,5.1,5.04c2.85,0.1,5.71-0.22,8.56-0.13c11.3,0.34,20.3,5.1,26.7,14.42c3.56,5.18,4.46,10.91,2.32,16.94
	c-0.7,2-1.84,3.78-3.87,4.71c-1.2,0.56-2.38,0.3-3.35-0.61c-0.76-0.72-1.14-1.63-0.8-2.68c0.42-1.29,1.33-1.95,2.7-2.01
	c0.66-0.02,1.43,0.48,2.08-0.17c-0.52-1.57-1.69-2.21-3.04-2.26c-1.9-0.07-1.97-0.8-1.62-2.49c0.96-4.59-0.58-8.43-4.19-11.42
	c-2.07-1.73-4.19-3.41-6.52-5.3c-0.08,2.78,0.58,5.11,2.39,6.81c4.5,4.24,4.86,9.25,3.43,14.84c-1.19,4.64,0.37,8.09,4.16,9.52
	c1.4,0.53,2.97,0.64,4.79,1c-2.69,5.81-0.76,11.08,2,16.24c1.71,3.18,2.2,6.58,2.2,10.17c-0.05,71.34-0.04,142.68,0.02,214.01v2.02
	c-0.06,72.55-0.07,209.17-0.02,280.52c0,3.6-0.49,6.99-2.2,10.17c-2.76,5.16-4.69,10.42-2,16.24c-1.82,0.36-3.39,0.47-4.79,1
	c-3.79,1.43-5.35,4.88-4.16,9.52c1.43,5.59,1.06,10.6-3.43,14.84c-1.81,1.7-2.47,4.04-2.39,6.81c2.33-1.89,4.45-3.57,6.52-5.29
	c3.61-2.99,5.15-6.83,4.19-11.43c-0.35-1.68-0.28-2.41,1.62-2.49c1.35-0.06,2.52-0.7,3.04-2.26c-0.66-0.66-1.42-0.15-2.08-0.17
	c-1.38-0.06-2.28-0.71-2.7-2c-0.35-1.06,0.03-1.97,0.8-2.68c0.97-0.91,2.15-1.17,3.35-0.61
	C558.57,650.16,559.7,651.94,560.41,653.94z"/>
<g id="outline">
	<g>
		<path d="M46.95,14.86c0.78-3.14,2.72-4.8,5.38-5.74c1.1-0.39,2.19-0.3,2.84,0.84c0.74,1.3,0.11,2.35-0.92,3.09
			C52.14,14.56,49.66,14.64,46.95,14.86z"/>
		<path d="M45.97,15.69l0.25-1.01c0.77-3.1,2.69-5.15,5.86-6.26c1.62-0.57,2.99-0.14,3.74,1.18c0.83,1.47,0.42,2.95-1.14,4.06
			c-2.13,1.53-4.55,1.71-7.11,1.91L45.97,15.69z M53.43,9.66c-0.23,0-0.51,0.05-0.85,0.17c-2.36,0.83-3.82,2.15-4.59,4.2
			c2.22-0.17,4.16-0.4,5.82-1.59c1.35-0.97,0.88-1.8,0.71-2.11C54.33,10,54.04,9.66,53.43,9.66z"/>
	</g>
	<g>
		<path d="M12.56,50.76c-0.23,4.18-1.97,7.18-4.03,6.91c-1.28-0.17-1.82-1.04-1.81-2.29c0.02-2.12,3.61-6.32,5.23-6.11
			C12.99,49.41,12.6,50.16,12.56,50.76z"/>
		<path d="M8.79,58.44c-0.12,0-0.24-0.01-0.36-0.02c-1.58-0.21-2.47-1.32-2.46-3.04c0.01-1.69,1.74-4.2,3.4-5.64
			c1.03-0.9,1.93-1.3,2.68-1.21c0.51,0.07,0.88,0.26,1.12,0.58c0.35,0.48,0.26,1.02,0.19,1.42c-0.02,0.1-0.03,0.19-0.04,0.28
			c-0.17,3.11-1.15,5.68-2.6,6.89C10.11,58.19,9.46,58.44,8.79,58.44z M11.81,50.02c-0.18,0-0.68,0.17-1.46,0.85
			c-1.5,1.31-2.88,3.46-2.89,4.52c-0.01,1.22,0.58,1.46,1.16,1.54c0.38,0.05,0.75-0.07,1.12-0.38c1.12-0.93,1.91-3.16,2.06-5.82
			l0-0.01c0.01-0.14,0.03-0.29,0.06-0.44c0.01-0.07,0.03-0.17,0.04-0.25c-0.02,0-0.04-0.01-0.06-0.01
			C11.84,50.02,11.83,50.02,11.81,50.02z"/>
	</g>
	<g>
		<g>
			<path d="M556.33,49.18c3.14,0.78,4.8,2.72,5.74,5.38c0.39,1.1,0.3,2.19-0.84,2.84c-1.3,0.74-2.35,0.11-3.09-0.92
				C556.63,54.37,556.54,51.89,556.33,49.18z"/>
			<path d="M560.11,58.47c-0.95,0-1.85-0.53-2.58-1.56c-1.53-2.13-1.71-4.55-1.91-7.11l-0.12-1.61l1.01,0.25
				c3.1,0.77,5.15,2.69,6.26,5.86c0.57,1.63,0.14,2.99-1.18,3.74C561.1,58.33,560.6,58.47,560.11,58.47z M557.16,50.22
				c0.17,2.22,0.4,4.16,1.59,5.82c0.97,1.35,1.79,0.88,2.11,0.71c0.46-0.26,0.93-0.71,0.5-1.93C560.53,52.45,559.21,51,557.16,50.22
				z"/>
		</g>
		<path d="M520.42,14.78c-4.18-0.23-7.18-1.97-6.91-4.03c0.17-1.28,1.04-1.82,2.29-1.81c2.12,0.02,6.32,3.61,6.11,5.23
			C521.77,15.21,521.02,14.82,520.42,14.78z"/>
		<path d="M521.24,15.64c-0.21,0-0.41-0.03-0.59-0.06c-0.1-0.02-0.19-0.03-0.28-0.04c-3.11-0.17-5.68-1.15-6.89-2.6
			c-0.57-0.69-0.82-1.48-0.71-2.28c0.21-1.57,1.3-2.46,3-2.46c0.01,0,0.02,0,0.04,0c1.69,0.01,4.2,1.74,5.64,3.4
			c0.9,1.03,1.3,1.93,1.21,2.68c-0.07,0.51-0.26,0.88-0.58,1.12C521.8,15.58,521.51,15.64,521.24,15.64z M515.77,9.69
			c-1.19,0-1.43,0.58-1.51,1.16c-0.05,0.38,0.08,0.75,0.38,1.12c0.93,1.12,3.16,1.91,5.82,2.06l0.01,0
			c0.14,0.01,0.29,0.03,0.44,0.06c0.07,0.01,0.17,0.03,0.25,0.04c0-0.02,0.01-0.04,0.01-0.06c0.02-0.15-0.13-0.67-0.85-1.49
			c-1.31-1.5-3.46-2.88-4.52-2.88C515.79,9.69,515.78,9.69,515.77,9.69z"/>
	</g>
	<g>
		<g>
			<g>
				<path d="M46.95,723.77c0.78,3.14,2.72,4.8,5.38,5.74c1.1,0.39,2.19,0.3,2.84-0.84c0.74-1.3,0.11-2.35-0.92-3.09
					C52.14,724.07,49.66,723.99,46.95,723.77z"/>
				<path d="M53.43,730.47c-0.42,0-0.87-0.08-1.34-0.25c-3.17-1.11-5.09-3.16-5.86-6.26l-0.25-1.01l1.6,0.12
					c2.56,0.19,4.98,0.38,7.11,1.91c1.55,1.12,1.97,2.6,1.14,4.06C55.29,729.98,54.45,730.47,53.43,730.47z M47.99,724.61
					c0.78,2.05,2.23,3.37,4.59,4.2c1.22,0.43,1.67-0.04,1.93-0.5c0.18-0.31,0.64-1.14-0.71-2.11
					C52.16,725.01,50.22,724.78,47.99,724.61z"/>
			</g>
			<g>
				<path d="M12.56,687.87c-0.23-4.18-1.97-7.18-4.03-6.91c-1.28,0.17-1.82,1.04-1.81,2.29c0.02,2.12,3.61,6.32,5.23,6.11
					C12.99,689.22,12.6,688.47,12.56,687.87z"/>
				<path d="M11.82,690.11c-0.7,0-1.52-0.41-2.45-1.22c-1.66-1.45-3.39-3.95-3.4-5.64c-0.01-1.72,0.88-2.83,2.46-3.04
					c0.79-0.11,1.58,0.14,2.28,0.71c1.46,1.21,2.43,3.78,2.6,6.89c0.01,0.09,0.02,0.19,0.04,0.28c0.07,0.4,0.16,0.94-0.19,1.42
					c-0.23,0.32-0.61,0.51-1.12,0.58C11.97,690.11,11.89,690.11,11.82,690.11z M8.79,681.69c-0.05,0-0.11,0-0.16,0.01
					c-0.58,0.08-1.17,0.32-1.16,1.54c0.01,1.06,1.38,3.21,2.89,4.52c0.83,0.72,1.33,0.86,1.49,0.85c0.02,0,0.04-0.01,0.06-0.01
					c-0.01-0.08-0.02-0.17-0.04-0.25c-0.03-0.15-0.05-0.3-0.06-0.44l0-0.01c-0.15-2.66-0.94-4.89-2.06-5.82
					C9.43,681.82,9.11,681.69,8.79,681.69z"/>
			</g>
		</g>
		<g>
			<g>
				<path d="M548.98,707.51c-1.24-2.31-3.12-1.96-4.94-0.45c-0.24,0.2-0.56,0.28-0.84,0.42c-0.76-1.38,0.2-2.56,0.36-4.12
					c-3.02-0.19-6.04-0.32-9.17-1.93c0.44,3.19,1.67,5.81,1.4,8.64c-0.09,0.98,0.53,1.06,1.26,0.74c0.93-0.41,1.86-0.63,3.11-0.18
					c-1.07,1.65-2.5,3-1.18,4.91c1.5,2.17,4.56,1.66,5.73-1.05c0.43-1,0.52-1.87,1.91-2.25
					C548.94,711.62,550.25,709.89,548.98,707.51z M33.05,711.01c0.19-3.02,0.31-6.04,1.92-9.17c-3.18,0.44-5.8,1.67-8.63,1.4
					c-0.98-0.09-1.06,0.52-0.74,1.26c0.41,0.93,0.62,1.86,0.17,3.1c-1.65-1.06-2.99-2.49-4.9-1.17c-2.17,1.51-1.66,4.56,1.05,5.73
					c0.99,0.43,1.86,0.52,2.24,1.91c0.63,2.32,2.35,3.63,4.73,2.36c2.32-1.24,1.98-3.12,0.46-4.94c-0.2-0.23-0.28-0.56-0.42-0.84
					C30.3,709.88,31.49,710.85,33.05,711.01z M33.05,27.62c-1.56,0.17-2.75,1.13-4.12,0.36c0.14-0.28,0.22-0.6,0.42-0.84
					c1.52-1.81,1.86-3.7-0.46-4.94c-2.38-1.26-4.1,0.05-4.73,2.37c-0.38,1.38-1.25,1.47-2.24,1.91c-2.71,1.16-3.22,4.23-1.05,5.73
					c1.91,1.31,3.25-0.12,4.9-1.18c0.45,1.24,0.24,2.18-0.17,3.1c-0.32,0.74-0.24,1.35,0.74,1.26c2.83-0.26,5.45,0.96,8.63,1.4
					C33.36,33.67,33.24,30.64,33.05,27.62z M546.62,26.39c-1.39-0.38-1.48-1.25-1.91-2.24c-1.17-2.72-4.23-3.22-5.73-1.05
					c-1.32,1.91,0.11,3.25,1.18,4.9c-1.25,0.45-2.18,0.23-3.11-0.17c-0.73-0.33-1.35-0.24-1.26,0.74c0.27,2.82-0.96,5.44-1.4,8.63
					c3.13-1.61,6.15-1.73,9.17-1.93c-0.16-1.55-1.12-2.74-0.36-4.12c0.28,0.14,0.6,0.23,0.84,0.43c1.82,1.51,3.7,1.85,4.94-0.46
					C550.25,28.74,548.94,27.01,546.62,26.39z"/>
				<path d="M27.13,717.67c-0.53,0-0.97-0.12-1.31-0.27c-1.12-0.48-1.96-1.6-2.38-3.14c-0.22-0.79-0.56-0.93-1.31-1.21
					c-0.16-0.06-0.33-0.13-0.51-0.2c-1.62-0.7-2.68-2.04-2.83-3.58c-0.14-1.37,0.47-2.63,1.65-3.46c1.96-1.35,3.54-0.36,4.83,0.54
					c0.02-0.54-0.13-1.02-0.36-1.55c-0.39-0.91-0.21-1.47,0.01-1.77c0.21-0.29,0.63-0.61,1.48-0.54c1.65,0.16,3.28-0.25,5.01-0.67
					c1.09-0.27,2.22-0.55,3.45-0.72l1.43-0.2l-0.66,1.28c-1.47,2.85-1.63,5.58-1.81,8.46l-0.07,1.19l-0.78-0.08
					c-0.6-0.06-1.14-0.23-1.62-0.37c-0.55-0.17-0.96-0.31-1.34-0.28c1.05,1.29,1.46,2.49,1.25,3.59c-0.19,0.98-0.87,1.78-2.01,2.4
					C28.43,717.52,27.72,717.67,27.13,717.67z M22.4,706.65c-0.35,0-0.7,0.12-1.1,0.4c-0.73,0.51-1.1,1.26-1.02,2.07
					c0.1,0.99,0.82,1.87,1.94,2.35c0.15,0.07,0.3,0.12,0.45,0.18c0.84,0.32,1.8,0.69,2.22,2.22c0.3,1.09,0.84,1.86,1.53,2.16
					c0.6,0.26,1.31,0.17,2.12-0.26c0.73-0.39,1.15-0.85,1.25-1.36c0.16-0.82-0.46-1.78-1.01-2.44c-0.21-0.24-0.32-0.52-0.41-0.75
					c-0.03-0.08-0.06-0.16-0.1-0.24l-0.32-0.64l0.62-0.35c1.18-0.67,2.27-0.34,3.22-0.05c0.19,0.06,0.38,0.11,0.57,0.17
					c0.15-2.36,0.35-4.79,1.34-7.29c-0.66,0.14-1.3,0.3-1.92,0.45c-1.85,0.46-3.6,0.89-5.51,0.71c-0.02,0-0.04,0-0.06,0
					c0.02,0.06,0.04,0.13,0.08,0.22c0.41,0.93,0.75,2.09,0.19,3.65l-0.32,0.88l-0.79-0.51c-0.27-0.17-0.53-0.35-0.78-0.53
					C23.66,707.06,23.03,706.65,22.4,706.65z M26.04,703.99L26.04,703.99L26.04,703.99z M541.45,717.64c-1.22,0-2.35-0.61-3.09-1.67
					c-1.35-1.95-0.36-3.54,0.54-4.83c-0.54-0.02-1.02,0.13-1.55,0.37c-0.9,0.4-1.46,0.21-1.77-0.01c-0.29-0.21-0.62-0.63-0.54-1.48
					c0.16-1.64-0.25-3.28-0.67-5c-0.27-1.1-0.55-2.23-0.72-3.47l-0.2-1.43l1.28,0.66c2.87,1.47,5.61,1.65,8.52,1.83l1.14,0.07
					l-0.08,0.78c-0.06,0.6-0.22,1.14-0.37,1.62c-0.17,0.55-0.28,0.97-0.28,1.35c1.29-1.04,2.5-1.46,3.59-1.25
					c0.97,0.19,1.78,0.86,2.39,2l0,0c0.82,1.54,0.62,2.72,0.31,3.43c-0.49,1.12-1.6,1.96-3.14,2.38c-0.79,0.22-0.92,0.56-1.21,1.32
					c-0.06,0.16-0.13,0.33-0.2,0.51c-0.7,1.62-2.04,2.68-3.59,2.84C541.69,717.63,541.57,717.64,541.45,717.64z M538.82,709.63
					c0.48,0,1.01,0.08,1.59,0.29l0.89,0.32l-0.51,0.79c-0.17,0.26-0.35,0.52-0.52,0.77c-1,1.43-1.45,2.17-0.67,3.31
					c0.5,0.73,1.25,1.09,2.07,1.02c1-0.1,1.88-0.82,2.36-1.94c0.07-0.15,0.12-0.3,0.18-0.45c0.32-0.85,0.69-1.81,2.22-2.23
					c1.09-0.29,1.86-0.83,2.16-1.52c0.26-0.6,0.17-1.32-0.26-2.13l0,0c-0.39-0.72-0.84-1.14-1.35-1.24
					c-0.82-0.16-1.79,0.46-2.45,1.01c-0.25,0.21-0.52,0.32-0.74,0.41c-0.08,0.03-0.16,0.07-0.24,0.1l-0.64,0.32l-0.35-0.63
					c-0.65-1.19-0.33-2.27-0.04-3.22c0.06-0.19,0.11-0.38,0.16-0.57c-2.36-0.15-4.79-0.36-7.29-1.35c0.14,0.66,0.3,1.31,0.45,1.94
					c0.46,1.85,0.89,3.61,0.71,5.5c0,0.02,0,0.04,0,0.06c0.06-0.02,0.13-0.04,0.22-0.08C537.34,709.86,538.01,709.63,538.82,709.63z
					 M536.54,710.36C536.54,710.36,536.54,710.36,536.54,710.36L536.54,710.36z M533.45,38.53l0.2-1.43
					c0.17-1.24,0.45-2.37,0.72-3.47c0.43-1.72,0.83-3.35,0.67-4.99c-0.08-0.86,0.25-1.29,0.55-1.49c0.31-0.22,0.87-0.4,1.77,0
					c0.53,0.23,1.01,0.36,1.55,0.35c-0.9-1.29-1.89-2.87-0.54-4.82c0.81-1.17,2.11-1.79,3.45-1.66c1.54,0.15,2.88,1.22,3.58,2.84
					c0.07,0.17,0.14,0.34,0.2,0.5c0.29,0.75,0.42,1.09,1.21,1.31c1.54,0.41,2.65,1.25,3.14,2.37c0.31,0.72,0.51,1.89-0.31,3.43
					c-0.61,1.14-1.42,1.82-2.39,2.01c-1.09,0.21-2.3-0.2-3.59-1.24c-0.01,0.38,0.11,0.79,0.28,1.34c0.14,0.48,0.31,1.01,0.37,1.61
					l0.08,0.77l-1.24,0.08c-2.87,0.19-5.58,0.36-8.41,1.82L533.45,38.53z M536.53,28.43c0,0.02,0,0.04,0,0.07
					c0.18,1.89-0.25,3.64-0.71,5.49c-0.16,0.63-0.32,1.28-0.45,1.94c2.5-1,4.93-1.2,7.29-1.35c-0.05-0.19-0.1-0.37-0.16-0.56
					c-0.29-0.96-0.61-2.04,0.04-3.23l0.35-0.63l0.64,0.32c0.08,0.04,0.15,0.07,0.23,0.1c0.22,0.09,0.5,0.21,0.75,0.42
					c0.66,0.55,1.61,1.16,2.44,1c0.51-0.1,0.97-0.52,1.36-1.24c0.43-0.81,0.52-1.53,0.26-2.13c-0.3-0.69-1.07-1.23-2.15-1.52l0,0
					c-1.53-0.42-1.89-1.37-2.22-2.22c-0.06-0.15-0.11-0.3-0.18-0.45c-0.48-1.12-1.36-1.84-2.35-1.94c-0.82-0.09-1.57,0.29-2.07,1.02
					c-0.78,1.13-0.34,1.87,0.66,3.29c0.18,0.25,0.36,0.51,0.53,0.77l0.51,0.79l-0.89,0.32c-1.55,0.56-2.72,0.22-3.66-0.19
					C536.67,28.48,536.59,28.45,536.53,28.43z M36.3,37.73l-1.43-0.2c-1.23-0.17-2.36-0.45-3.46-0.72c-1.73-0.43-3.36-0.83-5-0.68
					c-0.84,0.08-1.27-0.25-1.48-0.54c-0.22-0.31-0.41-0.86-0.01-1.77c0.23-0.52,0.38-1,0.36-1.55c-1.29,0.89-2.87,1.89-4.82,0.55
					c-1.18-0.81-1.79-2.1-1.66-3.46c0.16-1.55,1.22-2.89,2.84-3.58c0.17-0.08,0.34-0.14,0.51-0.21c0.74-0.29,1.08-0.43,1.3-1.21
					c0.42-1.54,1.26-2.66,2.38-3.14c0.71-0.31,1.89-0.51,3.42,0.31c1.15,0.61,1.83,1.42,2.02,2.4c0.21,1.1-0.21,2.31-1.25,3.58
					c0.37,0.01,0.8-0.11,1.36-0.28c0.47-0.14,1.01-0.31,1.6-0.37l0.78-0.08l0.08,1.2c0.18,2.89,0.35,5.62,1.81,8.46L36.3,37.73z
					 M27.15,34.6c1.57,0,3.06,0.37,4.62,0.75c0.63,0.15,1.27,0.31,1.93,0.45c-1-2.49-1.19-4.92-1.34-7.29
					c-0.19,0.05-0.37,0.11-0.55,0.16c-0.96,0.29-2.05,0.62-3.24-0.05l-0.62-0.35l0.32-0.64c0.04-0.08,0.07-0.16,0.1-0.24
					c0.09-0.22,0.2-0.5,0.41-0.75c0.55-0.65,1.17-1.61,1.01-2.43c-0.1-0.52-0.52-0.97-1.25-1.36c-0.81-0.43-1.52-0.52-2.12-0.26
					c-0.69,0.3-1.24,1.07-1.53,2.16c-0.42,1.51-1.36,1.88-2.2,2.21c-0.15,0.06-0.3,0.12-0.46,0.19c-1.12,0.48-1.84,1.36-1.94,2.35
					c-0.08,0.81,0.29,1.57,1.02,2.07c1.13,0.77,1.86,0.33,3.28-0.66c0.26-0.18,0.52-0.36,0.78-0.53l0.79-0.51l0.32,0.88
					c0.57,1.57,0.22,2.73-0.19,3.66c-0.04,0.09-0.06,0.16-0.08,0.21c0.02,0,0.04,0,0.06,0C26.57,34.61,26.86,34.6,27.15,34.6z
					 M26.04,34.64C26.04,34.64,26.04,34.64,26.04,34.64S26.04,34.64,26.04,34.64z"/>
			</g>
			<g>
				<path d="M556.48,692.58c-2.07,0.53-2.48,0.04-2.98-1.83c-0.94-3.46-4.02-4.93-7.5-3.96c-3.37,0.94-4.71,3.4-3.75,7.21
					c1.06-1.45,1.91-3.17,4.03-2.56c1.28,0.36,2.07,1.29,2.21,2.6c0.23,2.08-0.84,3.55-2.45,4.71c-1.73,1.23-3.7,1.32-5.69,0.93
					c-3.03-0.6-5.44-2.24-7.29-4.71c-3.21-4.28-3.02-4.84,1.99-6.13c8.44-2.18,16.2-5.64,22.18-12.2c5.92-6.5,8.81-14.07,7.37-22.96
					c-0.2-1.29-0.49-2.65-1.13-3.76c-2.57-4.38-2.59-8.92-1.42-13.68c1.05-4.3,1.22-8.67,0.78-13.08c-0.27-2.73-0.27-5.48-0.27-8.23
					c-0.01-70.45-0.01-420.79,0-491.23c0-2.75,0-5.5,0.27-8.22c0.44-4.42,0.27-8.79-0.78-13.09c-1.17-4.76-1.15-9.3,1.42-13.68
					c0.64-1.1,0.93-2.47,1.13-3.76c1.44-8.89-1.45-16.46-7.37-22.95c-5.98-6.57-13.74-10.03-22.18-12.2
					c-5.01-1.3-5.2-1.86-1.99-6.13c1.85-2.48,4.26-4.12,7.29-4.71c1.99-0.39,3.96-0.31,5.69,0.93c1.61,1.15,2.68,2.63,2.45,4.71
					c-0.14,1.31-0.93,2.24-2.21,2.59c-2.12,0.61-2.97-1.11-4.03-2.55c-0.96,3.8,0.38,6.27,3.75,7.21c3.48,0.97,6.56-0.5,7.5-3.96
					c0.5-1.88,0.91-2.36,2.98-1.84c3.62,0.92,7.05-0.9,8.54-4c1.1-2.3,0.92-4.65,0.34-7.07c-1.21-5.09-3.99-9.92-1.81-16.25
					c-4.88,4.48-4.9,9.07-3.77,14.02c0.66,2.94,0.42,5.9-2.57,7.51c-3.03,1.63-5.38-0.09-7.59-2.17c5.13-2.57,6.24-5.63,3.46-10.3
					c-0.93-1.56-0.07-1.81,0.78-2.48c5.2-4.06,5.98-10.28,8.6-16.57c-6.7,2.77-13.33,3.55-17.19,9.45
					c-0.52,0.79-0.98,0.37-1.62,0.05c-5.34-2.69-7.82-1.92-10.6,3.29c-1.99-2.12-3.64-4.38-2.25-7.32c1.48-3.09,4.4-3.39,7.37-2.84
					c2.06,0.37,4.09,0.82,6.2,0.67c2.98-0.22,5.45-1.43,7.25-3.92c-3.88,1.1-7.45,0.12-11.05-1.01c-2.19-0.69-4.42-1.41-6.68-1.67
					c-5.35-0.64-9.57,3.25-8.87,8.36c0.33,2.38,0.26,3.45-2.39,4.16c-3.11,0.82-4.3,4.33-3.18,7.59c1.12,3.21,3.48,4.38,7.05,3.35
					c-1.31-1-2.97-1.72-2.57-3.73c0.26-1.3,1.08-2.16,2.39-2.43c1.94-0.39,3.41,0.52,4.61,1.93c1.13,1.31,1.57,2.87,1.47,4.58
					c-0.25,4.31-2.45,7.41-6.01,9.65c-3.57,2.24-3.79,2.12-4.76-1.86c-2.24-9.12-5.82-17.61-13.23-23.75
					c-8.48-7.03-17.86-9.66-28.37-4.46c-2.23,1.1-4.73,1.61-7.06,0.98c-8.45-2.28-17-1.2-25.54-1.19
					c-36.37,0.02-289.49,0.02-325.96,0.01c-2.74,0-5.5,0-8.22-0.28c-4.42-0.44-8.79-0.27-13.08,0.78
					c-4.76,1.17-9.31,1.16-13.69-1.41c-1.1-0.65-2.47-0.93-3.76-1.14c-8.89-1.44-16.46,1.45-22.95,7.37
					c-6.57,5.99-10.03,13.74-12.2,22.18c-1.3,5.02-1.86,5.2-6.13,2c-2.48-1.86-4.11-4.27-4.71-7.3c-0.39-1.99-0.31-3.96,0.93-5.69
					c1.15-1.61,2.64-2.68,4.71-2.45c1.31,0.14,2.24,0.93,2.59,2.22c0.61,2.11-1.11,2.97-2.56,4.02c3.82,0.96,6.28-0.37,7.22-3.75
					c0.97-3.47-0.5-6.56-3.96-7.5c-1.87-0.5-2.36-0.91-1.84-2.97c0.92-3.63-0.9-7.05-4.01-8.54c-2.29-1.11-4.64-0.93-7.06-0.34
					c-5.09,1.21-9.92,3.98-16.25,1.8c4.48,4.88,9.07,4.9,14.03,3.78c2.93-0.67,5.89-0.43,7.5,2.56c1.64,3.03-0.09,5.38-2.17,7.6
					c-2.56-5.14-5.62-6.25-10.3-3.46c-1.56,0.93-1.81,0.06-2.47-0.78c-4.07-5.2-10.29-5.99-16.57-8.6
					c2.76,6.69,3.54,13.33,9.44,17.18c0.79,0.52,0.38,0.99,0.05,1.63c-2.68,5.33-1.91,7.82,3.29,10.6
					c-2.12,1.99-4.39,3.64-7.32,2.24c-3.09-1.47-3.39-4.39-2.84-7.37c0.37-2.06,0.82-4.09,0.67-6.19c-0.22-2.99-1.43-5.45-3.92-7.26
					c1.09,3.88,0.12,7.45-1.01,11.05c-0.69,2.19-1.41,4.42-1.67,6.69c-0.64,5.34,3.25,9.56,8.37,8.86c2.38-0.33,3.45-0.25,4.15,2.39
					c0.82,3.11,4.33,4.31,7.6,3.18c3.21-1.11,4.37-3.48,3.34-7.04c-1,1.3-1.72,2.97-3.72,2.56c-1.31-0.26-2.17-1.08-2.43-2.39
					c-0.39-1.94,0.51-3.41,1.92-4.61c1.31-1.13,2.87-1.57,4.59-1.47c4.3,0.26,7.4,2.46,9.64,6.02c2.24,3.56,2.12,3.79-1.86,4.76
					c-9.12,2.24-17.61,5.81-23.75,13.22C4.04,71.26,1.4,80.64,6.6,91.16c1.1,2.23,1.61,4.72,0.98,7.05c-2.27,8.45-1.2,17-1.19,25.54
					c0.04,69.51,0.02,139.03,0.06,208.54v4.85c-0.04,72.5-0.02,208.2-0.06,277.74c-0.01,8.54-1.08,17.09,1.19,25.54
					c0.63,2.33,0.12,4.83-0.98,7.06c-5.2,10.51-2.56,19.9,4.46,28.37c6.14,7.41,14.63,10.99,23.75,13.23
					c3.98,0.98,4.1,1.19,1.86,4.76c-2.24,3.55-5.34,5.76-9.64,6.01c-1.72,0.1-3.28-0.34-4.59-1.47c-1.41-1.2-2.31-2.67-1.92-4.61
					c0.26-1.3,1.12-2.12,2.43-2.39c2-0.4,2.72,1.26,3.72,2.56c1.03-3.56-0.13-5.93-3.34-7.03c-3.27-1.13-6.78,0.06-7.6,3.17
					c-0.7,2.65-1.77,2.72-4.15,2.4c-5.12-0.71-9.01,3.52-8.37,8.85c0.26,2.27,0.98,4.5,1.67,6.69c1.13,3.6,2.1,7.17,1.01,11.05
					c2.49-1.8,3.7-4.26,3.92-7.25c0.15-2.11-0.3-4.14-0.67-6.2c-0.55-2.98-0.25-5.89,2.84-7.36c2.93-1.4,5.2,0.25,7.32,2.24
					c-5.2,2.77-5.97,5.26-3.29,10.6c0.33,0.63,0.74,1.1-0.05,1.62c-5.9,3.86-6.68,10.49-9.44,17.18c6.28-2.61,12.5-3.4,16.57-8.6
					c0.66-0.83,0.91-1.7,2.47-0.77c4.68,2.78,7.74,1.67,10.3-3.46c2.08,2.21,3.81,4.56,2.17,7.59c-1.61,3-4.57,3.23-7.5,2.57
					c-4.96-1.13-9.55-1.11-14.03,3.77c6.33-2.18,11.16,0.6,16.25,1.81c2.42,0.58,4.77,0.76,7.06-0.34c3.11-1.5,4.93-4.91,4.01-8.54
					c-0.52-2.07-0.03-2.48,1.84-2.98c3.46-0.94,4.93-4.02,3.96-7.5c-0.94-3.37-3.4-4.71-7.22-3.75c1.45,1.06,3.17,1.91,2.56,4.02
					c-0.35,1.29-1.28,2.08-2.59,2.22c-2.07,0.23-3.56-0.84-4.71-2.45c-1.24-1.73-1.32-3.7-0.93-5.68c0.6-3.04,2.23-5.45,4.71-7.3
					c4.27-3.21,4.83-3.02,6.13,1.99c2.17,8.44,5.63,16.2,12.2,22.18c6.49,5.92,14.06,8.81,22.95,7.38c1.29-0.21,2.66-0.5,3.76-1.14
					c4.38-2.57,8.93-2.59,13.69-1.42c4.29,1.05,8.66,1.22,13.08,0.78c2.72-0.27,5.48-0.27,8.22-0.27
					C157.94,730,194.4,730,230.88,730h2.5c0.24-0.03,0.47-0.05,0.67-0.05c20.75,0.01,41.51,0.02,62.27,0.03
					c12.85,0,25.7-0.01,38.55-0.02c0.16,0,0.32,0.01,0.5,0.03c0,0,0.01,0,0.02,0h2.7c36.45,0.01,72.9,0.01,109.34,0.03
					c8.54,0,17.09,1.08,25.54-1.19c2.33-0.63,4.83-0.13,7.06,0.98c10.51,5.2,19.89,2.56,28.37-4.47
					c7.41-6.13,10.99-14.63,13.23-23.74c0.97-3.99,1.19-4.11,4.76-1.87c3.56,2.24,5.76,5.34,6.01,9.65c0.1,1.72-0.34,3.27-1.47,4.59
					c-1.2,1.4-2.67,2.31-4.61,1.92c-1.31-0.27-2.13-1.13-2.39-2.43c-0.4-2.01,1.26-2.73,2.57-3.72c-3.57-1.02-5.93,0.13-7.05,3.34
					c-1.12,3.27,0.07,6.77,3.18,7.6c2.65,0.7,2.72,1.77,2.39,4.15c-0.7,5.12,3.52,9.01,8.87,8.37c2.26-0.27,4.49-0.99,6.68-1.68
					c3.6-1.13,7.17-2.1,11.05-1.01c-1.8-2.49-4.27-3.7-7.25-3.91c-2.11-0.15-4.14,0.29-6.2,0.67c-2.97,0.54-5.89,0.25-7.37-2.84
					c-1.39-2.93,0.26-5.21,2.25-7.33c2.78,5.21,5.26,5.98,10.6,3.3c0.64-0.32,1.1-0.75,1.62,0.04c3.86,5.91,10.49,6.69,17.19,9.46
					c-2.62-6.3-3.4-12.51-8.6-16.58c-0.85-0.67-1.71-0.91-0.78-2.47c2.78-4.68,1.67-7.74-3.46-10.3c2.21-2.09,4.56-3.81,7.59-2.18
					c2.99,1.61,3.23,4.57,2.57,7.51c-1.13,4.96-1.11,9.55,3.77,14.02c-2.18-6.32,0.6-11.16,1.81-16.24
					c0.58-2.43,0.76-4.77-0.34-7.07C563.53,693.49,560.1,691.66,556.48,692.58z M535.79,28.57c-0.09-0.98,0.53-1.07,1.26-0.74
					c0.93,0.4,1.86,0.62,3.11,0.17c-1.07-1.65-2.5-2.99-1.18-4.9c1.5-2.17,4.56-1.67,5.73,1.05c0.43,0.99,0.52,1.86,1.91,2.24
					c2.32,0.62,3.63,2.35,2.36,4.73c-1.24,2.31-3.12,1.97-4.94,0.46c-0.24-0.2-0.56-0.29-0.84-0.43c-0.76,1.38,0.2,2.57,0.36,4.12
					c-3.02,0.2-6.04,0.32-9.17,1.93C534.83,34.01,536.06,31.39,535.79,28.57z M26.34,35.39c-0.98,0.09-1.06-0.52-0.74-1.26
					c0.41-0.92,0.62-1.86,0.17-3.1c-1.65,1.06-2.99,2.49-4.9,1.18c-2.17-1.5-1.66-4.57,1.05-5.73c0.99-0.44,1.86-0.53,2.24-1.91
					c0.63-2.32,2.35-3.63,4.73-2.37c2.32,1.24,1.98,3.13,0.46,4.94c-0.2,0.24-0.28,0.56-0.42,0.84c1.37,0.77,2.56-0.19,4.12-0.36
					c0.19,3.02,0.31,6.05,1.92,9.17C31.79,36.35,29.17,35.13,26.34,35.39z M33.05,711.01c-1.56-0.16-2.75-1.13-4.12-0.36
					c0.14,0.28,0.22,0.61,0.42,0.84c1.52,1.82,1.86,3.7-0.46,4.94c-2.38,1.27-4.1-0.04-4.73-2.36c-0.38-1.39-1.25-1.48-2.24-1.91
					c-2.71-1.17-3.22-4.22-1.05-5.73c1.91-1.32,3.25,0.11,4.9,1.17c0.45-1.24,0.24-2.17-0.17-3.1c-0.32-0.74-0.24-1.35,0.74-1.26
					c2.83,0.27,5.45-0.96,8.63-1.4C33.36,704.97,33.24,707.99,33.05,711.01z M522.83,685.17c-3.62,0.13-4.97,1.47-5.1,5.05
					c-0.11,2.74,0.17,5.48,0.13,8.22c-0.19,11.32-4.88,20.34-14.1,26.9c-5.01,3.55-10.6,4.59-16.58,2.77
					c-1.93-0.59-3.65-1.56-4.87-3.21c-0.94-1.26-1.14-2.61-0.15-3.95c0.7-0.97,1.66-1.47,2.86-1.11c1.63,0.48,2.19,1.67,2.01,3.3
					c-0.05,0.43-0.06,0.86-0.09,1.32c1.36,0.24,2.13-0.78,2.15-1.55c0.13-3.36,1.99-3.11,4.48-2.77c3.87,0.52,7.08-1.14,9.59-4.07
					c1.83-2.13,3.56-4.35,5.47-6.69c-2.97-0.33-5.35,0.72-7.19,2.65c-3.7,3.88-8.16,4.41-13.04,3.37c-7.6-1.61-9.7-0.35-11.46,7.32
					c-0.34,1.48-0.97,1.09-1.81,0.8c-4.35-1.49-8.51-0.77-12.39,1.38c-4.66,2.57-9.54,3.37-14.85,3.36
					c-36.61-0.05-73.23-0.06-109.85-0.06h-2.57c-0.22,0.04-0.44,0.05-0.63,0.05c-17.54-0.01-35.09-0.02-52.63-0.03l-48.04,0.03
					c-0.17,0-0.37-0.02-0.58-0.05h-2.7c-37.35,0-74.71,0.01-112.07,0.04c-3.6,0-6.99-0.49-10.17-2.19
					c-5.16-2.77-10.43-4.7-16.24-2.01c-0.36-1.82-0.47-3.38-1-4.79c-1.43-3.79-4.88-5.35-9.52-4.17c-5.59,1.43-10.6,1.07-14.84-3.43
					c-1.7-1.8-4.04-2.47-6.81-2.39c1.89,2.33,3.58,4.45,5.3,6.53c2.99,3.6,6.83,5.14,11.42,4.18c1.68-0.35,2.41-0.28,2.49,1.62
					c0.06,1.35,0.7,2.52,2.25,3.04c0.66-0.65,0.15-1.41,0.18-2.08c0.06-1.38,0.71-2.28,2-2.7c1.06-0.35,1.96,0.03,2.68,0.79
					c0.91,0.97,1.17,2.15,0.61,3.36c-0.93,2.02-2.71,3.16-4.71,3.86c-6.02,2.15-11.76,1.24-16.94-2.31
					c-9.32-6.41-14.08-15.42-14.42-26.71c-0.08-2.85,0.23-5.71,0.13-8.55c-0.12-3.63-1.46-4.98-5.04-5.11
					c-2.73-0.1-5.49,0.18-8.23,0.13c-11.31-0.19-20.34-4.88-26.89-14.1c-3.56-5.01-4.6-10.6-2.77-16.58
					c0.58-1.93,1.55-3.65,3.2-4.87c1.27-0.94,2.61-1.14,3.96-0.15c0.97,0.7,1.46,1.66,1.11,2.86c-0.48,1.62-1.68,2.2-3.3,2.01
					c-0.43-0.05-0.87-0.06-1.32-0.09c-0.24,1.36,0.77,2.13,1.55,2.15c3.36,0.13,3.11,1.99,2.77,4.48c-0.52,3.87,1.14,7.07,4.06,9.59
					c2.13,1.83,4.36,3.56,6.7,5.47c0.33-2.97-0.73-5.35-2.66-7.19c-3.88-3.7-4.39-8.16-3.37-13.04c1.61-7.6,0.35-9.7-7.32-11.46
					c-1.47-0.34-1.08-0.97-0.79-1.81c1.49-4.35,0.77-8.51-1.38-12.39c-2.58-4.66-3.38-9.54-3.37-14.85
					c0.1-69.74,0.08-205.79,0.02-278.33v-4.6C8.22,262.7,8.24,193,8.14,123.29c-0.01-5.31,0.79-10.19,3.37-14.85
					c2.15-3.87,2.87-8.04,1.38-12.38c-0.29-0.84-0.68-1.48,0.79-1.82c7.67-1.76,8.93-3.86,7.32-11.46
					c-1.02-4.88-0.51-9.34,3.37-13.04c1.93-1.84,2.99-4.22,2.66-7.19c-2.34,1.91-4.57,3.64-6.7,5.48c-2.92,2.51-4.58,5.71-4.06,9.58
					c0.34,2.5,0.59,4.36-2.77,4.48c-0.78,0.03-1.79,0.8-1.55,2.16c0.45-0.04,0.89-0.04,1.32-0.09c1.62-0.19,2.82,0.38,3.3,2
					c0.35,1.21-0.14,2.16-1.11,2.86c-1.35,0.99-2.69,0.79-3.96-0.14c-1.65-1.22-2.62-2.95-3.2-4.87
					c-1.83-5.98-0.79-11.58,2.77-16.59c6.55-9.21,15.58-13.91,26.89-14.1c2.74-0.04,5.5,0.24,8.23,0.13
					c3.58-0.13,4.92-1.48,5.04-5.1c0.1-2.85-0.21-5.71-0.13-8.56c0.34-11.29,5.1-20.3,14.42-26.7c5.18-3.56,10.92-4.46,16.94-2.32
					c2,0.7,3.78,1.84,4.71,3.87c0.56,1.2,0.3,2.38-0.61,3.35c-0.72,0.76-1.62,1.15-2.68,0.8c-1.29-0.43-1.94-1.33-2-2.71
					c-0.03-0.66,0.48-1.42-0.18-2.08c-1.55,0.52-2.19,1.69-2.25,3.05c-0.08,1.9-0.81,1.96-2.49,1.61
					c-4.59-0.96-8.43,0.58-11.42,4.19c-1.72,2.07-3.41,4.19-5.3,6.52c2.77,0.08,5.11-0.58,6.81-2.39c4.24-4.49,9.25-4.86,14.84-3.43
					c4.64,1.18,8.09-0.38,9.52-4.17c0.53-1.4,0.64-2.96,1-4.79c5.81,2.69,11.08,0.76,16.24-2c3.18-1.71,6.57-2.2,10.17-2.2
					c12.45,0.01,29.42,0.01,46.51,0.01c34.18,0,68.84-0.01,68.84-0.01c0.01,0,177.11,0.03,213.72-0.02
					c5.31-0.01,10.19,0.79,14.85,3.37c3.88,2.14,8.04,2.87,12.39,1.38c0.84-0.29,1.47-0.69,1.81,0.79
					c1.76,7.67,3.86,8.93,11.46,7.32c4.88-1.03,9.34-0.51,13.04,3.37c1.84,1.93,4.22,2.99,7.19,2.65c-1.91-2.33-3.64-4.56-5.47-6.69
					c-2.51-2.93-5.72-4.59-9.59-4.06c-2.49,0.34-4.35,0.59-4.48-2.77c-0.02-0.78-0.79-1.79-2.15-1.55c0.03,0.45,0.04,0.88,0.09,1.32
					c0.18,1.62-0.38,2.81-2.01,3.3c-1.2,0.35-2.16-0.15-2.86-1.11c-0.99-1.34-0.79-2.69,0.15-3.95c1.22-1.66,2.94-2.63,4.87-3.21
					c5.98-1.83,11.57-0.79,16.58,2.77c9.22,6.55,13.91,15.58,14.1,26.89c0.04,2.74-0.24,5.49-0.13,8.23
					c0.13,3.57,1.48,4.92,5.1,5.04c2.85,0.1,5.71-0.21,8.56-0.13c11.29,0.34,20.3,5.1,26.7,14.42c3.56,5.18,4.47,10.92,2.33,16.94
					c-0.71,2-1.85,3.78-3.88,4.71c-1.2,0.55-2.38,0.3-3.35-0.61c-0.76-0.72-1.14-1.62-0.79-2.68c0.42-1.29,1.32-1.95,2.7-2
					c0.66-0.03,1.43,0.48,2.08-0.17c-0.52-1.57-1.69-2.21-3.04-2.26c-1.9-0.08-1.97-0.81-1.62-2.49c0.96-4.6-0.58-8.44-4.19-11.42
					c-2.07-1.73-4.19-3.41-6.52-5.3c-0.08,2.78,0.58,5.11,2.39,6.81c4.5,4.24,4.86,9.24,3.44,14.83c-1.19,4.65,0.37,8.1,4.16,9.53
					c1.4,0.53,2.97,0.63,4.79,1c-2.68,5.81-0.76,11.08,2,16.24c1.71,3.17,2.2,6.57,2.2,10.17c-0.05,71.33-0.05,425.19,0,496.54
					c0,3.6-0.49,6.99-2.2,10.17c-2.76,5.15-4.68,10.42-2,16.23c-1.82,0.37-3.39,0.48-4.79,1.01c-3.79,1.42-5.35,4.87-4.16,9.52
					c1.42,5.59,1.06,10.6-3.44,14.83c-1.81,1.7-2.47,4.04-2.39,6.81c2.33-1.89,4.45-3.57,6.52-5.29c3.61-2.99,5.15-6.83,4.19-11.43
					c-0.35-1.68-0.28-2.41,1.62-2.48c1.35-0.06,2.52-0.7,3.04-2.26c-0.65-0.65-1.42-0.15-2.08-0.17c-1.38-0.06-2.28-0.72-2.7-2
					c-0.35-1.06,0.03-1.97,0.79-2.68c0.97-0.91,2.15-1.17,3.35-0.61c2.03,0.92,3.17,2.71,3.88,4.71c2.14,6.02,1.23,11.76-2.33,16.93
					c-6.4,9.33-15.41,14.08-26.7,14.42C528.54,685.39,525.68,685.07,522.83,685.17z M546.62,712.24c-1.39,0.38-1.48,1.25-1.91,2.25
					c-1.17,2.71-4.23,3.22-5.73,1.05c-1.32-1.91,0.11-3.26,1.18-4.91c-1.25-0.45-2.18-0.23-3.11,0.18
					c-0.73,0.32-1.35,0.24-1.26-0.74c0.27-2.83-0.96-5.45-1.4-8.64c3.13,1.61,6.15,1.74,9.17,1.93c-0.16,1.56-1.12,2.74-0.36,4.12
					c0.28-0.14,0.6-0.22,0.84-0.42c1.82-1.51,3.7-1.86,4.94,0.45C550.25,709.89,548.94,711.62,546.62,712.24z"/>
				<path d="M36.14,734.02c-1.29,0-2.51-0.23-3.56-0.48c-1.21-0.29-2.42-0.67-3.59-1.03c-3.92-1.23-7.62-2.39-12.24-0.8l-2.8,0.96
					l2-2.18c4.91-5.35,9.99-5.08,14.75-3.99c3.3,0.75,5.48,0.02,6.67-2.19c1.16-2.15,0.44-3.87-1.35-5.94
					c-1.32,2.31-2.79,3.68-4.49,4.18c-1.82,0.54-3.9,0.09-6.35-1.37c-0.74-0.44-0.75-0.43-1.21,0.21c-0.09,0.12-0.18,0.25-0.29,0.38
					c-3.15,4.02-7.49,5.5-12.08,7.07c-1.57,0.53-3.18,1.09-4.79,1.75l-1.67,0.7l0.69-1.67c0.67-1.61,1.22-3.24,1.75-4.81
					c1.69-4.97,3.29-9.66,7.97-12.71c0.04-0.03,0.08-0.05,0.1-0.07c-0.04-0.09-0.12-0.23-0.17-0.33l-0.13-0.24
					c-2.7-5.39-2.05-8.29,2.68-11.09c-1.94-1.66-3.65-2.41-5.72-1.42c-2.28,1.08-3.05,3.17-2.43,6.55l0.14,0.75
					c0.34,1.81,0.68,3.69,0.54,5.64c-0.24,3.33-1.67,5.95-4.23,7.8l-1.74,1.26l0.58-2.07c1.02-3.62,0.15-6.96-1-10.62l-0.07-0.23
					c-0.67-2.13-1.37-4.34-1.63-6.6c-0.35-2.91,0.55-5.65,2.45-7.52c1.78-1.75,4.19-2.51,6.76-2.15c2.17,0.29,2.76,0.28,3.32-1.85
					c0.39-1.49,1.32-2.66,2.69-3.39c1.69-0.9,3.83-1.01,5.88-0.3c3.59,1.23,4.94,4.05,3.81,7.95l-0.41,1.42l-0.9-1.17
					c-0.17-0.22-0.33-0.45-0.49-0.68c-0.85-1.21-1.35-1.83-2.48-1.6c-1.02,0.21-1.65,0.82-1.84,1.8c-0.29,1.44,0.24,2.67,1.67,3.89
					c1.12,0.96,2.45,1.39,4.06,1.29c3.83-0.22,6.79-2.07,9.05-5.66c0.51-0.82,1.47-2.35,1.34-2.67c-0.13-0.31-1.77-0.72-2.74-0.96
					c-11.27-2.77-18.72-6.93-24.15-13.48c-7.89-9.52-9.42-19.34-4.55-29.18c0.79-1.61,1.6-4.05,0.93-6.53
					c-1.75-6.52-1.55-13.16-1.35-19.58c0.06-2.02,0.13-4.1,0.13-6.15c0.02-34.84,0.02-86.3,0.03-138.09
					c0.01-51.57,0.01-103.47,0.03-139.65v-4.85c-0.02-34.75-0.02-69.51-0.03-104.27c0-34.76-0.01-69.52-0.03-104.27
					c0-2.05-0.07-4.13-0.13-6.15c-0.2-6.42-0.41-13.06,1.35-19.58c0.67-2.48-0.14-4.92-0.93-6.52c-4.93-9.98-3.44-19.53,4.55-29.19
					c5.42-6.55,12.87-10.7,24.15-13.47c0.91-0.22,2.61-0.64,2.74-0.96c0.13-0.33-0.83-1.86-1.34-2.68
					c-2.25-3.58-5.22-5.44-9.05-5.67c-1.61-0.09-2.94,0.33-4.06,1.29c-1.43,1.22-1.96,2.46-1.67,3.89c0.2,0.99,0.82,1.6,1.84,1.8
					c1.14,0.24,1.64-0.39,2.48-1.59c0.16-0.23,0.33-0.46,0.5-0.69l0.9-1.17l0.41,1.42c1.13,3.89-0.23,6.72-3.81,7.96
					c-2.05,0.71-4.19,0.6-5.87-0.3c-1.37-0.73-2.31-1.91-2.7-3.39c-0.56-2.13-1.16-2.14-3.32-1.84c-2.59,0.36-4.99-0.41-6.77-2.16
					c-1.9-1.87-2.8-4.62-2.45-7.53c0.26-2.26,0.95-4.46,1.63-6.59l0.07-0.23c1.15-3.67,2.02-7,1-10.62l-0.58-2.08l1.75,1.27
					c2.56,1.86,3.98,4.49,4.23,7.81c0.14,1.94-0.21,3.82-0.54,5.63l-0.14,0.75c-0.63,3.39,0.14,5.48,2.42,6.56
					c2.07,0.99,3.78,0.24,5.72-1.42c-4.73-2.8-5.38-5.71-2.68-11.08l0.14-0.25c0.06-0.1,0.14-0.25,0.17-0.34
					c-0.02-0.02-0.05-0.04-0.1-0.07c-4.67-3.05-6.27-7.74-7.97-12.71c-0.54-1.57-1.09-3.2-1.76-4.81L5.14,7.34l1.67,0.69
					c1.61,0.67,3.22,1.22,4.79,1.75c4.59,1.57,8.93,3.05,12.08,7.08c0.1,0.13,0.19,0.26,0.28,0.38c0.46,0.65,0.47,0.66,1.21,0.21
					c2.45-1.46,4.53-1.92,6.35-1.38c1.7,0.5,3.18,1.87,4.49,4.19c1.79-2.08,2.51-3.81,1.35-5.95c-1.2-2.22-3.38-2.94-6.67-2.19
					c-4.77,1.08-9.85,1.33-14.75-4l-2-2.18l2.8,0.96C21.37,8.51,25.07,7.35,29,6.13c1.17-0.36,2.37-0.74,3.58-1.03
					c2.09-0.51,4.84-0.93,7.56,0.39c3.56,1.71,5.38,5.57,4.41,9.4c-0.4,1.57-0.28,1.64,1.31,2.06c1.79,0.49,3.17,1.51,3.99,2.96
					c0.87,1.54,1.05,3.48,0.49,5.47c-1.06,3.81-3.95,5.33-8.12,4.28l-1.56-0.39l1.3-0.94c0.17-0.12,0.35-0.25,0.53-0.37
					c1.41-0.98,2.13-1.55,1.75-2.83c-0.27-1-0.94-1.58-1.95-1.68c-1.58-0.17-2.85,0.51-4.02,2.14c-0.97,1.35-1.22,2.97-0.8,5.11
					c0.54,2.75,2.03,5.05,4.42,6.84c1.02,0.76,2.9,2.17,3.5,1.97c0.58-0.2,1.15-2.38,1.45-3.56c2.57-10,6.52-17.16,12.42-22.55
					c7.03-6.41,14.96-8.95,23.58-7.56c1.38,0.23,2.83,0.53,4.02,1.23c3.73,2.19,7.9,2.61,13.13,1.33c4.15-1.02,8.52-1.28,13.33-0.8
					c2.68,0.28,5.46,0.28,8.15,0.28c38.66,0.01,290.44,0.01,325.96-0.01c2.05,0,4.14-0.07,6.17-0.13c6.42-0.2,13.05-0.41,19.57,1.35
					c2.48,0.67,4.92-0.13,6.53-0.93c9.98-4.94,19.53-3.45,29.18,4.56c6.55,5.43,10.71,12.88,13.48,24.15
					c0.22,0.92,0.64,2.62,0.95,2.74c0.32,0.14,1.86-0.83,2.68-1.34c3.58-2.26,5.44-5.22,5.66-9.06c0.09-1.59-0.34-2.95-1.29-4.05
					c-1.22-1.44-2.46-1.98-3.89-1.68c-0.99,0.2-1.6,0.82-1.8,1.84c-0.23,1.15,0.4,1.65,1.61,2.5c0.23,0.16,0.46,0.32,0.68,0.49
					l1.18,0.9l-1.43,0.41c-3.94,1.14-6.7-0.19-7.97-3.82c-0.7-2.05-0.59-4.19,0.31-5.87c0.73-1.37,1.9-2.3,3.39-2.69
					c2.13-0.57,2.14-1.16,1.84-3.33c-0.35-2.58,0.41-4.98,2.16-6.76c1.88-1.91,4.62-2.8,7.54-2.45c2.25,0.26,4.46,0.95,6.59,1.63
					l0.23,0.07c3.68,1.15,7.01,2.03,10.62,1l2.08-0.59l-1.27,1.75c-1.85,2.56-4.48,3.98-7.8,4.23c-1.95,0.14-3.83-0.21-5.64-0.54
					l-0.75-0.14c-3.39-0.63-5.47,0.14-6.56,2.43c-0.99,2.09-0.27,3.74,1.43,5.72c2.8-4.74,5.71-5.39,11.08-2.68
					c0.09,0.05,0.18,0.1,0.27,0.14c0.09,0.05,0.23,0.12,0.31,0.16c0.02-0.02,0.04-0.05,0.07-0.09c3.06-4.67,7.74-6.27,12.71-7.97
					c1.58-0.54,3.21-1.09,4.82-1.76l1.68-0.69l-0.7,1.67c-0.67,1.62-1.23,3.24-1.77,4.82c-1.57,4.58-3.04,8.92-7.07,12.06
					c-0.13,0.1-0.26,0.19-0.38,0.28c-0.65,0.47-0.66,0.47-0.22,1.22c1.46,2.45,1.91,4.52,1.37,6.34c-0.5,1.7-1.87,3.18-4.19,4.51
					c2.07,1.79,3.8,2.51,5.94,1.35c2.22-1.19,2.93-3.38,2.19-6.69c-1.08-4.75-1.35-9.83,4-14.74l2.18-2l-0.96,2.8
					c-1.59,4.62-0.43,8.32,0.8,12.24c0.37,1.17,0.75,2.38,1.03,3.59c0.5,2.09,0.91,4.84-0.39,7.57c-1.71,3.57-5.58,5.38-9.4,4.4
					c-1.58-0.4-1.65-0.28-2.07,1.31c-0.49,1.79-1.51,3.17-2.96,4c-1.54,0.87-3.48,1.05-5.47,0.49c-3.81-1.06-5.33-3.95-4.28-8.12
					l0.39-1.54l0.94,1.28c0.13,0.18,0.26,0.37,0.39,0.55c0.97,1.39,1.54,2.09,2.82,1.72c0.99-0.27,1.57-0.94,1.67-1.95
					c0.17-1.58-0.5-2.85-2.14-4.02c-1.35-0.97-2.97-1.22-5.11-0.8c-2.75,0.53-5.04,2.02-6.83,4.42c-0.76,1.02-2.18,2.9-1.97,3.5
					c0.2,0.58,2.38,1.15,3.55,1.45c10.01,2.57,17.18,6.52,22.55,12.42c6.41,7.03,8.95,14.96,7.56,23.58
					c-0.2,1.29-0.5,2.78-1.22,4.02c-2.2,3.74-2.62,7.91-1.34,13.12c1.02,4.16,1.28,8.53,0.8,13.34c-0.27,2.68-0.27,5.46-0.27,8.15
					c-0.01,71.15-0.01,420.07,0,491.23c0,2.69,0,5.46,0.27,8.16c0.48,4.81,0.22,9.17-0.8,13.33c-1.28,5.21-0.86,9.38,1.34,13.12
					c0.72,1.26,1.03,2.74,1.22,4.02c1.39,8.61-1.15,16.54-7.56,23.58c-5.37,5.89-12.53,9.83-22.55,12.42
					c-1.17,0.3-3.35,0.86-3.55,1.44c-0.21,0.6,1.21,2.49,1.97,3.51c1.79,2.39,4.09,3.88,6.84,4.42c2.13,0.42,3.75,0.16,5.11-0.81
					c1.63-1.18,2.31-2.45,2.14-4.02c-0.11-1.01-0.68-1.68-1.67-1.96c-1.29-0.37-1.86,0.34-2.83,1.73c-0.13,0.18-0.25,0.37-0.39,0.55
					l-0.94,1.29l-0.39-1.55c-1.05-4.17,0.47-7.05,4.28-8.12c1.99-0.55,3.93-0.38,5.47,0.49c1.45,0.82,2.47,2.2,2.96,3.99
					c0.42,1.59,0.5,1.7,2.07,1.3h0c3.82-0.97,7.68,0.84,9.4,4.41c1.3,2.72,0.89,5.47,0.39,7.57c-0.29,1.21-0.67,2.41-1.03,3.58
					c-1.18,3.75-2.39,7.63-0.8,12.24l0.96,2.79l-2.18-2c-5.35-4.9-5.08-9.98-4-14.74c0.74-3.3,0.02-5.49-2.19-6.68
					c-2.15-1.16-3.88-0.43-5.94,1.36c2.31,1.32,3.68,2.79,4.18,4.49c0.54,1.82,0.09,3.9-1.37,6.35c-0.44,0.74-0.43,0.75,0.21,1.21
					c0.13,0.09,0.26,0.18,0.39,0.29c4.02,3.15,5.5,7.48,7.07,12.07c0.54,1.57,1.09,3.2,1.76,4.81l0.7,1.67l-1.67-0.69
					c-1.62-0.67-3.25-1.22-4.82-1.76c-4.96-1.7-9.66-3.3-12.71-7.98c-0.03-0.04-0.05-0.07-0.06-0.09c-0.08,0.04-0.21,0.11-0.3,0.16
					c-0.09,0.05-0.19,0.1-0.29,0.15c-5.37,2.69-8.28,2.04-11.08-2.69c-1.67,1.94-2.42,3.65-1.43,5.73c1.08,2.27,3.17,3.04,6.56,2.42
					l0.59-0.11c1.87-0.35,3.79-0.71,5.8-0.57c3.33,0.24,5.95,1.65,7.8,4.22l1.26,1.74l-2.07-0.58c-3.62-1.02-6.95-0.15-10.62,1
					l-0.24,0.08c-2.13,0.67-4.33,1.36-6.58,1.63c-2.92,0.35-5.66-0.54-7.54-2.45c-1.75-1.78-2.52-4.18-2.16-6.76
					c0.3-2.17,0.29-2.76-1.84-3.32c-1.49-0.4-2.66-1.33-3.39-2.7c-0.9-1.68-1.01-3.82-0.31-5.87c1.27-3.63,4.02-4.94,7.97-3.82
					l1.45,0.41l-1.2,0.91c-0.22,0.16-0.44,0.32-0.67,0.47c-1.22,0.85-1.85,1.35-1.62,2.5c0.2,1.02,0.81,1.64,1.81,1.84
					c1.43,0.29,2.67-0.25,3.89-1.67c0.96-1.12,1.38-2.45,1.29-4.06c-0.22-3.84-2.07-6.8-5.66-9.06c-0.82-0.52-2.35-1.48-2.68-1.34
					c-0.32,0.13-0.73,1.83-0.95,2.75c-2.77,11.28-6.93,18.72-13.48,24.14c-9.66,8.01-19.2,9.5-29.18,4.56
					c-1.6-0.8-4.03-1.6-6.53-0.93c-6.5,1.75-13.11,1.54-19.51,1.34c-2.04-0.06-4.15-0.13-6.22-0.13
					c-24.69-0.01-49.38-0.02-74.07-0.02l-38.08-0.01c-0.15-0.02-0.28-0.03-0.42-0.03l-3.21,0c-11.78,0.01-23.56,0.02-35.34,0.02
					l-62.27-0.03c-0.17,0-0.37,0.02-0.58,0.04l-2.59,0.01c-36.48,0-72.94,0-109.41,0.01c-2.69,0-5.46,0-8.15,0.27
					c-4.82,0.48-9.18,0.22-13.33-0.8c-5.22-1.28-9.39-0.86-13.13,1.34c-1.21,0.71-2.65,1.01-4.02,1.23
					c-8.62,1.39-16.55-1.16-23.58-7.57c-5.9-5.37-9.85-12.53-12.42-22.55c-0.3-1.17-0.87-3.34-1.45-3.55
					c-0.6-0.21-2.49,1.21-3.5,1.97c-2.39,1.79-3.88,4.09-4.42,6.85c-0.42,2.13-0.16,3.75,0.8,5.1c1.17,1.64,2.45,2.31,4.02,2.14
					c1.01-0.11,1.68-0.69,1.95-1.67c0.37-1.29-0.34-1.86-1.73-2.83c-0.18-0.13-0.37-0.26-0.55-0.39l-1.29-0.94l1.55-0.39
					c4.18-1.05,7.06,0.47,8.12,4.28c0.56,1.99,0.38,3.93-0.49,5.47c-0.82,1.45-2.2,2.47-3.99,2.96c-1.59,0.43-1.71,0.5-1.31,2.07
					c0.97,3.81-0.85,7.68-4.41,9.4C38.78,733.79,37.42,734.02,36.14,734.02z M21.28,729.43c2.93,0,5.57,0.83,8.16,1.64
					c1.2,0.38,2.33,0.73,3.49,1.01c2.79,0.67,4.75,0.58,6.56-0.29c2.91-1.41,4.4-4.56,3.61-7.68c-0.65-2.59,0.25-3.32,2.37-3.89
					c1.39-0.38,2.46-1.16,3.08-2.25c0.67-1.19,0.8-2.72,0.35-4.32c-0.69-2.48-2.21-3.63-4.6-3.5c1.04,0.84,1.91,1.95,1.38,3.78
					c-0.43,1.57-1.61,2.58-3.23,2.76c-2.11,0.23-3.92-0.7-5.4-2.76c-1.21-1.69-1.55-3.73-1.06-6.26c0.62-3.13,2.3-5.75,5-7.76
					c2.14-1.61,3.63-2.63,4.9-2.19c1.25,0.44,1.76,2.1,2.41,4.59c2.5,9.72,6.3,16.65,11.98,21.81c6.67,6.08,14.19,8.51,22.33,7.2
					c1.23-0.2,2.5-0.47,3.5-1.05c4.1-2.4,8.63-2.88,14.25-1.5c3.98,0.97,8.18,1.22,12.83,0.76c2.76-0.27,5.57-0.27,8.29-0.27
					c36.47-0.01,72.93-0.01,109.41-0.01h2.5c0.18-0.03,0.44-0.05,0.67-0.05l62.27,0.03c11.78,0,23.56-0.01,35.34-0.02l3.21,0
					c0.19,0,0.38,0.01,0.59,0.04l2.64,0l35.27,0.01c24.69,0,49.38,0.01,74.07,0.02c2.09,0,4.22,0.07,6.27,0.13
					c6.29,0.19,12.79,0.39,19.08-1.29c2.95-0.8,5.76,0.12,7.59,1.03c9.39,4.64,18.4,3.21,27.56-4.38
					c6.29-5.2,10.29-12.4,12.98-23.34c0.54-2.21,0.86-3.39,1.85-3.79c0.99-0.4,2.12,0.26,4.04,1.46c3.97,2.5,6.11,5.94,6.36,10.24
					c0.12,1.98-0.44,3.71-1.65,5.12c-1.59,1.86-3.33,2.57-5.33,2.17c-1.6-0.33-2.65-1.4-2.98-3.02c-0.34-1.71,0.5-2.71,1.46-3.46
					c-2.22-0.2-3.68,0.84-4.5,3.18c-0.57,1.65-0.49,3.36,0.21,4.67c0.53,0.99,1.38,1.67,2.45,1.96c3.26,0.86,3.28,2.53,2.94,4.98
					c-0.29,2.11,0.33,4.07,1.75,5.51c1.55,1.57,3.84,2.31,6.29,2.01c2.11-0.25,4.24-0.92,6.3-1.57l0.24-0.08
					c3.04-0.95,6.05-1.77,9.21-1.45c-1.4-1.2-3.14-1.86-5.24-2.01c-1.81-0.13-3.56,0.2-5.42,0.55l-0.59,0.11
					c-4.11,0.75-6.78-0.32-8.18-3.25c-1.56-3.29,0.22-5.87,2.38-8.17l0.72-0.76l0.49,0.92c2.58,4.83,4.64,5.47,9.6,2.98l0.24-0.13
					c0.49-0.27,1.52-0.83,2.34,0.43c2.78,4.25,7.02,5.7,11.94,7.38c1.08,0.37,2.18,0.74,3.29,1.16c-0.42-1.11-0.79-2.21-1.16-3.29
					c-1.56-4.56-2.9-8.5-6.57-11.37c-0.12-0.09-0.23-0.17-0.34-0.25c-0.71-0.51-1.78-1.27-0.63-3.2c1.23-2.08,1.63-3.76,1.22-5.16
					c-0.44-1.5-1.87-2.84-4.37-4.08l-0.96-0.48l0.78-0.74c1.61-1.52,4.61-4.37,8.46-2.29c2.85,1.54,3.84,4.34,2.95,8.33
					c-0.95,4.16-0.99,7.74,1.63,11.21c-0.54-3.81,0.49-7.09,1.49-10.29c0.38-1.19,0.73-2.32,1-3.48c0.67-2.79,0.58-4.76-0.29-6.57
					c-1.4-2.91-4.55-4.4-7.68-3.61c-2.59,0.66-3.32-0.23-3.89-2.36c-0.38-1.39-1.16-2.46-2.25-3.08c-1.19-0.68-2.72-0.8-4.32-0.35
					c-2.48,0.69-3.63,2.2-3.5,4.59c0.84-1.04,1.96-1.91,3.79-1.38c1.57,0.44,2.58,1.62,2.75,3.24c0.24,2.12-0.67,3.89-2.76,5.4
					c-1.7,1.21-3.75,1.55-6.27,1.06c-3.12-0.62-5.73-2.3-7.75-5c-1.61-2.14-2.63-3.64-2.19-4.91c0.44-1.25,2.1-1.76,4.59-2.4
					c9.72-2.51,16.65-6.32,21.81-11.98c6.09-6.68,8.5-14.2,7.18-22.33c-0.18-1.15-0.44-2.47-1.04-3.51
					c-2.4-4.09-2.88-8.62-1.5-14.23c0.98-3.99,1.22-8.19,0.76-12.83c-0.27-2.77-0.27-5.58-0.27-8.3
					c-0.01-71.16-0.01-420.07,0-491.23c0-2.72,0-5.54,0.27-8.29c0.46-4.65,0.21-8.84-0.76-12.84c-1.38-5.62-0.9-10.14,1.5-14.24
					c0.59-1.02,0.86-2.34,1.04-3.5c1.32-8.15-1.1-15.66-7.18-22.33c-5.17-5.67-12.1-9.48-21.81-11.98
					c-2.49-0.65-4.16-1.16-4.59-2.41c-0.44-1.26,0.58-2.76,2.19-4.9c2.02-2.71,4.62-4.39,7.75-5c2.53-0.5,4.59-0.15,6.27,1.06
					c2.06,1.47,2.99,3.29,2.76,5.4c-0.17,1.62-1.18,2.8-2.76,3.23c-1.82,0.52-2.93-0.34-3.77-1.37c-0.11,2.37,1.06,3.91,3.5,4.59
					c1.6,0.45,3.14,0.32,4.32-0.35c1.09-0.62,1.87-1.69,2.25-3.08c0.57-2.12,1.29-3.02,3.89-2.37c3.13,0.79,6.28-0.69,7.68-3.6
					c0.87-1.82,0.95-3.78,0.29-6.57c-0.28-1.16-0.63-2.29-1.01-3.49c-1-3.2-2.03-6.48-1.49-10.29c-2.62,3.48-2.57,7.06-1.63,11.21
					c0.9,4-0.09,6.8-2.95,8.34c-3.84,2.07-6.85-0.76-8.46-2.28l-0.78-0.74l0.96-0.48c2.5-1.25,3.93-2.59,4.38-4.1
					c0.41-1.4,0.01-3.08-1.22-5.15c-1.15-1.93-0.08-2.7,0.63-3.21c0.11-0.08,0.22-0.16,0.33-0.24c3.67-2.87,5.02-6.8,6.57-11.36
					c0.37-1.08,0.74-2.18,1.16-3.29c-1.11,0.42-2.22,0.79-3.29,1.16c-4.92,1.68-9.16,3.13-11.94,7.37c-0.83,1.26-1.86,0.7-2.35,0.43
					l-0.23-0.12c-4.96-2.5-7.02-1.86-9.6,2.97l-0.49,0.92l-0.72-0.76c-1.45-1.54-4.15-4.42-2.38-8.15c1.39-2.91,4.15-4.01,8.18-3.26
					l0.75,0.14c1.8,0.33,3.5,0.65,5.26,0.52c2.1-0.15,3.83-0.82,5.23-2.01c-3.12,0.33-6.05-0.47-9.2-1.46l-0.23-0.07
					c-2.07-0.65-4.2-1.33-6.31-1.57c-2.46-0.29-4.75,0.44-6.3,2.01c-1.41,1.44-2.03,3.39-1.74,5.5c0.34,2.44,0.32,4.11-2.94,4.99
					c-1.07,0.28-1.92,0.96-2.45,1.95c-0.69,1.3-0.77,3.05-0.22,4.67c0.81,2.31,2.29,3.36,4.5,3.19c-0.96-0.75-1.81-1.76-1.46-3.47
					c0.32-1.62,1.38-2.69,2.97-3.02c2-0.4,3.74,0.31,5.33,2.18c1.21,1.4,1.76,3.12,1.65,5.11c-0.25,4.3-2.39,7.74-6.36,10.24
					c-1.92,1.2-3.05,1.86-4.04,1.46c-0.98-0.4-1.32-1.63-1.85-3.78c-2.69-10.94-6.69-18.14-12.98-23.35
					c-9.15-7.59-18.17-9.01-27.56-4.37c-1.84,0.91-4.65,1.83-7.59,1.03c-6.3-1.7-12.82-1.49-19.13-1.3
					c-2.03,0.06-4.14,0.13-6.21,0.13c-35.52,0.02-287.3,0.02-325.96,0.01c-2.72,0-5.54,0-8.3-0.28c-4.64-0.46-8.84-0.21-12.83,0.76
					c-5.63,1.38-10.15,0.91-14.25-1.49c-0.98-0.58-2.26-0.85-3.5-1.05C74.46,6,66.95,8.42,60.28,14.5
					c-5.68,5.18-9.48,12.11-11.98,21.81c-0.65,2.49-1.16,4.16-2.41,4.6c-1.26,0.45-2.76-0.58-4.9-2.18c-2.7-2.02-4.38-4.63-5-7.75
					c-0.5-2.54-0.15-4.59,1.06-6.27c1.48-2.06,3.3-2.99,5.4-2.76c1.62,0.17,2.8,1.18,3.23,2.77c0.53,1.82-0.34,2.93-1.38,3.77
					c2.39,0.12,3.9-1.02,4.59-3.5c0.45-1.6,0.32-3.13-0.35-4.32c-0.62-1.1-1.69-1.88-3.08-2.25c-2.12-0.57-3.02-1.29-2.37-3.88
					c0.79-3.12-0.69-6.28-3.61-7.68c-1.82-0.88-3.78-0.97-6.56-0.29c-1.16,0.28-2.29,0.63-3.48,1c-3.2,1-6.48,2.03-10.3,1.48
					c3.47,2.61,7.06,2.57,11.22,1.64c3.98-0.91,6.78,0.08,8.33,2.94c1.91,3.53-0.18,6.22-2.28,8.47l-0.74,0.79l-0.48-0.97
					c-1.25-2.51-2.58-3.94-4.08-4.38c-1.4-0.41-3.08-0.01-5.16,1.23c-1.93,1.15-2.7,0.08-3.2-0.63c-0.08-0.11-0.15-0.22-0.24-0.33
					c-2.88-3.68-7.01-5.09-11.39-6.58c-1.07-0.37-2.16-0.74-3.27-1.15c0.42,1.11,0.79,2.21,1.16,3.29
					c1.68,4.92,3.13,9.17,7.37,11.94c1.27,0.84,0.7,1.89,0.42,2.39l-0.11,0.21c-2.49,4.95-1.85,7.01,2.98,9.59l0.92,0.49l-0.76,0.72
					c-2.3,2.16-4.88,3.94-8.16,2.37c-2.91-1.38-4-4.14-3.25-8.18l0.14-0.75c0.33-1.8,0.65-3.5,0.52-5.25
					c-0.15-2.1-0.82-3.84-2.02-5.25c0.32,3.16-0.49,6.17-1.45,9.21l-0.07,0.23c-0.65,2.06-1.32,4.2-1.57,6.32
					c-0.29,2.45,0.44,4.74,2.01,6.28c1.44,1.42,3.4,2.04,5.51,1.75c2.45-0.34,4.11-0.32,4.98,2.94c0.28,1.07,0.96,1.92,1.95,2.45
					c1.3,0.69,3.05,0.77,4.68,0.21c2.31-0.8,3.36-2.28,3.18-4.5c-0.75,0.96-1.75,1.81-3.46,1.46c-1.62-0.32-2.7-1.38-3.01-2.98
					c-0.4-1.97,0.33-3.76,2.17-5.33c1.4-1.21,3.12-1.76,5.12-1.65c4.29,0.26,7.74,2.4,10.23,6.37c1.2,1.91,1.86,3.04,1.46,4.04
					c-0.4,0.98-1.63,1.33-3.78,1.85c-10.94,2.69-18.15,6.69-23.35,12.97c-7.58,9.16-9.01,18.18-4.37,27.57
					c1.3,2.64,1.66,5.26,1.03,7.58c-1.69,6.31-1.49,12.83-1.29,19.15c0.06,2.03,0.13,4.13,0.13,6.2
					c0.02,34.76,0.02,69.51,0.03,104.27c0.01,34.76,0.01,69.51,0.03,104.27v4.85c-0.02,36.17-0.02,88.07-0.03,139.65
					c0,51.79-0.01,103.25-0.03,138.09c0,2.07-0.07,4.17-0.13,6.2c-0.2,6.31-0.4,12.84,1.29,19.15c0.79,2.93-0.12,5.75-1.03,7.59
					c-4.65,9.39-3.22,18.41,4.36,27.56c5.21,6.29,12.41,10.29,23.35,12.98c2.21,0.54,3.38,0.87,3.78,1.85
					c0.4,0.99-0.26,2.12-1.46,4.03c-2.51,3.97-5.95,6.11-10.23,6.36c-1.99,0.11-3.72-0.44-5.12-1.65c-1.83-1.56-2.56-3.35-2.17-5.33
					c0.32-1.58,1.39-2.64,3.01-2.98c1.71-0.34,2.71,0.51,3.47,1.46c0.18-2.22-0.87-3.7-3.18-4.49c-1.64-0.57-3.39-0.49-4.68,0.21
					c-0.99,0.53-1.67,1.38-1.95,2.45c-0.86,3.25-2.53,3.28-4.97,2.95c-2.12-0.29-4.07,0.33-5.51,1.74
					c-1.57,1.54-2.31,3.83-2.01,6.28c0.24,2.12,0.92,4.26,1.57,6.32l0.07,0.23c0.96,3.04,1.77,6.05,1.45,9.21
					c1.2-1.4,1.87-3.14,2.02-5.24c0.12-1.76-0.19-3.46-0.52-5.26l-0.14-0.75c-0.76-4.09,0.31-6.77,3.26-8.17
					c3.28-1.57,5.86,0.21,8.16,2.37l0.76,0.72l-0.92,0.49c-4.83,2.57-5.46,4.63-2.97,9.6l0.11,0.19c0.28,0.5,0.86,1.55-0.42,2.39
					c-4.24,2.78-5.69,7.03-7.37,11.94c-0.37,1.07-0.74,2.17-1.16,3.28c1.1-0.41,2.2-0.79,3.27-1.15c4.38-1.49,8.51-2.9,11.39-6.58
					c0.09-0.11,0.17-0.23,0.25-0.33c0.51-0.7,1.27-1.77,3.2-0.62c2.07,1.23,3.76,1.63,5.16,1.22c1.5-0.44,2.84-1.87,4.08-4.37
					l0.48-0.96l0.74,0.78c1.52,1.62,4.36,4.63,2.28,8.46c-1.53,2.85-4.33,3.84-8.32,2.94c-4.16-0.95-7.74-0.99-11.22,1.63
					C19.87,729.48,20.59,729.43,21.28,729.43z M544.53,720.71L544.53,720.71L544.53,720.71z M15.69,711.98L15.69,711.98
					L15.69,711.98z M15.69,26.65L15.69,26.65L15.69,26.65z M76.05,729.77c-3.78,0-7.45-1.2-10.95-3.61
					c-9.44-6.49-14.4-15.68-14.75-27.31c-0.04-1.42,0.02-2.84,0.07-4.22c0.06-1.42,0.11-2.89,0.06-4.32
					c-0.11-3.25-1.12-4.27-4.32-4.39c-1.43-0.05-2.91,0-4.34,0.06c-1.27,0.05-2.58,0.1-3.87,0.07c-11.58-0.2-20.83-5.05-27.49-14.42
					c-3.78-5.32-4.75-11.12-2.88-17.23c0.7-2.32,1.83-4.04,3.47-5.25c1.65-1.22,3.33-1.27,4.85-0.15c1.31,0.94,1.8,2.25,1.39,3.67
					c-0.56,1.89-2.02,2.79-4.11,2.55c-0.15-0.02-0.3-0.03-0.45-0.04c0.04,0.1,0.09,0.18,0.15,0.26c0.19,0.23,0.45,0.34,0.63,0.34
					c1.46,0.06,2.45,0.43,3.04,1.13c0.89,1.06,0.68,2.58,0.46,4.2c-0.45,3.35,0.83,6.35,3.81,8.92c1.4,1.2,2.83,2.35,4.35,3.57
					c0.38,0.31,0.77,0.62,1.16,0.93c-0.12-1.94-0.95-3.65-2.47-5.11c-3.67-3.5-4.81-7.87-3.59-13.74c1.53-7.24,0.46-8.92-6.75-10.58
					c-0.49-0.11-1.17-0.33-1.49-0.91c-0.32-0.58-0.1-1.18,0.08-1.66l0.08-0.21c1.32-3.85,0.87-7.81-1.33-11.78
					c-2.38-4.29-3.48-9.12-3.46-15.22c0.1-71.25,0.08-209.8,0.02-278.33v-4.6c0.07-84.36,0.07-148.86-0.02-209.12
					c-0.01-6.09,1.09-10.92,3.46-15.21c2.2-3.96,2.65-7.92,1.33-11.77l-0.07-0.21c-0.18-0.49-0.4-1.09-0.08-1.67
					c0.32-0.58,1-0.8,1.48-0.91c7.22-1.66,8.29-3.34,6.75-10.57c-1.23-5.87-0.09-10.24,3.59-13.74c1.53-1.45,2.35-3.17,2.47-5.11
					c-0.36,0.29-0.71,0.57-1.06,0.85c-1.55,1.25-3.01,2.42-4.45,3.66c-2.98,2.56-4.26,5.56-3.81,8.91c0.22,1.62,0.43,3.15-0.46,4.21
					c-0.59,0.7-1.58,1.07-3.03,1.12c-0.18,0.01-0.45,0.12-0.64,0.35c-0.06,0.08-0.11,0.16-0.15,0.26c0.15-0.01,0.3-0.02,0.45-0.04
					c2.09-0.24,3.55,0.65,4.11,2.53c0.41,1.43-0.08,2.74-1.39,3.68c-1.52,1.11-3.19,1.06-4.84-0.14c-1.64-1.21-2.77-2.93-3.47-5.26
					c-1.87-6.12-0.9-11.92,2.88-17.24c6.66-9.37,15.91-14.22,27.49-14.42c1.25-0.02,2.53,0.03,3.76,0.08
					c1.47,0.05,2.99,0.11,4.46,0.05c3.2-0.12,4.21-1.14,4.32-4.38c0.05-1.43-0.01-2.91-0.06-4.33c-0.05-1.38-0.11-2.81-0.07-4.22
					c0.35-11.64,5.31-20.82,14.74-27.3c5.52-3.79,11.44-4.6,17.62-2.41c2.55,0.89,4.24,2.29,5.14,4.26c0.67,1.43,0.4,2.96-0.74,4.18
					c-1,1.05-2.23,1.41-3.46,1c-1.57-0.52-2.44-1.7-2.51-3.39c-0.01-0.3,0.04-0.57,0.09-0.82c0.02-0.11,0.04-0.19,0.05-0.27
					c-0.68,0.43-1.03,1.11-1.07,2.06c-0.03,0.72-0.15,1.61-0.8,2.12c-0.68,0.53-1.62,0.39-2.59,0.19c-4.2-0.88-7.8,0.44-10.69,3.93
					c-1.21,1.45-2.39,2.92-3.65,4.48l-0.62,0.77c1.98-0.19,3.51-0.89,4.65-2.11c3.96-4.19,8.91-5.35,15.57-3.64
					c4.26,1.08,7.32-0.24,8.63-3.71c0.34-0.89,0.49-1.86,0.67-2.98c0.09-0.54,0.18-1.1,0.29-1.69l0.18-0.94l0.87,0.4
					c5.28,2.44,10.04,0.98,15.57-1.98c2.94-1.58,6.19-2.29,10.52-2.29c37.35,0.03,115.35,0,115.35,0c7.26,0,177.73,0.03,213.72-0.02
					c0.03,0,0.06,0,0.1,0c6.05,0,10.85,1.1,15.12,3.46c3.98,2.19,7.94,2.64,11.78,1.33l0.22-0.08c0.48-0.17,1.08-0.39,1.65-0.08
					c0.58,0.31,0.8,1,0.91,1.49c1.66,7.21,3.33,8.29,10.57,6.75c5.86-1.24,10.23-0.1,13.74,3.59c1.46,1.53,3.17,2.35,5.11,2.47
					c-0.35-0.43-0.69-0.85-1.03-1.27c-1.18-1.47-2.3-2.86-3.48-4.23c-2.56-2.99-5.56-4.27-8.92-3.81c-1.61,0.22-3.14,0.43-4.2-0.46
					c-0.71-0.59-1.08-1.58-1.13-3.03c-0.01-0.19-0.11-0.46-0.34-0.64c-0.08-0.06-0.17-0.12-0.26-0.15c0.01,0.15,0.02,0.3,0.04,0.45
					c0.23,2.08-0.67,3.54-2.54,4.1c-1.42,0.41-2.73-0.08-3.68-1.39c-1.11-1.5-1.05-3.22,0.16-4.84c1.2-1.64,2.92-2.78,5.25-3.48
					c6.11-1.87,11.91-0.9,17.23,2.88c9.37,6.66,14.22,15.91,14.42,27.49c0.02,1.26-0.03,2.52-0.08,3.75
					c-0.06,1.47-0.11,2.99-0.05,4.46c0.12,3.21,1.14,4.21,4.38,4.32c1.44,0.05,2.91-0.01,4.33-0.06c1.38-0.05,2.81-0.11,4.22-0.07
					c11.63,0.35,20.82,5.31,27.3,14.75c3.8,5.52,4.61,11.45,2.42,17.62c-0.91,2.56-2.31,4.24-4.27,5.14
					c-1.45,0.66-2.97,0.39-4.18-0.74c-1.05-0.99-1.4-2.22-0.99-3.46c0.51-1.58,1.69-2.45,3.38-2.51c0.29-0.01,0.57,0.04,0.82,0.09
					c0.1,0.02,0.19,0.04,0.26,0.05c-0.43-0.69-1.11-1.04-2.04-1.07c-0.73-0.03-1.62-0.15-2.13-0.8c-0.53-0.69-0.4-1.62-0.19-2.59
					c0.88-4.21-0.44-7.81-3.93-10.69c-1.43-1.19-2.88-2.36-4.41-3.59l-0.84-0.68c0.19,1.98,0.88,3.51,2.11,4.66
					c4.19,3.95,5.35,8.89,3.65,15.56c-1.09,4.26,0.22,7.33,3.7,8.64c0.86,0.33,1.81,0.48,2.9,0.65c0.57,0.09,1.16,0.19,1.78,0.31
					l0.93,0.19l-0.4,0.86c-2.44,5.29-0.97,10.05,1.98,15.57c1.56,2.89,2.29,6.24,2.29,10.52c-0.05,71.92-0.05,424.6,0,496.54
					c0,4.34-0.71,7.58-2.29,10.53c-2.56,4.77-4.56,9.96-1.98,15.56l0.4,0.86l-0.93,0.19c-0.61,0.12-1.19,0.22-1.75,0.31
					c-1.11,0.18-2.06,0.34-2.93,0.67c-3.48,1.3-4.79,4.37-3.7,8.63c1.7,6.68,0.54,11.62-3.65,15.56c-1.22,1.15-1.92,2.68-2.11,4.65
					c0.34-0.27,0.68-0.55,1.01-0.81c1.46-1.18,2.86-2.3,4.23-3.44c3.49-2.89,4.81-6.49,3.93-10.7c-0.2-0.98-0.34-1.91,0.19-2.59
					c0.51-0.65,1.41-0.77,2.13-0.79c0.94-0.04,1.61-0.4,2.04-1.08c-0.08,0.01-0.17,0.03-0.28,0.05c-0.24,0.05-0.5,0.1-0.8,0.09
					c-1.71-0.08-2.88-0.95-3.39-2.52c-0.41-1.25-0.06-2.48,0.99-3.46c1.22-1.14,2.74-1.41,4.18-0.74c1.96,0.89,3.36,2.57,4.27,5.14
					c2.19,6.17,1.38,12.09-2.42,17.61c-6.47,9.43-15.66,14.39-27.3,14.74c-1.43,0.04-2.88-0.01-4.28-0.07
					c-1.41-0.05-2.86-0.11-4.27-0.06l0,0c-3.24,0.12-4.26,1.13-4.38,4.33c-0.06,1.48,0,3,0.05,4.46c0.05,1.22,0.09,2.49,0.08,3.74
					c-0.19,11.58-5.04,20.83-14.42,27.5c-5.32,3.77-11.11,4.73-17.23,2.88c-2.33-0.71-4.05-1.85-5.25-3.48
					c-1.21-1.62-1.26-3.34-0.15-4.84c0.95-1.32,2.26-1.81,3.68-1.38c1.87,0.55,2.77,2.01,2.54,4.1c-0.02,0.15-0.03,0.3-0.04,0.45
					c0.09-0.04,0.18-0.09,0.26-0.15c0.23-0.19,0.34-0.46,0.35-0.63c0.06-1.46,0.43-2.45,1.13-3.04c1.05-0.89,2.58-0.68,4.2-0.46
					c3.37,0.45,6.36-0.83,8.92-3.81c1.22-1.42,2.39-2.88,3.63-4.42c0.29-0.36,0.58-0.72,0.87-1.08c-1.95,0.12-3.66,0.94-5.11,2.46
					c-3.52,3.69-7.89,4.83-13.74,3.59c-7.24-1.53-8.92-0.46-10.57,6.75c-0.11,0.49-0.33,1.18-0.91,1.49
					c-0.58,0.32-1.18,0.1-1.66-0.08l-0.21-0.08c-3.85-1.32-7.81-0.87-11.78,1.33c-4.27,2.36-9.08,3.45-15.11,3.45
					c-0.03,0-0.07,0-0.1,0c-38.58-0.05-77.18-0.06-109.85-0.06h-2.51c-0.21,0.03-0.44,0.05-0.69,0.05H234.17
					c-0.19,0-0.4-0.02-0.63-0.05h-2.65c-37.35,0-74.71,0.01-112.07,0.04c-4.27,0-7.62-0.72-10.52-2.28
					c-5.52-2.96-10.29-4.44-15.57-1.99l-0.87,0.4l-0.19-0.94c-0.12-0.59-0.21-1.15-0.29-1.69c-0.18-1.12-0.34-2.09-0.67-2.98
					c-1.31-3.47-4.37-4.79-8.63-3.71c-6.67,1.71-11.62,0.55-15.57-3.64c-1.15-1.22-2.68-1.92-4.65-2.11l0.77,0.95
					c1.2,1.49,2.34,2.91,3.5,4.3c2.89,3.48,6.49,4.8,10.69,3.92c0.97-0.2,1.91-0.34,2.59,0.19c0.65,0.51,0.77,1.41,0.8,2.13
					c0.04,0.94,0.39,1.62,1.07,2.05c-0.01-0.07-0.03-0.16-0.05-0.26c-0.05-0.25-0.1-0.53-0.09-0.83c0.07-1.7,0.94-2.87,2.52-3.38
					c1.24-0.41,2.47-0.06,3.46,0.99c1.14,1.22,1.41,2.75,0.75,4.19c-0.91,1.97-2.59,3.36-5.14,4.25
					C80.46,729.37,78.23,729.77,76.05,729.77z M44.94,684.41c0.43,0,0.85,0.01,1.28,0.02c3.96,0.14,5.63,1.83,5.76,5.83
					c0.05,1.48-0.01,2.98-0.06,4.43c-0.05,1.36-0.11,2.76-0.07,4.12c0.33,11.12,5.08,19.91,14.1,26.11
					c5.11,3.5,10.58,4.25,16.26,2.22c2.16-0.75,3.55-1.89,4.28-3.47c0.42-0.9,0.26-1.75-0.48-2.53c-0.59-0.62-1.21-0.82-1.9-0.59
					c-0.98,0.32-1.44,0.94-1.49,2.02c-0.01,0.12,0.03,0.29,0.06,0.47c0.1,0.52,0.27,1.38-0.47,2.11l-0.33,0.32l-0.44-0.15
					c-1.7-0.57-2.68-1.89-2.76-3.72c-0.04-0.82-0.19-0.99-0.23-1.01c-0.13-0.1-0.59-0.07-1.36,0.09c-4.72,0.99-8.92-0.55-12.15-4.43
					c-1.16-1.41-2.31-2.83-3.51-4.32l-2.75-3.4l1.52-0.04c3.2-0.08,5.62,0.77,7.38,2.63c3.58,3.8,7.94,4.79,14.11,3.22
					c4.95-1.26,8.84,0.47,10.41,4.63c0.39,1.03,0.56,2.12,0.75,3.27c0.04,0.24,0.08,0.48,0.12,0.73c5.84-2.28,11.15-0.21,16.02,2.41
					c2.72,1.45,5.75,2.1,9.82,2.1c37.36-0.03,74.72-0.04,112.07-0.04l2.81,0.01c0.17,0.02,0.33,0.04,0.47,0.04l48.04-0.03
					l52.63,0.03c0.15,0,0.32-0.01,0.5-0.04l0.13-0.01h2.57c32.67,0,71.26,0.01,109.85,0.06c0.03,0,0.07,0,0.1,0
					c5.85,0,10.29-1.01,14.38-3.27c4.35-2.41,8.73-2.89,13-1.43l0.24,0.08c0.13,0.05,0.33,0.12,0.43,0.14
					c0.04-0.06,0.1-0.2,0.16-0.48c1.85-8.05,4.27-9.6,12.35-7.88c5.29,1.13,9.21,0.12,12.34-3.15c2.14-2.25,4.78-3.21,7.82-2.88
					l1.37,0.15l-0.87,1.07c-0.62,0.76-1.23,1.51-1.82,2.25c-1.25,1.55-2.42,3.01-3.66,4.45c-2.87,3.35-6.42,4.84-10.26,4.32
					c-1.34-0.18-2.49-0.34-3.03,0.12c-0.36,0.3-0.56,0.95-0.6,1.94c-0.02,0.65-0.35,1.3-0.9,1.75c-0.58,0.47-1.33,0.66-2.13,0.51
					l-0.66-0.12l0.07-1.1c0.02-0.32,0.03-0.62,0.07-0.93c0.15-1.38-0.3-2.15-1.48-2.49c-0.8-0.24-1.46,0.03-2.04,0.83
					c-0.73,0.99-0.68,1.96,0.14,3.06c1.01,1.37,2.48,2.33,4.49,2.94c5.65,1.72,11.01,0.82,15.93-2.67
					c8.96-6.38,13.6-15.22,13.78-26.3c0.02-1.21-0.03-2.46-0.08-3.66c-0.06-1.49-0.12-3.04-0.05-4.58c0.14-3.95,1.83-5.63,5.82-5.77
					h0c1.47-0.05,2.95,0.01,4.39,0.06c1.37,0.05,2.8,0.11,4.18,0.07c11.14-0.33,19.92-5.08,26.11-14.09
					c3.51-5.1,4.26-10.57,2.24-16.25c-0.77-2.16-1.91-3.56-3.48-4.28c-0.9-0.42-1.75-0.26-2.53,0.47c-0.63,0.59-0.82,1.21-0.59,1.9
					c0.32,0.98,0.95,1.44,2.02,1.49c0.09,0,0.27-0.03,0.45-0.07c0.52-0.1,1.39-0.28,2.13,0.46l0.33,0.33l-0.15,0.44
					c-0.57,1.71-1.89,2.69-3.72,2.77c-0.82,0.03-0.99,0.19-1.01,0.22c-0.1,0.13-0.07,0.58,0.09,1.36c0.99,4.73-0.55,8.93-4.45,12.16
					c-1.38,1.15-2.78,2.27-4.25,3.46c-0.74,0.59-1.5,1.2-2.28,1.84l-1.18,0.96l-0.04-1.52c-0.09-3.22,0.77-5.63,2.63-7.38
					c3.8-3.57,4.8-7.92,3.23-14.1c-1.27-4.96,0.46-8.85,4.62-10.41c1.01-0.38,2.08-0.56,3.21-0.74c0.25-0.04,0.52-0.08,0.78-0.13
					c-2.28-5.85-0.21-11.15,2.39-16.02c1.46-2.71,2.11-5.74,2.11-9.82c-0.05-71.94-0.05-424.62,0-496.54c0-4.08-0.65-7.11-2.11-9.81
					c-2.61-4.88-4.67-10.18-2.4-16.03c-0.28-0.05-0.54-0.09-0.81-0.13c-1.13-0.18-2.19-0.35-3.19-0.73
					c-4.16-1.57-5.89-5.46-4.62-10.42c1.57-6.17,0.57-10.52-3.23-14.1c-1.86-1.75-2.72-4.16-2.62-7.38l0.04-1.52l3.29,2.66
					c1.53,1.23,2.99,2.41,4.42,3.61c3.89,3.21,5.43,7.42,4.44,12.15c-0.16,0.77-0.19,1.23-0.09,1.36c0.02,0.03,0.19,0.19,1.01,0.23
					c1.83,0.07,3.15,1.05,3.72,2.77l0.15,0.44l-0.33,0.33c-0.73,0.73-1.6,0.56-2.11,0.45c-0.18-0.04-0.35-0.06-0.46-0.06
					c-1.08,0.04-1.7,0.5-2.02,1.48c-0.23,0.69-0.03,1.31,0.59,1.9c0.77,0.73,1.62,0.89,2.52,0.47c1.58-0.72,2.72-2.12,3.49-4.28
					c2.02-5.69,1.27-11.16-2.24-16.26c-6.19-9.02-14.98-13.76-26.1-14.1c-1.37-0.04-2.77,0.02-4.12,0.07
					c-1.45,0.06-2.95,0.11-4.44,0.06c-3.99-0.13-5.68-1.8-5.82-5.76c-0.06-1.53,0-3.08,0.05-4.58c0.05-1.21,0.09-2.45,0.08-3.67
					c-0.19-11.08-4.82-19.92-13.78-26.29c-4.92-3.5-10.28-4.39-15.93-2.66c-2.01,0.6-3.48,1.56-4.49,2.94
					c-0.83,1.11-0.88,2.08-0.15,3.06c0.58,0.8,1.25,1.07,2.05,0.84c1.17-0.35,1.63-1.12,1.47-2.5c-0.04-0.31-0.05-0.61-0.07-0.92
					l-0.07-1.1l0.66-0.12c0.81-0.14,1.56,0.04,2.14,0.51c0.54,0.44,0.88,1.1,0.89,1.76c0.04,0.98,0.24,1.63,0.6,1.93
					c0.55,0.46,1.7,0.3,3.03,0.12c3.85-0.52,7.39,0.97,10.26,4.32c1.19,1.38,2.31,2.78,3.51,4.26c0.64,0.8,1.3,1.61,1.97,2.44
					l0.87,1.06l-1.37,0.16c-3.03,0.35-5.67-0.62-7.82-2.88c-3.12-3.27-7.04-4.27-12.34-3.15c-8.08,1.71-10.5,0.16-12.35-7.89
					c-0.06-0.27-0.12-0.41-0.16-0.48c-0.11,0.02-0.29,0.09-0.43,0.14l-0.25,0.09c-4.26,1.46-8.63,0.98-13-1.43
					c-4.09-2.27-8.53-3.28-14.39-3.28c-0.03,0-0.07,0-0.1,0c-36,0.05-206.47,0.02-213.71,0.02c-0.02,0-78.02,0.03-115.37,0
					c-4.07,0-7.1,0.65-9.81,2.11c-4.88,2.61-10.19,4.68-16.02,2.4c-0.04,0.24-0.08,0.48-0.12,0.72c-0.19,1.16-0.36,2.25-0.75,3.28
					c-1.57,4.16-5.46,5.89-10.41,4.63c-6.17-1.58-10.52-0.58-14.11,3.22c-1.75,1.86-4.17,2.72-7.38,2.62l-1.52-0.04l2.6-3.21
					c1.26-1.56,2.45-3.04,3.66-4.49c3.23-3.9,7.43-5.43,12.15-4.44c0.78,0.16,1.24,0.19,1.36,0.1c0.03-0.02,0.19-0.19,0.22-1
					c0.08-1.84,1.06-3.16,2.76-3.73l0.44-0.15l0.33,0.33c0.74,0.74,0.57,1.6,0.46,2.12c-0.04,0.18-0.07,0.34-0.06,0.46
					c0.05,1.08,0.51,1.7,1.49,2.03c0.68,0.23,1.3,0.03,1.9-0.6c0.73-0.78,0.89-1.63,0.47-2.52c-0.73-1.59-2.13-2.73-4.28-3.48
					c-5.7-2.03-11.17-1.27-16.27,2.23c-9.02,6.19-13.76,14.98-14.1,26.1c-0.04,1.36,0.02,2.77,0.07,4.12
					c0.06,1.45,0.11,2.95,0.06,4.44c-0.13,3.99-1.8,5.68-5.76,5.82c-1.53,0.06-3.07,0-4.57-0.05c-1.21-0.05-2.46-0.09-3.68-0.08
					c-11.07,0.19-19.92,4.82-26.29,13.78c-3.5,4.92-4.39,10.28-2.66,15.94c0.61,2.01,1.56,3.48,2.93,4.49
					c1.11,0.81,2.09,0.86,3.07,0.14c1.06-0.76,0.98-1.53,0.83-2.05c-0.35-1.17-1.12-1.63-2.49-1.46c-0.26,0.03-0.52,0.04-0.78,0.06
					c-0.18,0.01-0.37,0.02-0.56,0.04l-0.69,0.06l-0.12-0.68c-0.14-0.8,0.04-1.55,0.5-2.13c0.44-0.55,1.1-0.89,1.76-0.91
					c0.99-0.04,1.64-0.23,1.94-0.59c0.46-0.54,0.3-1.7,0.12-3.04c-0.52-3.84,0.98-7.38,4.31-10.25c1.45-1.25,2.92-2.44,4.49-3.69
					c0.73-0.59,1.48-1.18,2.23-1.8l1.07-0.87l0.15,1.37c0.34,3.04-0.63,5.67-2.89,7.82c-3.26,3.11-4.26,7.03-3.15,12.34
					c1.71,8.07,0.16,10.5-7.89,12.34c-0.42,0.1-0.52,0.19-0.52,0.19c0.03,0,0.13,0.25,0.19,0.42l0.08,0.23
					c1.47,4.27,0.98,8.64-1.43,12.99c-2.28,4.11-3.29,8.58-3.28,14.48c0.09,60.26,0.09,124.76,0.02,209.12v4.6
					c0.06,68.53,0.08,207.07-0.02,278.33c-0.01,5.91,1,10.37,3.28,14.49c2.41,4.35,2.9,8.73,1.43,13l-0.09,0.24
					c-0.05,0.13-0.12,0.33-0.14,0.44c0.06,0.04,0.2,0.1,0.48,0.16c8.05,1.85,9.6,4.27,7.88,12.35c-1.11,5.31-0.11,9.23,3.15,12.34
					c2.25,2.15,3.23,4.78,2.89,7.82l-0.15,1.37l-1.07-0.87c-0.79-0.64-1.56-1.26-2.33-1.88c-1.53-1.23-2.97-2.38-4.39-3.6
					c-3.34-2.88-4.83-6.43-4.31-10.26c0.18-1.34,0.34-2.49-0.12-3.04c-0.3-0.36-0.95-0.56-1.94-0.6c-0.65-0.02-1.3-0.35-1.75-0.89
					c-0.47-0.58-0.65-1.34-0.51-2.14l0.12-0.66l1.1,0.07c0.32,0.02,0.63,0.03,0.93,0.07c1.37,0.16,2.14-0.29,2.49-1.48
					c0.23-0.8-0.04-1.47-0.83-2.04c-0.99-0.72-1.96-0.68-3.08,0.14c-1.37,1.01-2.33,2.48-2.93,4.48
					c-1.73,5.65-0.83,11.01,2.66,15.93c6.37,8.96,15.21,13.6,26.29,13.79c1.25,0.02,2.54-0.03,3.79-0.07
					C42.81,684.45,43.87,684.41,44.94,684.41z M27.13,717.67c-0.53,0-0.97-0.12-1.31-0.27c-1.12-0.48-1.96-1.6-2.38-3.14
					c-0.22-0.79-0.56-0.93-1.31-1.21c-0.16-0.06-0.33-0.13-0.51-0.2c-1.62-0.7-2.68-2.04-2.83-3.58c-0.14-1.37,0.47-2.63,1.65-3.46
					c1.96-1.35,3.54-0.36,4.83,0.54c0.02-0.54-0.13-1.02-0.36-1.55c-0.39-0.91-0.21-1.47,0.01-1.77c0.21-0.29,0.63-0.61,1.48-0.54
					c1.65,0.16,3.28-0.25,5.01-0.67c1.09-0.27,2.22-0.55,3.45-0.72l1.43-0.2l-0.66,1.28c-1.47,2.85-1.63,5.58-1.81,8.46l-0.07,1.19
					l-0.78-0.08c-0.6-0.06-1.14-0.23-1.62-0.37c-0.55-0.17-0.96-0.31-1.34-0.28c1.05,1.29,1.46,2.49,1.25,3.59
					c-0.19,0.98-0.87,1.78-2.01,2.4C28.43,717.52,27.72,717.67,27.13,717.67z M22.4,706.65c-0.35,0-0.7,0.12-1.1,0.4
					c-0.73,0.51-1.1,1.26-1.02,2.07c0.1,0.99,0.82,1.87,1.94,2.35c0.15,0.07,0.3,0.12,0.45,0.18c0.84,0.32,1.8,0.69,2.22,2.22
					c0.3,1.09,0.84,1.86,1.53,2.16c0.6,0.26,1.31,0.17,2.12-0.26c0.73-0.39,1.15-0.85,1.25-1.36c0.16-0.82-0.46-1.78-1.01-2.44
					c-0.21-0.24-0.32-0.52-0.41-0.75c-0.03-0.08-0.06-0.16-0.1-0.24l-0.32-0.64l0.62-0.35c1.18-0.67,2.27-0.34,3.22-0.05
					c0.19,0.06,0.38,0.11,0.57,0.17c0.15-2.36,0.35-4.79,1.34-7.29c-0.66,0.14-1.3,0.3-1.92,0.45c-1.85,0.46-3.61,0.89-5.51,0.71
					c-0.02,0-0.04,0-0.06,0c0.02,0.06,0.04,0.13,0.08,0.22c0.41,0.93,0.75,2.09,0.19,3.65l-0.32,0.88l-0.79-0.51
					c-0.27-0.17-0.53-0.35-0.78-0.53C23.66,707.06,23.03,706.65,22.4,706.65z M541.45,717.64c-1.22,0-2.35-0.61-3.09-1.67
					c-1.35-1.95-0.36-3.54,0.54-4.83c-0.54-0.02-1.02,0.13-1.55,0.37c-0.9,0.4-1.46,0.21-1.77-0.01c-0.29-0.21-0.62-0.63-0.54-1.48
					c0.16-1.64-0.25-3.28-0.67-5c-0.27-1.1-0.55-2.23-0.72-3.47l-0.2-1.43l1.28,0.66c2.87,1.47,5.61,1.65,8.52,1.83l1.14,0.07
					l-0.08,0.78c-0.06,0.6-0.22,1.14-0.37,1.62c-0.17,0.55-0.28,0.97-0.28,1.35c1.29-1.04,2.5-1.46,3.59-1.25
					c0.97,0.19,1.78,0.86,2.39,2c0.82,1.54,0.63,2.72,0.31,3.43c-0.49,1.12-1.6,1.96-3.14,2.37l0,0c-0.8,0.22-0.93,0.56-1.22,1.32
					c-0.06,0.16-0.13,0.33-0.2,0.51c-0.7,1.62-2.04,2.68-3.59,2.84C541.69,717.63,541.57,717.64,541.45,717.64z M538.82,709.63
					c0.48,0,1.01,0.08,1.59,0.29l0.89,0.32l-0.51,0.79c-0.17,0.26-0.35,0.52-0.52,0.77c-1,1.43-1.45,2.17-0.67,3.31
					c0.5,0.73,1.25,1.09,2.07,1.02c1-0.1,1.88-0.82,2.36-1.94c0.07-0.15,0.12-0.3,0.18-0.45c0.32-0.85,0.69-1.81,2.22-2.23l0,0
					c1.09-0.29,1.85-0.83,2.15-1.52c0.26-0.6,0.17-1.32-0.26-2.13c-0.39-0.72-0.84-1.14-1.35-1.24c-0.82-0.16-1.79,0.46-2.45,1.01
					c-0.25,0.21-0.52,0.32-0.74,0.41c-0.08,0.03-0.16,0.07-0.24,0.1l-0.64,0.32l-0.35-0.63c-0.65-1.19-0.33-2.27-0.04-3.22
					c0.06-0.19,0.11-0.38,0.16-0.57c-2.36-0.15-4.79-0.36-7.29-1.35c0.14,0.66,0.3,1.31,0.45,1.94c0.46,1.85,0.89,3.61,0.71,5.5
					c0,0.02,0,0.04,0,0.06c0.06-0.02,0.13-0.04,0.22-0.08C537.34,709.86,538.01,709.63,538.82,709.63z M533.45,38.53l0.2-1.43
					c0.17-1.24,0.45-2.37,0.72-3.47c0.43-1.72,0.83-3.35,0.67-4.99v0c-0.08-0.85,0.25-1.28,0.55-1.49c0.32-0.22,0.88-0.4,1.77,0
					c0.53,0.23,1.01,0.36,1.55,0.35c-0.9-1.29-1.89-2.88-0.54-4.82c0.81-1.17,2.1-1.79,3.46-1.66c1.54,0.15,2.88,1.22,3.58,2.84
					c0.07,0.17,0.14,0.34,0.2,0.5c0.29,0.75,0.42,1.09,1.22,1.31c1.54,0.41,2.65,1.25,3.14,2.37c0.31,0.72,0.51,1.89-0.31,3.43
					c-0.61,1.14-1.42,1.82-2.39,2.01c-1.09,0.21-2.3-0.2-3.59-1.24c-0.01,0.38,0.11,0.79,0.28,1.34c0.14,0.48,0.31,1.01,0.37,1.61
					l0.08,0.77l-1.24,0.08c-2.87,0.19-5.58,0.36-8.41,1.82L533.45,38.53z M536.54,28.5c0.18,1.89-0.25,3.64-0.71,5.49
					c-0.16,0.63-0.32,1.28-0.45,1.94c2.5-1,4.93-1.2,7.29-1.35c-0.05-0.19-0.1-0.37-0.16-0.56c-0.29-0.96-0.61-2.04,0.04-3.23
					l0.35-0.63l0.64,0.32c0.08,0.04,0.15,0.07,0.23,0.1c0.22,0.1,0.5,0.21,0.75,0.42c0.66,0.55,1.61,1.16,2.44,1
					c0.51-0.1,0.97-0.52,1.36-1.24c0.43-0.81,0.52-1.53,0.26-2.13c-0.3-0.69-1.06-1.23-2.15-1.52c-1.53-0.42-1.9-1.37-2.22-2.22
					c-0.06-0.15-0.11-0.3-0.18-0.45c-0.48-1.12-1.36-1.84-2.35-1.94c-0.81-0.08-1.57,0.29-2.07,1.02c-0.78,1.13-0.34,1.87,0.66,3.29
					c0.18,0.25,0.36,0.51,0.53,0.77l0.51,0.79l-0.89,0.32c-1.55,0.56-2.72,0.22-3.66-0.19c-0.09-0.04-0.16-0.07-0.22-0.08
					C536.53,28.45,536.54,28.47,536.54,28.5L536.54,28.5z M36.3,37.73l-1.43-0.2c-1.23-0.17-2.36-0.45-3.46-0.72
					c-1.73-0.43-3.36-0.83-5-0.68h0c-0.85,0.07-1.27-0.25-1.48-0.54c-0.22-0.31-0.41-0.86-0.01-1.77c0.23-0.52,0.38-1,0.36-1.55
					c-1.29,0.89-2.87,1.89-4.82,0.55c-1.18-0.81-1.79-2.11-1.66-3.46c0.16-1.55,1.22-2.89,2.84-3.58c0.17-0.08,0.34-0.14,0.51-0.21
					c0.74-0.29,1.08-0.43,1.3-1.21c0.42-1.54,1.26-2.66,2.38-3.14c0.71-0.31,1.88-0.51,3.42,0.31c1.15,0.61,1.83,1.42,2.02,2.4
					c0.21,1.1-0.21,2.31-1.25,3.58c0.37,0.01,0.8-0.11,1.36-0.28c0.47-0.14,1.01-0.31,1.6-0.37l0.78-0.08l0.08,1.2
					c0.18,2.89,0.35,5.62,1.81,8.46L36.3,37.73z M27.15,34.6c1.57,0,3.06,0.37,4.62,0.75c0.63,0.15,1.27,0.31,1.93,0.45
					c-1-2.49-1.19-4.92-1.34-7.29c-0.19,0.05-0.37,0.11-0.55,0.16c-0.96,0.29-2.05,0.62-3.24-0.05l-0.62-0.35l0.32-0.64
					c0.04-0.08,0.07-0.16,0.1-0.24c0.09-0.22,0.2-0.5,0.41-0.75c0.55-0.66,1.17-1.61,1.01-2.43c-0.1-0.52-0.52-0.98-1.25-1.36
					c-0.81-0.43-1.52-0.51-2.12-0.26c-0.69,0.3-1.24,1.07-1.53,2.16c-0.42,1.51-1.36,1.88-2.2,2.21c-0.15,0.06-0.3,0.12-0.46,0.19
					c-1.12,0.48-1.84,1.36-1.94,2.35c-0.08,0.81,0.29,1.57,1.02,2.07c1.13,0.78,1.86,0.33,3.28-0.66c0.26-0.18,0.52-0.36,0.78-0.53
					l0.79-0.51l0.32,0.88c0.57,1.57,0.22,2.73-0.19,3.66c-0.04,0.09-0.06,0.16-0.08,0.21c0.02,0,0.04,0,0.06,0l0,0
					C26.57,34.61,26.86,34.6,27.15,34.6z"/>
			</g>
			<g>
				<path d="M34.97,701.84c-1.61,3.13-1.73,6.15-1.92,9.17c-1.56-0.16-2.75-1.13-4.12-0.36c0.14,0.28,0.22,0.61,0.42,0.84
					c1.52,1.82,1.86,3.7-0.46,4.94c-2.38,1.27-4.1-0.04-4.73-2.36c-0.38-1.39-1.25-1.48-2.24-1.91c-2.71-1.17-3.22-4.22-1.05-5.73
					c1.91-1.32,3.25,0.11,4.9,1.17c0.45-1.24,0.24-2.17-0.17-3.1c-0.32-0.74-0.24-1.35,0.74-1.26
					C29.17,703.51,31.79,702.28,34.97,701.84z"/>
				<path d="M27.13,717.67c-0.53,0-0.97-0.12-1.31-0.27c-1.12-0.48-1.96-1.6-2.38-3.14c-0.22-0.79-0.56-0.93-1.31-1.21
					c-0.16-0.06-0.33-0.13-0.51-0.2c-1.62-0.7-2.68-2.04-2.83-3.58c-0.14-1.37,0.47-2.63,1.65-3.46c1.96-1.35,3.54-0.36,4.83,0.54
					c0.02-0.54-0.13-1.02-0.36-1.55c-0.39-0.91-0.21-1.47,0.01-1.77c0.21-0.29,0.63-0.61,1.48-0.54c1.65,0.16,3.28-0.25,5.01-0.67
					c1.09-0.27,2.22-0.55,3.45-0.72l1.43-0.2l-0.66,1.28c-1.47,2.85-1.63,5.58-1.81,8.46l-0.07,1.19l-0.78-0.08
					c-0.6-0.06-1.14-0.23-1.62-0.37c-0.55-0.17-0.96-0.31-1.34-0.28c1.05,1.29,1.46,2.49,1.25,3.59c-0.19,0.98-0.87,1.78-2.01,2.4
					C28.43,717.52,27.72,717.67,27.13,717.67z M22.4,706.65c-0.35,0-0.7,0.12-1.1,0.4c-0.73,0.51-1.1,1.26-1.02,2.07
					c0.1,0.99,0.82,1.87,1.94,2.35c0.15,0.07,0.3,0.12,0.45,0.18c0.84,0.32,1.8,0.69,2.22,2.22c0.3,1.09,0.84,1.86,1.53,2.16
					c0.6,0.26,1.31,0.17,2.12-0.26c0.73-0.39,1.15-0.85,1.25-1.36c0.16-0.82-0.46-1.78-1.01-2.44c-0.21-0.24-0.32-0.52-0.41-0.75
					c-0.03-0.08-0.06-0.16-0.1-0.24l-0.32-0.64l0.62-0.35c1.18-0.67,2.27-0.34,3.22-0.05c0.19,0.06,0.38,0.11,0.57,0.17
					c0.15-2.36,0.35-4.79,1.34-7.29c-0.66,0.14-1.3,0.3-1.92,0.45c-1.85,0.46-3.6,0.89-5.51,0.71c-0.02,0-0.04,0-0.06,0
					c0.02,0.06,0.04,0.13,0.08,0.22c0.41,0.93,0.75,2.09,0.19,3.65l-0.32,0.88l-0.79-0.51c-0.27-0.17-0.53-0.35-0.78-0.53
					C23.66,707.06,23.03,706.65,22.4,706.65z"/>
			</g>
			<g>
				<path d="M33.05,27.62c0.19,3.02,0.31,6.05,1.92,9.17c-3.18-0.44-5.8-1.66-8.63-1.4c-0.98,0.09-1.06-0.52-0.74-1.26
					c0.41-0.92,0.62-1.86,0.17-3.1c-1.65,1.06-2.99,2.49-4.9,1.18c-2.17-1.5-1.66-4.57,1.05-5.73c0.99-0.44,1.86-0.53,2.24-1.91
					c0.63-2.32,2.35-3.63,4.73-2.37c2.32,1.24,1.98,3.13,0.46,4.94c-0.2,0.24-0.28,0.56-0.42,0.84
					C30.3,28.75,31.49,27.79,33.05,27.62z"/>
				<path d="M36.3,37.73l-1.43-0.2c-1.23-0.17-2.36-0.45-3.46-0.72c-1.73-0.43-3.36-0.83-5-0.68c-0.84,0.08-1.27-0.25-1.48-0.54
					c-0.22-0.31-0.41-0.86-0.01-1.77c0.23-0.52,0.38-1,0.36-1.55c-1.29,0.89-2.87,1.89-4.82,0.55c-1.18-0.81-1.79-2.1-1.66-3.46
					c0.16-1.55,1.22-2.89,2.84-3.58c0.17-0.08,0.34-0.14,0.51-0.21c0.74-0.29,1.08-0.43,1.3-1.21c0.42-1.54,1.26-2.66,2.38-3.14
					c0.71-0.31,1.89-0.51,3.42,0.31c1.15,0.61,1.83,1.42,2.02,2.4c0.21,1.1-0.21,2.31-1.25,3.58c0.37,0.01,0.8-0.11,1.36-0.28
					c0.47-0.14,1.01-0.31,1.6-0.37l0.78-0.08l0.08,1.2c0.18,2.89,0.35,5.62,1.81,8.46L36.3,37.73z M27.15,34.6
					c1.57,0,3.06,0.37,4.62,0.75c0.63,0.15,1.27,0.31,1.93,0.45c-1-2.49-1.19-4.92-1.34-7.29c-0.19,0.05-0.37,0.11-0.55,0.16
					c-0.96,0.29-2.05,0.62-3.24-0.05l-0.62-0.35l0.32-0.64c0.04-0.08,0.07-0.16,0.1-0.24c0.09-0.22,0.2-0.5,0.41-0.75
					c0.55-0.66,1.17-1.61,1.01-2.43c-0.1-0.52-0.52-0.98-1.25-1.36c-0.81-0.43-1.52-0.51-2.12-0.26c-0.69,0.3-1.24,1.07-1.53,2.16
					c-0.42,1.51-1.36,1.88-2.2,2.21c-0.15,0.06-0.3,0.12-0.46,0.19c-1.12,0.48-1.84,1.36-1.94,2.35c-0.08,0.81,0.29,1.57,1.02,2.07
					c1.13,0.78,1.86,0.33,3.28-0.66c0.26-0.18,0.52-0.36,0.78-0.53l0.79-0.51l0.32,0.88c0.57,1.57,0.22,2.73-0.19,3.66
					c-0.04,0.09-0.06,0.16-0.08,0.21c0.02,0,0.04,0,0.06,0C26.57,34.61,26.86,34.6,27.15,34.6z"/>
			</g>
			<g>
				<path d="M548.98,707.51c1.27,2.38-0.04,4.11-2.36,4.73c-1.39,0.38-1.48,1.25-1.91,2.25c-1.17,2.71-4.23,3.22-5.73,1.05
					c-1.32-1.91,0.11-3.26,1.18-4.91c-1.25-0.45-2.18-0.23-3.11,0.18c-0.73,0.32-1.35,0.24-1.26-0.74c0.27-2.83-0.96-5.45-1.4-8.64
					c3.13,1.61,6.15,1.74,9.17,1.93c-0.16,1.56-1.12,2.74-0.36,4.12c0.28-0.14,0.6-0.22,0.84-0.42
					C545.86,705.55,547.74,705.2,548.98,707.51z"/>
				<path d="M541.45,717.64c-1.22,0-2.35-0.61-3.09-1.67c-1.35-1.95-0.36-3.54,0.54-4.83c-0.54-0.02-1.02,0.13-1.55,0.37
					c-0.9,0.4-1.46,0.21-1.77-0.01c-0.29-0.21-0.62-0.63-0.54-1.48c0.16-1.64-0.25-3.28-0.67-5c-0.27-1.1-0.55-2.23-0.72-3.47
					l-0.2-1.43l1.28,0.66c2.87,1.47,5.61,1.65,8.52,1.83l1.14,0.07l-0.08,0.78c-0.06,0.6-0.22,1.14-0.37,1.62
					c-0.17,0.55-0.28,0.97-0.28,1.35c1.29-1.04,2.5-1.46,3.59-1.25c0.97,0.19,1.78,0.86,2.39,2v0c0.82,1.54,0.63,2.72,0.31,3.43
					c-0.49,1.12-1.6,1.96-3.14,2.38c-0.79,0.22-0.92,0.56-1.21,1.32c-0.06,0.16-0.13,0.33-0.2,0.51c-0.7,1.62-2.04,2.68-3.59,2.84
					C541.69,717.63,541.57,717.64,541.45,717.64z M538.82,709.63c0.48,0,1.01,0.08,1.59,0.29l0.89,0.32l-0.51,0.79
					c-0.17,0.26-0.35,0.52-0.52,0.77c-1,1.43-1.45,2.17-0.67,3.31c0.5,0.73,1.25,1.09,2.07,1.02c1-0.1,1.88-0.82,2.36-1.94
					c0.07-0.15,0.12-0.3,0.18-0.45c0.32-0.85,0.69-1.81,2.22-2.23c1.09-0.29,1.86-0.83,2.16-1.52c0.26-0.6,0.17-1.32-0.26-2.13
					c-0.39-0.72-0.84-1.14-1.35-1.24c-0.82-0.16-1.79,0.46-2.45,1.01c-0.25,0.21-0.52,0.32-0.74,0.41c-0.08,0.03-0.16,0.07-0.24,0.1
					l-0.64,0.32l-0.35-0.63c-0.65-1.19-0.33-2.27-0.04-3.22c0.06-0.19,0.11-0.38,0.16-0.57c-2.36-0.15-4.79-0.36-7.29-1.35
					c0.14,0.66,0.3,1.31,0.45,1.94c0.46,1.85,0.89,3.61,0.71,5.5c0,0.02,0,0.04,0,0.06c0.06-0.02,0.13-0.04,0.22-0.08
					C537.34,709.86,538.01,709.63,538.82,709.63z"/>
			</g>
			<g>
				<path d="M534.39,37.2c0.44-3.19,1.67-5.81,1.4-8.63c-0.09-0.98,0.53-1.07,1.26-0.74c0.93,0.4,1.86,0.62,3.11,0.17
					c-1.07-1.65-2.5-2.99-1.18-4.9c1.5-2.17,4.56-1.67,5.73,1.05c0.43,0.99,0.52,1.86,1.91,2.24c2.32,0.62,3.63,2.35,2.36,4.73
					c-1.24,2.31-3.12,1.97-4.94,0.46c-0.24-0.2-0.56-0.29-0.84-0.43c-0.76,1.38,0.2,2.57,0.36,4.12
					C540.54,35.47,537.52,35.59,534.39,37.2z"/>
				<path d="M533.45,38.53l0.2-1.43c0.17-1.24,0.45-2.37,0.72-3.47c0.43-1.72,0.83-3.35,0.67-4.99c-0.08-0.86,0.25-1.29,0.55-1.49
					c0.32-0.22,0.88-0.4,1.77,0c0.53,0.23,1.01,0.36,1.55,0.35c-0.9-1.29-1.89-2.87-0.54-4.82c0.81-1.17,2.1-1.79,3.46-1.66
					c1.54,0.15,2.88,1.22,3.58,2.84c0.07,0.17,0.14,0.34,0.2,0.5c0.29,0.75,0.42,1.09,1.22,1.31c1.54,0.41,2.65,1.25,3.14,2.37
					c0.31,0.72,0.51,1.89-0.31,3.43c-0.61,1.14-1.42,1.82-2.39,2.01c-1.09,0.21-2.3-0.2-3.59-1.24c-0.01,0.38,0.11,0.79,0.28,1.34
					c0.14,0.48,0.31,1.01,0.37,1.61l0.08,0.77l-1.24,0.08c-2.87,0.19-5.58,0.36-8.41,1.82L533.45,38.53z M536.53,28.43
					c0,0.02,0,0.04,0,0.07c0.18,1.89-0.25,3.64-0.71,5.49c-0.16,0.63-0.32,1.28-0.45,1.94c2.5-1,4.93-1.2,7.29-1.35
					c-0.05-0.18-0.1-0.37-0.16-0.56c-0.29-0.96-0.61-2.04,0.04-3.23l0.35-0.63l0.64,0.32c0.08,0.04,0.15,0.07,0.23,0.1
					c0.22,0.09,0.5,0.21,0.75,0.42c0.66,0.55,1.61,1.16,2.44,1c0.51-0.1,0.97-0.52,1.36-1.24c0.43-0.81,0.52-1.53,0.26-2.13
					c-0.3-0.69-1.07-1.23-2.15-1.52c-1.53-0.42-1.9-1.37-2.22-2.22c-0.06-0.15-0.11-0.3-0.18-0.45c-0.48-1.12-1.36-1.84-2.35-1.94
					c-0.81-0.08-1.57,0.29-2.07,1.02c-0.78,1.13-0.34,1.87,0.66,3.29c0.18,0.25,0.36,0.51,0.53,0.77l0.51,0.79l-0.89,0.32
					c-1.55,0.56-2.72,0.22-3.66-0.19C536.67,28.48,536.59,28.45,536.53,28.43z"/>
			</g>
			<g>
				<path d="M556.33,689.45c3.14-0.78,4.8-2.72,5.74-5.38c0.39-1.1,0.3-2.19-0.84-2.84c-1.3-0.74-2.35-0.11-3.09,0.92
					C556.63,684.26,556.54,686.74,556.33,689.45z"/>
				<path d="M555.5,690.43l0.12-1.61c0.19-2.56,0.38-4.98,1.91-7.11c1.12-1.56,2.6-1.97,4.07-1.14c1.32,0.75,1.75,2.11,1.18,3.74
					c-1.12,3.17-3.16,5.09-6.26,5.86L555.5,690.43z M560.14,681.66c-0.38,0-0.86,0.2-1.39,0.93c-1.19,1.66-1.41,3.59-1.59,5.82
					c2.05-0.78,3.37-2.23,4.2-4.59c0.43-1.22-0.04-1.67-0.5-1.93C560.71,681.8,560.46,681.66,560.14,681.66z"/>
			</g>
			<g>
				<path d="M520.42,723.85c-4.18,0.23-7.18,1.97-6.91,4.03c0.17,1.28,1.04,1.82,2.29,1.81c2.12-0.02,6.32-3.61,6.11-5.23
					C521.77,723.42,521.02,723.81,520.42,723.85z"/>
				<path d="M515.77,730.44c-1.7,0-2.79-0.9-3-2.46c-0.11-0.79,0.14-1.58,0.71-2.28c1.21-1.46,3.78-2.43,6.89-2.6
					c0.09-0.01,0.19-0.02,0.28-0.04c0.4-0.07,0.94-0.16,1.42,0.19c0.32,0.23,0.51,0.61,0.58,1.12c0.1,0.74-0.31,1.64-1.21,2.68
					c-1.45,1.66-3.95,3.39-5.64,3.4C515.79,730.44,515.78,730.44,515.77,730.44z M521.16,724.5c-0.08,0.01-0.17,0.02-0.25,0.04
					c-0.15,0.03-0.3,0.05-0.44,0.06l-0.01,0c-2.66,0.15-4.89,0.94-5.82,2.06c-0.31,0.37-0.43,0.74-0.38,1.12
					c0.08,0.57,0.32,1.16,1.51,1.16c0.01,0,0.02,0,0.03,0c1.06-0.01,3.21-1.38,4.52-2.88c0.72-0.83,0.87-1.34,0.85-1.49
					C521.16,724.54,521.16,724.52,521.16,724.5z"/>
			</g>
		</g>
	</g>
</g>
</svg>
