<?xml version="1.0" encoding="UTF-8"?>
<svg id="whole" xmlns="http://www.w3.org/2000/svg" viewBox="0 0 564.15 729.41">
  <defs>
    <style>
      .cls-1 {
        fill: #1c3818;
      }

      .cls-1, .cls-2 {
        stroke-width: 0px;
      }

      .cls-2 {
        fill: #84ad5f;
      }
    </style>
  </defs>
  <path id="inside" class="cls-1" d="m558.01,649.33c2.14,6.02,1.24,11.76-2.32,16.94-6.4,9.33-15.41,14.08-26.7,14.42-2.84.08-5.71-.23-8.56-.13-3.62.13-4.97,1.47-5.1,5.05-.11,2.74.17,5.48.13,8.22-.19,11.32-4.88,20.34-14.1,26.9-5.01,3.56-10.61,4.59-16.59,2.78-1.92-.59-3.65-1.56-4.87-3.21-.94-1.26-1.14-2.61-.15-3.96.7-.97,1.66-1.47,2.86-1.11,1.63.48,2.19,1.68,2.01,3.3-.05.43-.06.86-.09,1.33,1.36.23,2.13-.78,2.16-1.56.12-3.35,1.99-3.11,4.48-2.77,3.87.52,7.07-1.14,9.59-4.06,1.83-2.13,3.57-4.35,5.47-6.69-2.97-.33-5.35.72-7.19,2.65-3.7,3.88-8.16,4.4-13.04,3.37-7.61-1.61-9.7-.35-11.46,7.32-.34,1.48-.97,1.09-1.82.8-4.35-1.49-8.51-.77-12.38,1.38-4.66,2.58-9.55,3.38-14.85,3.37-36.62-.05-73.23-.07-109.85-.06-.62-.35-1.68-.12-2.56,0-17.76,0-35.5.01-53.26.02-16.21-.01-32.42-.02-48.62-.02-.91-.11-2.06-.37-2.7,0-37.35,0-74.72.01-112.08.03-3.6,0-6.99-.49-10.17-2.19-5.16-2.77-10.42-4.69-16.24-2.01-.36-1.82-.47-3.38-1-4.79-1.43-3.79-4.88-5.35-9.52-4.16-5.59,1.43-10.6,1.06-14.84-3.43-1.7-1.8-4.04-2.47-6.81-2.39,1.89,2.33,3.57,4.45,5.3,6.53,2.99,3.6,6.83,5.14,11.42,4.18,1.68-.35,2.41-.28,2.49,1.62.06,1.35.7,2.52,2.26,3.04.66-.66.15-1.41.17-2.08.06-1.38.71-2.28,2-2.7,1.06-.34,1.97.03,2.68.8.91.97,1.17,2.15.61,3.36-.93,2.02-2.71,3.16-4.71,3.86-6.02,2.15-11.76,1.24-16.94-2.31-9.32-6.41-14.08-15.42-14.42-26.71-.08-2.84.23-5.71.13-8.55-.12-3.62-1.47-4.98-5.04-5.11-2.74-.1-5.49.18-8.23.13-11.31-.19-20.34-4.88-26.9-14.1-3.56-5.01-4.59-10.61-2.77-16.59.58-1.92,1.55-3.65,3.2-4.87,1.27-.94,2.61-1.14,3.96-.15.97.7,1.47,1.66,1.11,2.86-.48,1.63-1.68,2.2-3.3,2.01-.43-.05-.86-.06-1.32-.09-.24,1.36.77,2.13,1.55,2.16,3.36.12,3.11,1.99,2.77,4.48-.52,3.87,1.14,7.07,4.06,9.59,2.13,1.83,4.35,3.57,6.69,5.47.33-2.97-.72-5.35-2.65-7.19-3.88-3.7-4.4-8.16-3.37-13.04,1.61-7.61.35-9.7-7.32-11.46-1.48-.34-1.09-.97-.8-1.82,1.49-4.35.77-8.51-1.38-12.38-2.58-4.66-3.38-9.55-3.37-14.85.1-69.74.07-205.79.02-278.33v-4.6c.06-69.71.08-139.41-.02-209.12-.01-5.31.79-10.19,3.37-14.85,2.15-3.87,2.87-8.04,1.38-12.38-.29-.84-.68-1.48.8-1.82,7.67-1.76,8.93-3.86,7.32-11.46-1.03-4.88-.51-9.34,3.37-13.04,1.93-1.84,2.99-4.22,2.65-7.19-2.34,1.91-4.56,3.64-6.69,5.47-2.93,2.51-4.59,5.71-4.06,9.59.34,2.5.59,4.35-2.77,4.48-.78.02-1.79.8-1.55,2.16.46-.03.89-.04,1.32-.09,1.63-.18,2.82.38,3.3,2.01.36,1.2-.14,2.16-1.11,2.86-1.34.99-2.69.79-3.96-.15-1.65-1.22-2.62-2.94-3.2-4.87-1.82-5.98-.79-11.58,2.77-16.59,6.55-9.21,15.58-13.91,26.9-14.1,2.74-.04,5.49.24,8.23.13,3.57-.13,4.92-1.48,5.04-5.1.1-2.85-.22-5.71-.13-8.56.34-11.3,5.1-20.3,14.42-26.7,5.18-3.56,10.91-4.46,16.94-2.32,2,.7,3.78,1.84,4.71,3.87.56,1.2.3,2.38-.61,3.35-.71.76-1.62,1.14-2.68.8-1.29-.42-1.94-1.33-2-2.7-.02-.66.48-1.43-.17-2.08-1.56.52-2.2,1.69-2.26,3.04-.07,1.9-.8,1.97-2.49,1.62-4.59-.96-8.43.58-11.42,4.19-1.73,2.07-3.41,4.19-5.3,6.52,2.77.08,5.11-.58,6.81-2.39,4.24-4.5,9.25-4.86,14.84-3.43,4.64,1.19,8.09-.37,9.52-4.16.53-1.4.64-2.97,1-4.79,5.81,2.69,11.08.76,16.24-2,3.18-1.71,6.57-2.2,10.17-2.2,37.36.02,74.72.03,112.08.03.64.37,1.78.11,2.7,0,16.44,0,32.87-.01,49.3-.01,17.53.01,35.06.02,52.6.02.86.11,1.92.34,2.54,0,36.62,0,73.25-.02,109.87-.07,5.31-.01,10.19.79,14.85,3.37,3.87,2.15,8.04,2.88,12.38,1.39.85-.29,1.48-.69,1.82.79,1.76,7.67,3.86,8.93,11.46,7.32,4.88-1.03,9.34-.51,13.04,3.37,1.84,1.93,4.22,2.99,7.19,2.65-1.91-2.34-3.64-4.56-5.47-6.69-2.51-2.93-5.71-4.59-9.59-4.06-2.49.34-4.35.59-4.48-2.77-.02-.78-.8-1.79-2.16-1.55.03.46.04.89.09,1.32.18,1.63-.38,2.82-2.01,3.31-1.2.35-2.16-.15-2.86-1.11-.99-1.34-.79-2.7.15-3.96,1.22-1.66,2.94-2.63,4.87-3.21,5.98-1.82,11.58-.79,16.59,2.77,9.21,6.55,13.91,15.58,14.1,26.9.04,2.74-.24,5.49-.13,8.23.13,3.57,1.48,4.92,5.1,5.04,2.85.1,5.71-.22,8.56-.13,11.3.34,20.3,5.1,26.7,14.42,3.56,5.18,4.46,10.91,2.32,16.94-.7,2-1.84,3.78-3.87,4.71-1.2.56-2.38.3-3.35-.61-.76-.72-1.14-1.63-.8-2.68.42-1.29,1.33-1.95,2.7-2.01.66-.02,1.43.48,2.08-.17-.52-1.57-1.69-2.21-3.04-2.26-1.9-.07-1.97-.8-1.62-2.49.96-4.59-.58-8.43-4.19-11.42-2.07-1.73-4.19-3.41-6.52-5.3-.08,2.78.58,5.11,2.39,6.81,4.5,4.24,4.86,9.25,3.43,14.84-1.19,4.64.37,8.09,4.16,9.52,1.4.53,2.97.64,4.79,1-2.69,5.81-.76,11.08,2,16.24,1.71,3.18,2.2,6.58,2.2,10.17-.05,71.34-.04,142.68.02,214.01v2.02c-.06,72.55-.07,209.17-.02,280.52,0,3.6-.49,6.99-2.2,10.17-2.76,5.16-4.69,10.42-2,16.24-1.82.36-3.39.47-4.79,1-3.79,1.43-5.35,4.88-4.16,9.52,1.43,5.59,1.06,10.6-3.43,14.84-1.81,1.7-2.47,4.04-2.39,6.81,2.33-1.89,4.45-3.57,6.52-5.29,3.61-2.99,5.15-6.83,4.19-11.43-.35-1.68-.28-2.41,1.62-2.49,1.35-.06,2.52-.7,3.04-2.26-.66-.66-1.42-.15-2.08-.17-1.38-.06-2.28-.71-2.7-2-.35-1.06.03-1.97.8-2.68.97-.91,2.15-1.17,3.35-.61,2.01.86,3.14,2.64,3.85,4.64Z"/>
  <g id="outline">
    <g>
      <path class="cls-2" d="m44.55,10.25c.78-3.14,2.72-4.8,5.38-5.74,1.1-.39,2.19-.3,2.84.84.74,1.3.11,2.35-.92,3.09-2.11,1.51-4.59,1.59-7.3,1.81Z"/>
      <path class="cls-2" d="m43.57,11.08l.25-1.01c.77-3.1,2.69-5.15,5.86-6.26,1.62-.57,2.99-.14,3.74,1.18.83,1.47.42,2.95-1.14,4.06-2.13,1.53-4.55,1.71-7.11,1.91l-1.6.12Zm7.46-6.03c-.23,0-.51.05-.85.17-2.36.83-3.82,2.15-4.59,4.2,2.22-.17,4.16-.4,5.82-1.59,1.35-.97.88-1.8.71-2.11-.19-.33-.48-.67-1.09-.67Z"/>
    </g>
    <g>
      <path class="cls-2" d="m10.16,46.15c-.23,4.18-1.97,7.18-4.03,6.91-1.28-.17-1.82-1.04-1.81-2.29.02-2.12,3.61-6.32,5.23-6.11,1.04.14.65.89.61,1.49Z"/>
      <path class="cls-2" d="m6.39,53.83c-.12,0-.24,0-.36-.02-1.58-.21-2.47-1.32-2.46-3.04.01-1.69,1.74-4.2,3.4-5.64,1.03-.9,1.93-1.3,2.68-1.21.51.07.88.26,1.12.58.35.48.26,1.02.19,1.42-.02.1-.03.19-.04.28-.17,3.11-1.15,5.68-2.6,6.89-.61.49-1.26.74-1.93.74Zm3.02-8.42c-.18,0-.68.17-1.46.85-1.5,1.31-2.88,3.46-2.89,4.52-.01,1.22.58,1.46,1.16,1.54.38.05.75-.07,1.12-.38,1.12-.93,1.91-3.16,2.06-5.82h0c.01-.15.03-.3.06-.45.01-.07.03-.17.04-.25-.02,0-.04,0-.06,0,0,0,0,0-.03,0Z"/>
    </g>
    <g>
      <g>
        <path class="cls-2" d="m553.93,44.57c3.14.78,4.8,2.72,5.74,5.38.39,1.1.3,2.19-.84,2.84-1.3.74-2.35.11-3.09-.92-1.51-2.11-1.6-4.59-1.81-7.3Z"/>
        <path class="cls-2" d="m557.71,53.86c-.95,0-1.85-.53-2.58-1.56-1.53-2.13-1.71-4.55-1.91-7.11l-.12-1.61,1.01.25c3.1.77,5.15,2.69,6.26,5.86.57,1.63.14,2.99-1.18,3.74-.49.29-.99.43-1.48.43Zm-2.95-8.25c.17,2.22.4,4.16,1.59,5.82.97,1.35,1.79.88,2.11.71.46-.26.93-.71.5-1.93-.83-2.37-2.15-3.82-4.2-4.6Z"/>
      </g>
      <path class="cls-2" d="m518.02,10.17c-4.18-.23-7.18-1.97-6.91-4.03.17-1.28,1.04-1.82,2.29-1.81,2.12.02,6.32,3.61,6.11,5.23-.14,1.04-.89.65-1.49.61Z"/>
      <path class="cls-2" d="m518.84,11.03c-.21,0-.41-.03-.59-.06-.1-.02-.19-.03-.28-.04-3.11-.17-5.68-1.15-6.89-2.6-.57-.69-.82-1.48-.71-2.28.21-1.57,1.3-2.46,3-2.46h.04c1.69.01,4.2,1.74,5.64,3.4.9,1.03,1.3,1.93,1.21,2.68-.07.51-.26.88-.58,1.12-.28.18-.57.24-.84.24Zm-5.47-5.95c-1.19,0-1.43.58-1.51,1.16-.05.38.08.75.38,1.12.93,1.12,3.16,1.91,5.82,2.06h.01c.14.01.29.03.44.06.07.01.17.03.25.04,0-.02.01-.04.01-.06.02-.15-.13-.67-.85-1.49-1.31-1.5-3.46-2.88-4.52-2.88-.01,0-.02,0-.03,0Z"/>
    </g>
    <g>
      <g>
        <g>
          <path class="cls-2" d="m44.55,719.16c.78,3.14,2.72,4.8,5.38,5.74,1.1.39,2.19.3,2.84-.84.74-1.3.11-2.35-.92-3.09-2.11-1.51-4.59-1.59-7.3-1.81Z"/>
          <path class="cls-2" d="m51.03,725.86c-.42,0-.87-.08-1.34-.25-3.17-1.11-5.09-3.16-5.86-6.26l-.25-1.01,1.6.12c2.56.19,4.98.38,7.11,1.91,1.55,1.12,1.97,2.6,1.14,4.06-.54.94-1.38,1.43-2.4,1.43Zm-5.44-5.86c.78,2.05,2.23,3.37,4.59,4.2,1.22.43,1.67-.04,1.93-.5.18-.31.64-1.14-.71-2.11-1.64-1.19-3.58-1.42-5.81-1.59Z"/>
        </g>
        <g>
          <path class="cls-2" d="m10.16,683.26c-.23-4.18-1.97-7.18-4.03-6.91-1.28.17-1.82,1.04-1.81,2.29.02,2.12,3.61,6.32,5.23,6.11,1.04-.14.65-.89.61-1.49Z"/>
          <path class="cls-2" d="m9.42,685.5c-.7,0-1.52-.41-2.45-1.22-1.66-1.45-3.39-3.95-3.4-5.64-.01-1.72.88-2.83,2.46-3.04.79-.11,1.58.14,2.28.71,1.46,1.21,2.43,3.78,2.6,6.89.01.09.02.19.04.28.07.4.16.94-.19,1.42-.23.32-.61.51-1.12.58-.07.02-.15.02-.22.02Zm-3.03-8.42c-.05,0-.11,0-.16.01-.58.08-1.17.32-1.16,1.54.01,1.06,1.38,3.21,2.89,4.52.83.72,1.33.86,1.49.85.02,0,.04-.01.06-.01-.01-.08-.02-.17-.04-.25-.03-.15-.05-.3-.06-.44h0c-.15-2.67-.94-4.9-2.06-5.83-.32-.26-.64-.39-.96-.39Z"/>
        </g>
      </g>
      <g>
        <g>
          <path class="cls-2" d="m546.58,702.9c-1.24-2.31-3.12-1.96-4.94-.45-.24.2-.56.28-.84.42-.76-1.38.2-2.56.36-4.12-3.02-.19-6.04-.32-9.17-1.93.44,3.19,1.67,5.81,1.4,8.64-.09.98.53,1.06,1.26.74.93-.41,1.86-.63,3.11-.18-1.07,1.65-2.5,3-1.18,4.91,1.5,2.17,4.56,1.66,5.73-1.05.43-1,.52-1.87,1.91-2.25,2.32-.62,3.63-2.35,2.36-4.73Zm-515.93,3.5c.19-3.02.31-6.04,1.92-9.17-3.18.44-5.8,1.67-8.63,1.4-.98-.09-1.06.52-.74,1.26.41.93.62,1.86.17,3.1-1.65-1.06-2.99-2.49-4.9-1.17-2.17,1.51-1.66,4.56,1.05,5.73.99.43,1.86.52,2.24,1.91.63,2.32,2.35,3.63,4.73,2.36,2.32-1.24,1.98-3.12.46-4.94-.2-.23-.28-.56-.42-.84,1.37-.77,2.56.2,4.12.36Zm0-683.39c-1.56.17-2.75,1.13-4.12.36.14-.28.22-.6.42-.84,1.52-1.81,1.86-3.7-.46-4.94-2.38-1.26-4.1.05-4.73,2.37-.38,1.38-1.25,1.47-2.24,1.91-2.71,1.16-3.22,4.23-1.05,5.73,1.91,1.31,3.25-.12,4.9-1.18.45,1.24.24,2.18-.17,3.1-.32.74-.24,1.35.74,1.26,2.83-.26,5.45.96,8.63,1.4-1.61-3.12-1.73-6.15-1.92-9.17Zm513.57-1.23c-1.39-.38-1.48-1.25-1.91-2.24-1.17-2.72-4.23-3.22-5.73-1.05-1.32,1.91.11,3.25,1.18,4.9-1.25.45-2.18.23-3.11-.17-.73-.33-1.35-.24-1.26.74.27,2.82-.96,5.44-1.4,8.63,3.13-1.61,6.15-1.73,9.17-1.93-.16-1.55-1.12-2.74-.36-4.12.28.14.6.23.84.43,1.82,1.51,3.7,1.85,4.94-.46,1.27-2.38-.04-4.11-2.36-4.73Z"/>
          <path class="cls-2" d="m24.73,713.06c-.53,0-.97-.12-1.31-.27-1.12-.48-1.96-1.6-2.38-3.14-.22-.79-.56-.93-1.31-1.21-.16-.06-.33-.13-.51-.2-1.62-.7-2.68-2.04-2.83-3.58-.14-1.37.47-2.63,1.65-3.46,1.96-1.35,3.54-.36,4.83.54.02-.54-.13-1.02-.36-1.55-.39-.91-.21-1.47.01-1.77.21-.29.63-.61,1.48-.54,1.65.16,3.28-.25,5.01-.67,1.09-.27,2.22-.55,3.45-.72l1.43-.2-.66,1.28c-1.47,2.85-1.63,5.58-1.81,8.46l-.07,1.19-.78-.08c-.6-.06-1.14-.23-1.62-.37-.55-.17-.96-.31-1.34-.28,1.05,1.29,1.46,2.49,1.25,3.59-.19.98-.87,1.78-2.01,2.4-.82.43-1.53.58-2.12.58Zm-4.73-11.02c-.35,0-.7.12-1.1.4-.73.51-1.1,1.26-1.02,2.07.1.99.82,1.87,1.94,2.35.15.07.3.12.45.18.84.32,1.8.69,2.22,2.22.3,1.09.84,1.86,1.53,2.16.6.26,1.31.17,2.12-.26.73-.39,1.15-.85,1.25-1.36.16-.82-.46-1.78-1.01-2.44-.21-.24-.32-.52-.41-.75-.03-.08-.06-.16-.1-.24l-.32-.64.62-.35c1.18-.67,2.27-.34,3.22-.05.19.06.38.11.57.17.15-2.36.35-4.79,1.34-7.29-.66.14-1.3.3-1.92.45-1.85.46-3.6.89-5.51.71h-.06c.02.06.04.13.08.22.41.93.75,2.09.19,3.65l-.32.88-.79-.51c-.27-.17-.53-.35-.78-.53-.93-.63-1.56-1.04-2.19-1.04Zm3.64-2.66h0Zm515.41,13.65c-1.22,0-2.35-.61-3.09-1.67-1.35-1.95-.36-3.54.54-4.83-.54-.02-1.02.13-1.55.37-.9.4-1.46.21-1.77-.01-.29-.21-.62-.63-.54-1.48.16-1.64-.25-3.28-.67-5-.27-1.1-.55-2.23-.72-3.47l-.2-1.43,1.28.66c2.87,1.47,5.61,1.65,8.52,1.83l1.14.07-.08.78c-.06.6-.22,1.14-.37,1.62-.17.55-.28.97-.28,1.35,1.29-1.04,2.5-1.46,3.59-1.25.97.19,1.78.86,2.39,2h0c.82,1.54.62,2.72.31,3.43-.49,1.12-1.6,1.96-3.14,2.38-.79.22-.92.56-1.21,1.32-.06.16-.13.33-.2.51-.7,1.62-2.04,2.68-3.59,2.84-.12-.03-.24-.02-.36-.02Zm-2.63-8.01c.48,0,1.01.08,1.59.29l.89.32-.51.79c-.17.26-.35.52-.52.77-1,1.43-1.45,2.17-.67,3.31.5.73,1.25,1.09,2.07,1.02,1-.1,1.88-.82,2.36-1.94.07-.15.12-.3.18-.45.32-.85.69-1.81,2.22-2.23,1.09-.29,1.86-.83,2.16-1.52.26-.6.17-1.32-.26-2.13h0c-.39-.72-.84-1.14-1.35-1.24-.82-.16-1.79.46-2.45,1.01-.25.21-.52.32-.74.41-.08.03-.16.07-.24.1l-.64.32-.35-.63c-.65-1.19-.33-2.27-.04-3.22.06-.19.11-.38.16-.57-2.36-.15-4.79-.36-7.29-1.35.14.66.3,1.31.45,1.94.46,1.85.89,3.61.71,5.5v.06c.06-.02.13-.04.22-.08.57-.25,1.24-.48,2.05-.48Zm-2.28.73h0Zm-3.09-671.83l.2-1.43c.17-1.24.45-2.37.72-3.47.43-1.72.83-3.35.67-4.99-.08-.86.25-1.29.55-1.49.31-.22.87-.4,1.77,0,.53.23,1.01.36,1.55.35-.9-1.29-1.89-2.87-.54-4.82.81-1.17,2.11-1.79,3.45-1.66,1.54.15,2.88,1.22,3.58,2.84.07.17.14.34.2.5.29.75.42,1.09,1.21,1.31,1.54.41,2.65,1.25,3.14,2.37.31.72.51,1.89-.31,3.43-.61,1.14-1.42,1.82-2.39,2.01-1.09.21-2.3-.2-3.59-1.24-.01.38.11.79.28,1.34.14.48.31,1.01.37,1.61l.08.77-1.24.08c-2.87.19-5.58.36-8.41,1.82l-1.29.67Zm3.08-10.1v.07c.18,1.89-.25,3.64-.71,5.49-.16.63-.32,1.28-.45,1.94,2.5-1,4.93-1.2,7.29-1.35-.05-.19-.1-.37-.16-.56-.29-.96-.61-2.04.04-3.23l.35-.63.64.32c.08.04.15.07.23.1.22.09.5.21.75.42.66.55,1.61,1.16,2.44,1,.51-.1.97-.52,1.36-1.24.43-.81.52-1.53.26-2.13-.3-.69-1.07-1.23-2.15-1.52h0c-1.53-.42-1.89-1.37-2.22-2.22-.06-.15-.11-.3-.18-.45-.48-1.12-1.36-1.84-2.35-1.94-.82-.09-1.57.29-2.07,1.02-.78,1.13-.34,1.87.66,3.29.18.25.36.51.53.77l.51.79-.89.32c-1.55.56-2.72.22-3.66-.19-.08-.02-.16-.05-.22-.07ZM33.9,33.12l-1.43-.2c-1.23-.17-2.36-.45-3.46-.72-1.73-.43-3.36-.83-5-.68-.84.08-1.27-.25-1.48-.54-.22-.31-.41-.86-.01-1.77.23-.52.38-1,.36-1.55-1.29.89-2.87,1.89-4.82.55-1.18-.81-1.79-2.1-1.66-3.46.16-1.55,1.22-2.89,2.84-3.58.17-.08.34-.14.51-.21.74-.29,1.08-.43,1.3-1.21.42-1.54,1.26-2.66,2.38-3.14.71-.31,1.89-.51,3.42.31,1.15.61,1.83,1.42,2.02,2.4.21,1.1-.21,2.31-1.25,3.58.37.01.8-.11,1.36-.28.47-.14,1.01-.31,1.6-.37l.78-.08.08,1.2c.18,2.89.35,5.62,1.81,8.46l.65,1.29Zm-9.15-3.13c1.57,0,3.06.37,4.62.75.63.15,1.27.31,1.93.45-1-2.49-1.19-4.92-1.34-7.29-.19.05-.37.11-.55.16-.96.29-2.05.62-3.24-.05l-.62-.35.32-.64c.04-.08.07-.16.1-.24.09-.22.2-.5.41-.75.55-.65,1.17-1.61,1.01-2.43-.1-.52-.52-.97-1.25-1.36-.81-.43-1.52-.52-2.12-.26-.69.3-1.24,1.07-1.53,2.16-.42,1.51-1.36,1.88-2.2,2.21-.15.06-.3.12-.46.19-1.12.48-1.84,1.36-1.94,2.35-.08.81.29,1.57,1.02,2.07,1.13.77,1.86.33,3.28-.66.26-.18.52-.36.78-.53l.79-.51.32.88c.57,1.57.22,2.73-.19,3.66-.04.09-.06.16-.08.21h.06c.3,0,.59-.02.88-.02Zm-1.11.04h0Z"/>
        </g>
        <g>
          <path class="cls-2" d="m554.08,687.97c-2.07.53-2.48.04-2.98-1.83-.94-3.46-4.02-4.93-7.5-3.96-3.37.94-4.71,3.4-3.75,7.21,1.06-1.45,1.91-3.17,4.03-2.56,1.28.36,2.07,1.29,2.21,2.6.23,2.08-.84,3.55-2.45,4.71-1.73,1.23-3.7,1.32-5.69.93-3.03-.6-5.44-2.24-7.29-4.71-3.21-4.28-3.02-4.84,1.99-6.13,8.44-2.18,16.2-5.64,22.18-12.2,5.92-6.5,8.81-14.07,7.37-22.96-.2-1.29-.49-2.65-1.13-3.76-2.57-4.38-2.59-8.92-1.42-13.68,1.05-4.3,1.22-8.67.78-13.08-.27-2.73-.27-5.48-.27-8.23-.01-70.45-.01-420.79,0-491.23,0-2.75,0-5.5.27-8.22.44-4.42.27-8.79-.78-13.09-1.17-4.76-1.15-9.3,1.42-13.68.64-1.1.93-2.47,1.13-3.76,1.44-8.89-1.45-16.46-7.37-22.95-5.98-6.57-13.74-10.03-22.18-12.2-5.01-1.3-5.2-1.86-1.99-6.13,1.85-2.48,4.26-4.12,7.29-4.71,1.99-.39,3.96-.31,5.69.93,1.61,1.15,2.68,2.63,2.45,4.71-.14,1.31-.93,2.24-2.21,2.59-2.12.61-2.97-1.11-4.03-2.55-.96,3.8.38,6.27,3.75,7.21,3.48.97,6.56-.5,7.5-3.96.5-1.88.91-2.36,2.98-1.84,3.62.92,7.05-.9,8.54-4,1.1-2.3.92-4.65.34-7.07-1.21-5.09-3.99-9.92-1.81-16.25-4.88,4.48-4.9,9.07-3.77,14.02.66,2.94.42,5.9-2.57,7.51-3.03,1.63-5.38-.09-7.59-2.17,5.13-2.57,6.24-5.63,3.46-10.3-.93-1.56-.07-1.81.78-2.48,5.2-4.06,5.98-10.28,8.6-16.57-6.7,2.77-13.33,3.55-17.19,9.45-.52.79-.98.37-1.62.05-5.34-2.69-7.82-1.92-10.6,3.29-1.99-2.12-3.64-4.38-2.25-7.32,1.48-3.09,4.4-3.39,7.37-2.84,2.06.37,4.09.82,6.2.67,2.98-.22,5.45-1.43,7.25-3.92-3.88,1.1-7.45.12-11.05-1.01-2.19-.69-4.42-1.41-6.68-1.67-5.35-.64-9.57,3.25-8.87,8.36.33,2.38.26,3.45-2.39,4.16-3.11.82-4.3,4.33-3.18,7.59,1.12,3.21,3.48,4.38,7.05,3.35-1.31-1-2.97-1.72-2.57-3.73.26-1.3,1.08-2.16,2.39-2.43,1.94-.39,3.41.52,4.61,1.93,1.13,1.31,1.57,2.87,1.47,4.58-.25,4.31-2.45,7.41-6.01,9.65-3.57,2.24-3.79,2.12-4.76-1.86-2.24-9.12-5.82-17.61-13.23-23.75-8.48-7.03-17.86-9.66-28.37-4.46-2.23,1.1-4.73,1.61-7.06.98-8.45-2.28-17-1.2-25.54-1.19-36.37.02-289.49.02-325.96.01-2.74,0-5.5,0-8.22-.28-4.42-.44-8.79-.27-13.08.78-4.76,1.17-9.31,1.16-13.69-1.41-1.1-.65-2.47-.93-3.76-1.14-8.89-1.44-16.46,1.45-22.95,7.37-6.57,5.99-10.03,13.74-12.2,22.18-1.3,5.02-1.86,5.2-6.13,2-2.48-1.86-4.11-4.27-4.71-7.3-.39-1.99-.31-3.96.93-5.69,1.15-1.61,2.64-2.68,4.71-2.45,1.31.14,2.24.93,2.59,2.22.61,2.11-1.11,2.97-2.56,4.02,3.82.96,6.28-.37,7.22-3.75.97-3.47-.5-6.56-3.96-7.5-1.87-.5-2.36-.91-1.84-2.97.92-3.63-.9-7.05-4.01-8.54-2.29-1.11-4.64-.93-7.06-.34-5.09,1.21-9.92,3.98-16.25,1.8,4.48,4.88,9.07,4.9,14.03,3.78,2.93-.67,5.89-.43,7.5,2.56,1.64,3.03-.09,5.38-2.17,7.6-2.56-5.14-5.62-6.25-10.3-3.46-1.56.93-1.81.06-2.47-.78C16.62,7.52,10.4,6.73,4.12,4.12c2.76,6.69,3.54,13.33,9.44,17.18.79.52.38.99.05,1.63-2.68,5.33-1.91,7.82,3.29,10.6-2.12,1.99-4.39,3.64-7.32,2.24-3.09-1.47-3.39-4.39-2.84-7.37.37-2.06.82-4.09.67-6.19-.22-2.99-1.43-5.45-3.92-7.26,1.09,3.88.12,7.45-1.01,11.05-.69,2.19-1.41,4.42-1.67,6.69-.64,5.34,3.25,9.56,8.37,8.86,2.38-.33,3.45-.25,4.15,2.39.82,3.11,4.33,4.31,7.6,3.18,3.21-1.11,4.37-3.48,3.34-7.04-1,1.3-1.72,2.97-3.72,2.56-1.31-.26-2.17-1.08-2.43-2.39-.39-1.94.51-3.41,1.92-4.61,1.31-1.13,2.87-1.57,4.59-1.47,4.3.26,7.4,2.46,9.64,6.02s2.12,3.79-1.86,4.76c-9.12,2.24-17.61,5.81-23.75,13.22-7.02,8.48-9.66,17.86-4.46,28.38,1.1,2.23,1.61,4.72.98,7.05-2.27,8.45-1.2,17-1.19,25.54.04,69.51.02,139.03.06,208.54v4.85c-.04,72.5-.02,208.2-.06,277.74-.01,8.54-1.08,17.09,1.19,25.54.63,2.33.12,4.83-.98,7.06-5.2,10.51-2.56,19.9,4.46,28.37,6.14,7.41,14.63,10.99,23.75,13.23,3.98.98,4.1,1.19,1.86,4.76-2.24,3.55-5.34,5.76-9.64,6.01-1.72.1-3.28-.34-4.59-1.47-1.41-1.2-2.31-2.67-1.92-4.61.26-1.3,1.12-2.12,2.43-2.39,2-.4,2.72,1.26,3.72,2.56,1.03-3.56-.13-5.93-3.34-7.03-3.27-1.13-6.78.06-7.6,3.17-.7,2.65-1.77,2.72-4.15,2.4-5.12-.71-9.01,3.52-8.37,8.85.26,2.27.98,4.5,1.67,6.69,1.13,3.6,2.1,7.17,1.01,11.05,2.49-1.8,3.7-4.26,3.92-7.25.15-2.11-.3-4.14-.67-6.2-.55-2.98-.25-5.89,2.84-7.36,2.93-1.4,5.2.25,7.32,2.24-5.2,2.77-5.97,5.26-3.29,10.6.33.63.74,1.1-.05,1.62-5.9,3.86-6.68,10.49-9.44,17.18,6.28-2.61,12.5-3.4,16.57-8.6.66-.83.91-1.7,2.47-.77,4.68,2.78,7.74,1.67,10.3-3.46,2.08,2.21,3.81,4.56,2.17,7.59-1.61,3-4.57,3.23-7.5,2.57-4.96-1.13-9.55-1.11-14.03,3.77,6.33-2.18,11.16.6,16.25,1.81,2.42.58,4.77.76,7.06-.34,3.11-1.5,4.93-4.91,4.01-8.54-.52-2.07-.03-2.48,1.84-2.98,3.46-.94,4.93-4.02,3.96-7.5-.94-3.37-3.4-4.71-7.22-3.75,1.45,1.06,3.17,1.91,2.56,4.02-.35,1.29-1.28,2.08-2.59,2.22-2.07.23-3.56-.84-4.71-2.45-1.24-1.73-1.32-3.7-.93-5.68.6-3.04,2.23-5.45,4.71-7.3,4.27-3.21,4.83-3.02,6.13,1.99,2.17,8.44,5.63,16.2,12.2,22.18,6.49,5.92,14.06,8.81,22.95,7.38,1.29-.21,2.66-.5,3.76-1.14,4.38-2.57,8.93-2.59,13.69-1.42,4.29,1.05,8.66,1.22,13.08.78,2.72-.27,5.48-.27,8.22-.27,36.47,0,72.93,0,109.41,0h2.5c.24-.03.47-.05.67-.05,20.75.01,41.51.02,62.27.03,12.85,0,25.7-.01,38.55-.02.16,0,.32.01.5.03h2.72c36.45.01,72.9.01,109.34.03,8.54,0,17.09,1.08,25.54-1.19,2.33-.63,4.83-.13,7.06.98,10.51,5.2,19.89,2.56,28.37-4.47,7.41-6.13,10.99-14.63,13.23-23.74.97-3.99,1.19-4.11,4.76-1.87,3.56,2.24,5.76,5.34,6.01,9.65.1,1.72-.34,3.27-1.47,4.59-1.2,1.4-2.67,2.31-4.61,1.92-1.31-.27-2.13-1.13-2.39-2.43-.4-2.01,1.26-2.73,2.57-3.72-3.57-1.02-5.93.13-7.05,3.34-1.12,3.27.07,6.77,3.18,7.6,2.65.7,2.72,1.77,2.39,4.15-.7,5.12,3.52,9.01,8.87,8.37,2.26-.27,4.49-.99,6.68-1.68,3.6-1.13,7.17-2.1,11.05-1.01-1.8-2.49-4.27-3.7-7.25-3.91-2.11-.15-4.14.29-6.2.67-2.97.54-5.89.25-7.37-2.84-1.39-2.93.26-5.21,2.25-7.33,2.78,5.21,5.26,5.98,10.6,3.3.64-.32,1.1-.75,1.62.04,3.86,5.91,10.49,6.69,17.19,9.46-2.62-6.3-3.4-12.51-8.6-16.58-.85-.67-1.71-.91-.78-2.47,2.78-4.68,1.67-7.74-3.46-10.3,2.21-2.09,4.56-3.81,7.59-2.18,2.99,1.61,3.23,4.57,2.57,7.51-1.13,4.96-1.11,9.55,3.77,14.02-2.18-6.32.6-11.16,1.81-16.24.58-2.43.76-4.77-.34-7.07-1.49-3.1-4.92-4.93-8.54-4.01Zm-20.69-664.01c-.09-.98.53-1.07,1.26-.74.93.4,1.86.62,3.11.17-1.07-1.65-2.5-2.99-1.18-4.9,1.5-2.17,4.56-1.67,5.73,1.05.43.99.52,1.86,1.91,2.24,2.32.62,3.63,2.35,2.36,4.73-1.24,2.31-3.12,1.97-4.94.46-.24-.2-.56-.29-.84-.43-.76,1.38.2,2.57.36,4.12-3.02.2-6.04.32-9.17,1.93.44-3.19,1.67-5.81,1.4-8.63ZM23.94,30.78c-.98.09-1.06-.52-.74-1.26.41-.92.62-1.86.17-3.1-1.65,1.06-2.99,2.49-4.9,1.18-2.17-1.5-1.66-4.57,1.05-5.73.99-.44,1.86-.53,2.24-1.91.63-2.32,2.35-3.63,4.73-2.37,2.32,1.24,1.98,3.13.46,4.94-.2.24-.28.56-.42.84,1.37.77,2.56-.19,4.12-.36.19,3.02.31,6.05,1.92,9.17-3.18-.44-5.8-1.66-8.63-1.4Zm6.71,675.62c-1.56-.16-2.75-1.13-4.12-.36.14.28.22.61.42.84,1.52,1.82,1.86,3.7-.46,4.94-2.38,1.27-4.1-.04-4.73-2.36-.38-1.39-1.25-1.48-2.24-1.91-2.71-1.17-3.22-4.22-1.05-5.73,1.91-1.32,3.25.11,4.9,1.17.45-1.24.24-2.17-.17-3.1-.32-.74-.24-1.35.74-1.26,2.83.27,5.45-.96,8.63-1.4-1.61,3.13-1.73,6.15-1.92,9.17Zm489.78-25.84c-3.62.13-4.97,1.47-5.1,5.05-.11,2.74.17,5.48.13,8.22-.19,11.32-4.88,20.34-14.1,26.9-5.01,3.55-10.6,4.59-16.58,2.77-1.93-.59-3.65-1.56-4.87-3.21-.94-1.26-1.14-2.61-.15-3.95.7-.97,1.66-1.47,2.86-1.11,1.63.48,2.19,1.67,2.01,3.3-.05.43-.06.86-.09,1.32,1.36.24,2.13-.78,2.15-1.55.13-3.36,1.99-3.11,4.48-2.77,3.87.52,7.08-1.14,9.59-4.07,1.83-2.13,3.56-4.35,5.47-6.69-2.97-.33-5.35.72-7.19,2.65-3.7,3.88-8.16,4.41-13.04,3.37-7.6-1.61-9.7-.35-11.46,7.32-.34,1.48-.97,1.09-1.81.8-4.35-1.49-8.51-.77-12.39,1.38-4.66,2.57-9.54,3.37-14.85,3.36-36.61-.05-73.23-.06-109.85-.06h-2.57c-.22.04-.44.05-.63.05-17.54-.01-35.09-.02-52.63-.03l-48.04.03c-.17,0-.37-.02-.58-.05h-2.7c-37.35,0-74.71.01-112.07.04-3.6,0-6.99-.49-10.17-2.19-5.16-2.77-10.43-4.7-16.24-2.01-.36-1.82-.47-3.38-1-4.79-1.43-3.79-4.88-5.35-9.52-4.17-5.59,1.43-10.6,1.07-14.84-3.43-1.7-1.8-4.04-2.47-6.81-2.39,1.89,2.33,3.58,4.45,5.3,6.53,2.99,3.6,6.83,5.14,11.42,4.18,1.68-.35,2.41-.28,2.49,1.62.06,1.35.7,2.52,2.25,3.04.66-.65.15-1.41.18-2.08.06-1.38.71-2.28,2-2.7,1.06-.35,1.96.03,2.68.79.91.97,1.17,2.15.61,3.36-.93,2.02-2.71,3.16-4.71,3.86-6.02,2.15-11.76,1.24-16.94-2.31-9.32-6.41-14.08-15.42-14.42-26.71-.08-2.85.23-5.71.13-8.55-.12-3.63-1.46-4.98-5.04-5.11-2.73-.1-5.49.18-8.23.13-11.31-.19-20.34-4.88-26.89-14.1-3.56-5.01-4.6-10.6-2.77-16.58.58-1.93,1.55-3.65,3.2-4.87,1.27-.94,2.61-1.14,3.96-.15.97.7,1.46,1.66,1.11,2.86-.48,1.62-1.68,2.2-3.3,2.01-.43-.05-.87-.06-1.32-.09-.24,1.36.77,2.13,1.55,2.15,3.36.13,3.11,1.99,2.77,4.48-.52,3.87,1.14,7.07,4.06,9.59,2.13,1.83,4.36,3.56,6.7,5.47.33-2.97-.73-5.35-2.66-7.19-3.88-3.7-4.39-8.16-3.37-13.04,1.61-7.6.35-9.7-7.32-11.46-1.47-.34-1.08-.97-.79-1.81,1.49-4.35.77-8.51-1.38-12.39-2.58-4.66-3.38-9.54-3.37-14.85.1-69.74.08-205.79.02-278.33v-4.6c.06-69.71.08-139.41-.02-209.12-.01-5.31.79-10.19,3.37-14.85,2.15-3.87,2.87-8.04,1.38-12.38-.29-.84-.68-1.48.79-1.82,7.67-1.76,8.93-3.86,7.32-11.46-1.02-4.88-.51-9.34,3.37-13.04,1.93-1.84,2.99-4.22,2.66-7.19-2.34,1.91-4.57,3.64-6.7,5.48-2.92,2.51-4.58,5.71-4.06,9.58.34,2.5.59,4.36-2.77,4.48-.78.03-1.79.8-1.55,2.16.45-.04.89-.04,1.32-.09,1.62-.19,2.82.38,3.3,2,.35,1.21-.14,2.16-1.11,2.86-1.35.99-2.69.79-3.96-.14-1.65-1.22-2.62-2.95-3.2-4.87-1.83-5.98-.79-11.58,2.77-16.59,6.55-9.21,15.58-13.91,26.89-14.1,2.74-.04,5.5.24,8.23.13,3.58-.13,4.92-1.48,5.04-5.1.1-2.85-.21-5.71-.13-8.56.34-11.29,5.1-20.3,14.42-26.7,5.18-3.56,10.92-4.46,16.94-2.32,2,.7,3.78,1.84,4.71,3.87.56,1.2.3,2.38-.61,3.35-.72.76-1.62,1.15-2.68.8-1.29-.43-1.94-1.33-2-2.71-.03-.66.48-1.42-.18-2.08-1.55.52-2.19,1.69-2.25,3.05-.08,1.9-.81,1.96-2.49,1.61-4.59-.96-8.43.58-11.42,4.19-1.72,2.07-3.41,4.19-5.3,6.52,2.77.08,5.11-.58,6.81-2.39,4.24-4.49,9.25-4.86,14.84-3.43,4.64,1.18,8.09-.38,9.52-4.17.53-1.4.64-2.96,1-4.79,5.81,2.69,11.08.76,16.24-2,3.18-1.71,6.57-2.2,10.17-2.2,12.45.01,29.42.01,46.51.01,34.18,0,68.84-.01,68.84-.01,0,0,177.11.03,213.72-.02,5.31-.01,10.19.79,14.85,3.37,3.88,2.14,8.04,2.87,12.39,1.38.84-.29,1.47-.69,1.81.79,1.76,7.67,3.86,8.93,11.46,7.32,4.88-1.03,9.34-.51,13.04,3.37,1.84,1.93,4.22,2.99,7.19,2.65-1.91-2.33-3.64-4.56-5.47-6.69-2.51-2.93-5.72-4.59-9.59-4.06-2.49.34-4.35.59-4.48-2.77-.02-.78-.79-1.79-2.15-1.55.03.45.04.88.09,1.32.18,1.62-.38,2.81-2.01,3.3-1.2.35-2.16-.15-2.86-1.11-.99-1.34-.79-2.69.15-3.95,1.22-1.66,2.94-2.63,4.87-3.21,5.98-1.83,11.57-.79,16.58,2.77,9.22,6.55,13.91,15.58,14.1,26.89.04,2.74-.24,5.49-.13,8.23.13,3.57,1.48,4.92,5.1,5.04,2.85.1,5.71-.21,8.56-.13,11.29.34,20.3,5.1,26.7,14.42,3.56,5.18,4.47,10.92,2.33,16.94-.71,2-1.85,3.78-3.88,4.71-1.2.55-2.38.3-3.35-.61-.76-.72-1.14-1.62-.79-2.68.42-1.29,1.32-1.95,2.7-2,.66-.03,1.43.48,2.08-.17-.52-1.57-1.69-2.21-3.04-2.26-1.9-.08-1.97-.81-1.62-2.49.96-4.6-.58-8.44-4.19-11.42-2.07-1.73-4.19-3.41-6.52-5.3-.08,2.78.58,5.11,2.39,6.81,4.5,4.24,4.86,9.24,3.44,14.83-1.19,4.65.37,8.1,4.16,9.53,1.4.53,2.97.63,4.79,1-2.68,5.81-.76,11.08,2,16.24,1.71,3.17,2.2,6.57,2.2,10.17-.05,71.33-.05,425.19,0,496.54,0,3.6-.49,6.99-2.2,10.17-2.76,5.15-4.68,10.42-2,16.23-1.82.37-3.39.48-4.79,1.01-3.79,1.42-5.35,4.87-4.16,9.52,1.42,5.59,1.06,10.6-3.44,14.83-1.81,1.7-2.47,4.04-2.39,6.81,2.33-1.89,4.45-3.57,6.52-5.29,3.61-2.99,5.15-6.83,4.19-11.43-.35-1.68-.28-2.41,1.62-2.48,1.35-.06,2.52-.7,3.04-2.26-.65-.65-1.42-.15-2.08-.17-1.38-.06-2.28-.72-2.7-2-.35-1.06.03-1.97.79-2.68.97-.91,2.15-1.17,3.35-.61,2.03.92,3.17,2.71,3.88,4.71,2.14,6.02,1.23,11.76-2.33,16.93-6.4,9.33-15.41,14.08-26.7,14.42-2.85.09-5.71-.23-8.56-.13Zm23.79,27.07c-1.39.38-1.48,1.25-1.91,2.25-1.17,2.71-4.23,3.22-5.73,1.05-1.32-1.91.11-3.26,1.18-4.91-1.25-.45-2.18-.23-3.11.18-.73.32-1.35.24-1.26-.74.27-2.83-.96-5.45-1.4-8.64,3.13,1.61,6.15,1.74,9.17,1.93-.16,1.56-1.12,2.74-.36,4.12.28-.14.6-.22.84-.42,1.82-1.51,3.7-1.86,4.94.45,1.27,2.38-.04,4.11-2.36,4.73Z"/>
          <path class="cls-2" d="m33.74,729.41c-1.29,0-2.51-.23-3.56-.48-1.21-.29-2.42-.67-3.59-1.03-3.92-1.23-7.62-2.39-12.24-.8l-2.8.96,2-2.18c4.91-5.35,9.99-5.08,14.75-3.99,3.3.75,5.48.02,6.67-2.19,1.16-2.15.44-3.87-1.35-5.94-1.32,2.31-2.79,3.68-4.49,4.18-1.82.54-3.9.09-6.35-1.37-.74-.44-.75-.43-1.21.21-.09.12-.18.25-.29.38-3.15,4.02-7.49,5.5-12.08,7.07-1.57.53-3.18,1.09-4.79,1.75l-1.67.7.69-1.67c.67-1.61,1.22-3.24,1.75-4.81,1.69-4.97,3.29-9.66,7.97-12.71.04-.03.08-.05.1-.07-.04-.09-.12-.23-.17-.33l-.13-.24c-2.7-5.39-2.05-8.29,2.68-11.09-1.94-1.66-3.65-2.41-5.72-1.42-2.28,1.08-3.05,3.17-2.43,6.55l.14.75c.34,1.81.68,3.69.54,5.64-.24,3.33-1.67,5.95-4.23,7.8l-1.74,1.26.58-2.07c1.02-3.62.15-6.96-1-10.62l-.07-.23c-.67-2.13-1.37-4.34-1.63-6.6-.35-2.91.55-5.65,2.45-7.52,1.78-1.75,4.19-2.51,6.76-2.15,2.17.29,2.76.28,3.32-1.85.39-1.49,1.32-2.66,2.69-3.39,1.69-.9,3.83-1.01,5.88-.3,3.59,1.23,4.94,4.05,3.81,7.95l-.41,1.42-.9-1.17c-.17-.22-.33-.45-.49-.68-.85-1.21-1.35-1.83-2.48-1.6-1.02.21-1.65.82-1.84,1.8-.29,1.44.24,2.67,1.67,3.89,1.12.96,2.45,1.39,4.06,1.29,3.83-.22,6.79-2.07,9.05-5.66.51-.82,1.47-2.35,1.34-2.67-.13-.31-1.77-.72-2.74-.96-11.27-2.77-18.72-6.93-24.15-13.48-7.89-9.52-9.42-19.34-4.55-29.18.79-1.61,1.6-4.05.93-6.53-1.75-6.52-1.55-13.16-1.35-19.58.06-2.02.13-4.1.13-6.15.02-34.84.02-86.3.03-138.09.01-51.57.01-103.47.03-139.65v-4.85c-.02-34.75-.02-69.51-.03-104.27,0-34.76-.01-69.52-.03-104.27,0-2.05-.07-4.13-.13-6.15-.2-6.42-.41-13.06,1.35-19.58.67-2.48-.14-4.92-.93-6.52-4.93-9.98-3.44-19.53,4.55-29.19,5.42-6.55,12.87-10.7,24.15-13.47.91-.22,2.61-.64,2.74-.96.13-.33-.83-1.86-1.34-2.68-2.25-3.58-5.22-5.44-9.05-5.67-1.61-.09-2.94.33-4.06,1.29-1.43,1.22-1.96,2.46-1.67,3.89.2.99.82,1.6,1.84,1.8,1.14.24,1.64-.39,2.48-1.59.16-.23.33-.46.5-.69l.9-1.17.41,1.42c1.13,3.89-.23,6.72-3.81,7.96-2.05.71-4.19.6-5.87-.3-1.37-.73-2.31-1.91-2.7-3.39-.56-2.13-1.16-2.14-3.32-1.84-2.59.36-4.99-.41-6.77-2.16-1.9-1.87-2.8-4.62-2.45-7.53.26-2.26.95-4.46,1.63-6.59l.07-.23c1.15-3.67,2.02-7,1-10.62l-.58-2.08,1.75,1.27c2.56,1.86,3.98,4.49,4.23,7.81.14,1.94-.21,3.82-.54,5.63l-.14.75c-.63,3.39.14,5.48,2.42,6.56,2.07.99,3.78.24,5.72-1.42-4.73-2.8-5.38-5.71-2.68-11.08l.14-.25c.06-.1.14-.25.17-.34-.02-.02-.05-.04-.1-.07-4.67-3.05-6.27-7.74-7.97-12.71-.54-1.57-1.09-3.2-1.76-4.81l-.69-1.73,1.67.69c1.61.67,3.22,1.22,4.79,1.75,4.59,1.57,8.93,3.05,12.08,7.08.1.13.19.26.28.38.46.65.47.66,1.21.21,2.45-1.46,4.53-1.92,6.35-1.38,1.7.5,3.18,1.87,4.49,4.19,1.79-2.08,2.51-3.81,1.35-5.95-1.2-2.22-3.38-2.94-6.67-2.19-4.77,1.08-9.85,1.33-14.75-4l-2-2.18,2.8.96c4.63,1.61,8.33.45,12.26-.77,1.17-.36,2.37-.74,3.58-1.03,2.09-.51,4.84-.93,7.56.39,3.56,1.71,5.38,5.57,4.41,9.4-.4,1.57-.28,1.64,1.31,2.06,1.79.49,3.17,1.51,3.99,2.96.87,1.54,1.05,3.48.49,5.47-1.06,3.81-3.95,5.33-8.12,4.28l-1.56-.39,1.3-.94c.17-.12.35-.25.53-.37,1.41-.98,2.13-1.55,1.75-2.83-.27-1-.94-1.58-1.95-1.68-1.58-.17-2.85.51-4.02,2.14-.97,1.35-1.22,2.97-.8,5.11.54,2.75,2.03,5.05,4.42,6.84,1.02.76,2.9,2.17,3.5,1.97.58-.2,1.15-2.38,1.45-3.56,2.57-10,6.52-17.16,12.42-22.55C63.89,2.38,71.82-.16,80.44,1.23c1.38.23,2.83.53,4.02,1.23,3.73,2.19,7.9,2.61,13.13,1.33,4.15-1.02,8.52-1.28,13.33-.8,2.68.28,5.46.28,8.15.28,38.66.01,290.44.01,325.96-.01,2.05,0,4.14-.07,6.17-.13,6.42-.2,13.05-.41,19.57,1.35,2.48.67,4.92-.13,6.53-.93,9.98-4.94,19.53-3.45,29.18,4.56,6.55,5.43,10.71,12.88,13.48,24.15.22.92.64,2.62.95,2.74.32.14,1.86-.83,2.68-1.34,3.58-2.26,5.44-5.22,5.66-9.06.09-1.59-.34-2.95-1.29-4.05-1.22-1.44-2.46-1.98-3.89-1.68-.99.2-1.6.82-1.8,1.84-.23,1.15.4,1.65,1.61,2.5.23.16.46.32.68.49l1.18.9-1.43.41c-3.94,1.14-6.7-.19-7.97-3.82-.7-2.05-.59-4.19.31-5.87.73-1.37,1.9-2.3,3.39-2.69,2.13-.57,2.14-1.16,1.84-3.33-.35-2.58.41-4.98,2.16-6.76,1.88-1.91,4.62-2.8,7.54-2.45,2.25.26,4.46.95,6.59,1.63l.23.07c3.68,1.15,7.01,2.03,10.62,1l2.08-.59-1.27,1.75c-1.85,2.56-4.48,3.98-7.8,4.23-1.95.14-3.83-.21-5.64-.54l-.75-.14c-3.39-.63-5.47.14-6.56,2.43-.99,2.09-.27,3.74,1.43,5.72,2.8-4.74,5.71-5.39,11.08-2.68.09.05.18.1.27.14.09.05.23.12.31.16.02-.02.04-.05.07-.09,3.06-4.67,7.74-6.27,12.71-7.97,1.58-.54,3.21-1.09,4.82-1.76l1.68-.69-.7,1.67c-.67,1.62-1.23,3.24-1.77,4.82-1.57,4.58-3.04,8.92-7.07,12.06-.13.1-.26.19-.38.28-.65.47-.66.47-.22,1.22,1.46,2.45,1.91,4.52,1.37,6.34-.5,1.7-1.87,3.18-4.19,4.51,2.07,1.79,3.8,2.51,5.94,1.35,2.22-1.19,2.93-3.38,2.19-6.69-1.08-4.75-1.35-9.83,4-14.74l2.18-2-.96,2.8c-1.59,4.62-.43,8.32.8,12.24.37,1.17.75,2.38,1.03,3.59.5,2.09.91,4.84-.39,7.57-1.71,3.57-5.58,5.38-9.4,4.4-1.58-.4-1.65-.28-2.07,1.31-.49,1.79-1.51,3.17-2.96,4-1.54.87-3.48,1.05-5.47.49-3.81-1.06-5.33-3.95-4.28-8.12l.39-1.54.94,1.28c.13.18.26.37.39.55.97,1.39,1.54,2.09,2.82,1.72.99-.27,1.57-.94,1.67-1.95.17-1.58-.5-2.85-2.14-4.02-1.35-.97-2.97-1.22-5.11-.8-2.75.53-5.04,2.02-6.83,4.42-.76,1.02-2.18,2.9-1.97,3.5.2.58,2.38,1.15,3.55,1.45,10.01,2.57,17.18,6.52,22.55,12.42,6.41,7.03,8.95,14.96,7.56,23.58-.2,1.29-.5,2.78-1.22,4.02-2.2,3.74-2.62,7.91-1.34,13.12,1.02,4.16,1.28,8.53.8,13.34-.27,2.68-.27,5.46-.27,8.15-.01,71.15-.01,420.07,0,491.23,0,2.69,0,5.46.27,8.16.48,4.81.22,9.17-.8,13.33-1.28,5.21-.86,9.38,1.34,13.12.72,1.26,1.03,2.74,1.22,4.02,1.39,8.61-1.15,16.54-7.56,23.58-5.37,5.89-12.53,9.83-22.55,12.42-1.17.3-3.35.86-3.55,1.44-.21.6,1.21,2.49,1.97,3.51,1.79,2.39,4.09,3.88,6.84,4.42,2.13.42,3.75.16,5.11-.81,1.63-1.18,2.31-2.45,2.14-4.02-.11-1.01-.68-1.68-1.67-1.96-1.29-.37-1.86.34-2.83,1.73-.13.18-.25.37-.39.55l-.94,1.29-.39-1.55c-1.05-4.17.47-7.05,4.28-8.12,1.99-.55,3.93-.38,5.47.49,1.45.82,2.47,2.2,2.96,3.99.42,1.59.5,1.7,2.07,1.3h0c3.82-.97,7.68.84,9.4,4.41,1.3,2.72.89,5.47.39,7.57-.29,1.21-.67,2.41-1.03,3.58-1.18,3.75-2.39,7.63-.8,12.24l.96,2.79-2.18-2c-5.35-4.9-5.08-9.98-4-14.74.74-3.3.02-5.49-2.19-6.68-2.15-1.16-3.88-.43-5.94,1.36,2.31,1.32,3.68,2.79,4.18,4.49.54,1.82.09,3.9-1.37,6.35-.44.74-.43.75.21,1.21.13.09.26.18.39.29,4.02,3.15,5.5,7.48,7.07,12.07.54,1.57,1.09,3.2,1.76,4.81l.7,1.67-1.67-.69c-1.62-.67-3.25-1.22-4.82-1.76-4.96-1.7-9.66-3.3-12.71-7.98-.03-.04-.05-.07-.06-.09-.08.04-.21.11-.3.16-.09.05-.19.1-.29.15-5.37,2.69-8.28,2.04-11.08-2.69-1.67,1.94-2.42,3.65-1.43,5.73,1.08,2.27,3.17,3.04,6.56,2.42l.59-.11c1.87-.35,3.79-.71,5.8-.57,3.33.24,5.95,1.65,7.8,4.22l1.26,1.74-2.07-.58c-3.62-1.02-6.95-.15-10.62,1l-.24.08c-2.13.67-4.33,1.36-6.58,1.63-2.92.35-5.66-.54-7.54-2.45-1.75-1.78-2.52-4.18-2.16-6.76.3-2.17.29-2.76-1.84-3.32-1.49-.4-2.66-1.33-3.39-2.7-.9-1.68-1.01-3.82-.31-5.87,1.27-3.63,4.02-4.94,7.97-3.82l1.45.41-1.2.91c-.22.16-.44.32-.67.47-1.22.85-1.85,1.35-1.62,2.5.2,1.02.81,1.64,1.81,1.84,1.43.29,2.67-.25,3.89-1.67.96-1.12,1.38-2.45,1.29-4.06-.22-3.84-2.07-6.8-5.66-9.06-.82-.52-2.35-1.48-2.68-1.34-.32.13-.73,1.83-.95,2.75-2.77,11.28-6.93,18.72-13.48,24.14-9.66,8.01-19.2,9.5-29.18,4.56-1.6-.8-4.03-1.6-6.53-.93-6.5,1.75-13.11,1.54-19.51,1.34-2.04-.06-4.15-.13-6.22-.13-24.69-.01-49.38-.02-74.07-.02h-38.08c-.15-.03-.28-.04-.42-.04h-3.21c-11.78.01-23.56.02-35.34.02l-62.27-.03c-.17,0-.37.02-.58.04h-2.59c-36.48.01-72.94.01-109.41.02-2.69,0-5.46,0-8.15.27-4.82.48-9.18.22-13.33-.8-5.22-1.28-9.39-.86-13.13,1.34-1.21.71-2.65,1.01-4.02,1.23-8.62,1.39-16.55-1.16-23.58-7.57-5.9-5.37-9.85-12.53-12.42-22.55-.3-1.17-.87-3.34-1.45-3.55-.6-.21-2.49,1.21-3.5,1.97-2.39,1.79-3.88,4.09-4.42,6.85-.42,2.13-.16,3.75.8,5.1,1.17,1.64,2.45,2.31,4.02,2.14,1.01-.11,1.68-.69,1.95-1.67.37-1.29-.34-1.86-1.73-2.83-.18-.13-.37-.26-.55-.39l-1.29-.94,1.55-.39c4.18-1.05,7.06.47,8.12,4.28.56,1.99.38,3.93-.49,5.47-.82,1.45-2.2,2.47-3.99,2.96-1.59.43-1.71.5-1.31,2.07.97,3.81-.85,7.68-4.41,9.4-1.36.69-2.72.92-4,.92Zm-14.86-4.59c2.93,0,5.57.83,8.16,1.64,1.2.38,2.33.73,3.49,1.01,2.79.67,4.75.58,6.56-.29,2.91-1.41,4.4-4.56,3.61-7.68-.65-2.59.25-3.32,2.37-3.89,1.39-.38,2.46-1.16,3.08-2.25.67-1.19.8-2.72.35-4.32-.69-2.48-2.21-3.63-4.6-3.5,1.04.84,1.91,1.95,1.38,3.78-.43,1.57-1.61,2.58-3.23,2.76-2.11.23-3.92-.7-5.4-2.76-1.21-1.69-1.55-3.73-1.06-6.26.62-3.13,2.3-5.75,5-7.76,2.14-1.61,3.63-2.63,4.9-2.19,1.25.44,1.76,2.1,2.41,4.59,2.5,9.72,6.3,16.65,11.98,21.81,6.67,6.08,14.19,8.51,22.33,7.2,1.23-.2,2.5-.47,3.5-1.05,4.1-2.4,8.63-2.88,14.25-1.5,3.98.97,8.18,1.22,12.83.76,2.76-.27,5.57-.27,8.29-.27,36.47-.01,72.93-.01,109.41-.01h2.5c.18-.03.44-.05.67-.05l62.27.03c11.78,0,23.56-.01,35.34-.02h3.21c.19,0,.38.01.59.04h37.91l74.07.03c2.09,0,4.22.07,6.27.13,6.29.19,12.79.39,19.08-1.29,2.95-.8,5.76.12,7.59,1.03,9.39,4.64,18.4,3.21,27.56-4.38,6.29-5.2,10.29-12.4,12.98-23.34.54-2.21.86-3.39,1.85-3.79.99-.4,2.12.26,4.04,1.46,3.97,2.5,6.11,5.94,6.36,10.24.12,1.98-.44,3.71-1.65,5.12-1.59,1.86-3.33,2.57-5.33,2.17-1.6-.33-2.65-1.4-2.98-3.02-.34-1.71.5-2.71,1.46-3.46-2.22-.2-3.68.84-4.5,3.18-.57,1.65-.49,3.36.21,4.67.53.99,1.38,1.67,2.45,1.96,3.26.86,3.28,2.53,2.94,4.98-.29,2.11.33,4.07,1.75,5.51,1.55,1.57,3.84,2.31,6.29,2.01,2.11-.25,4.24-.92,6.3-1.57l.24-.08c3.04-.95,6.05-1.77,9.21-1.45-1.4-1.2-3.14-1.86-5.24-2.01-1.81-.13-3.56.2-5.42.55l-.59.11c-4.11.75-6.78-.32-8.18-3.25-1.56-3.29.22-5.87,2.38-8.17l.72-.76.49.92c2.58,4.83,4.64,5.47,9.6,2.98l.24-.13c.49-.27,1.52-.83,2.34.43,2.78,4.25,7.02,5.7,11.94,7.38,1.08.37,2.18.74,3.29,1.16-.42-1.11-.79-2.21-1.16-3.29-1.56-4.56-2.9-8.5-6.57-11.37-.12-.09-.23-.17-.34-.25-.71-.51-1.78-1.27-.63-3.2,1.23-2.08,1.63-3.76,1.22-5.16-.44-1.5-1.87-2.84-4.37-4.08l-.96-.48.78-.74c1.61-1.52,4.61-4.37,8.46-2.29,2.85,1.54,3.84,4.34,2.95,8.33-.95,4.16-.99,7.74,1.63,11.21-.54-3.81.49-7.09,1.49-10.29.38-1.19.73-2.32,1-3.48.67-2.79.58-4.76-.29-6.57-1.4-2.91-4.55-4.4-7.68-3.61-2.59.66-3.32-.23-3.89-2.36-.38-1.39-1.16-2.46-2.25-3.08-1.19-.68-2.72-.8-4.32-.35-2.48.69-3.63,2.2-3.5,4.59.84-1.04,1.96-1.91,3.79-1.38,1.57.44,2.58,1.62,2.75,3.24.24,2.12-.67,3.89-2.76,5.4-1.7,1.21-3.75,1.55-6.27,1.06-3.12-.62-5.73-2.3-7.75-5-1.61-2.14-2.63-3.64-2.19-4.91.44-1.25,2.1-1.76,4.59-2.4,9.72-2.51,16.65-6.32,21.81-11.98,6.09-6.68,8.5-14.2,7.18-22.33-.18-1.15-.44-2.47-1.04-3.51-2.4-4.09-2.88-8.62-1.5-14.23.98-3.99,1.22-8.19.76-12.83-.27-2.77-.27-5.58-.27-8.3-.01-71.16-.01-420.07,0-491.23,0-2.72,0-5.54.27-8.29.46-4.65.21-8.84-.76-12.84-1.38-5.62-.9-10.14,1.5-14.24.59-1.02.86-2.34,1.04-3.5,1.32-8.15-1.1-15.66-7.18-22.33-5.17-5.67-12.1-9.48-21.81-11.98-2.49-.65-4.16-1.16-4.59-2.41-.44-1.26.58-2.76,2.19-4.9,2.02-2.71,4.62-4.39,7.75-5,2.53-.5,4.59-.15,6.27,1.06,2.06,1.47,2.99,3.29,2.76,5.4-.17,1.62-1.18,2.8-2.76,3.23-1.82.52-2.93-.34-3.77-1.37-.11,2.37,1.06,3.91,3.5,4.59,1.6.45,3.14.32,4.32-.35,1.09-.62,1.87-1.69,2.25-3.08.57-2.12,1.29-3.02,3.89-2.37,3.13.79,6.28-.69,7.68-3.6.87-1.82.95-3.78.29-6.57-.28-1.16-.63-2.29-1.01-3.49-1-3.2-2.03-6.48-1.49-10.29-2.62,3.48-2.57,7.06-1.63,11.21.9,4-.09,6.8-2.95,8.34-3.84,2.07-6.85-.76-8.46-2.28l-.78-.74.96-.48c2.5-1.25,3.93-2.59,4.38-4.1.41-1.4.01-3.08-1.22-5.15-1.15-1.93-.08-2.7.63-3.21.11-.08.22-.16.33-.24,3.67-2.87,5.02-6.8,6.57-11.36.37-1.08.74-2.18,1.16-3.29-1.11.42-2.22.79-3.29,1.16-4.92,1.68-9.16,3.13-11.94,7.37-.83,1.26-1.86.7-2.35.43l-.23-.12c-4.96-2.5-7.02-1.86-9.6,2.97l-.49.92-.72-.76c-1.45-1.54-4.15-4.42-2.38-8.15,1.39-2.91,4.15-4.01,8.18-3.26l.75.14c1.8.33,3.5.65,5.26.52,2.1-.15,3.83-.82,5.23-2.01-3.12.33-6.05-.47-9.2-1.46l-.23-.07c-2.07-.65-4.2-1.33-6.31-1.57-2.46-.29-4.75.44-6.3,2.01-1.41,1.44-2.03,3.39-1.74,5.5.34,2.44.32,4.11-2.94,4.99-1.07.28-1.92.96-2.45,1.95-.69,1.3-.77,3.05-.22,4.67.81,2.31,2.29,3.36,4.5,3.19-.96-.75-1.81-1.76-1.46-3.47.32-1.62,1.38-2.69,2.97-3.02,2-.4,3.74.31,5.33,2.18,1.21,1.4,1.76,3.12,1.65,5.11-.25,4.3-2.39,7.74-6.36,10.24-1.92,1.2-3.05,1.86-4.04,1.46-.98-.4-1.32-1.63-1.85-3.78-2.69-10.94-6.69-18.14-12.98-23.35-9.15-7.59-18.17-9.01-27.56-4.37-1.84.91-4.65,1.83-7.59,1.03-6.3-1.7-12.82-1.49-19.13-1.3-2.03.06-4.14.13-6.21.13-35.52.02-287.3.02-325.96.01-2.72,0-5.54,0-8.3-.28-4.64-.46-8.84-.21-12.83.76-5.63,1.38-10.15.91-14.25-1.49-.98-.58-2.26-.85-3.5-1.05-8.14-1.3-15.65,1.12-22.32,7.2-5.68,5.18-9.48,12.11-11.98,21.81-.65,2.49-1.16,4.16-2.41,4.6-1.26.45-2.76-.58-4.9-2.18-2.7-2.02-4.38-4.63-5-7.75-.5-2.54-.15-4.59,1.06-6.27,1.48-2.06,3.3-2.99,5.4-2.76,1.62.17,2.8,1.18,3.23,2.77.53,1.82-.34,2.93-1.38,3.77,2.39.12,3.9-1.02,4.59-3.5.45-1.6.32-3.13-.35-4.32-.62-1.1-1.69-1.88-3.08-2.25-2.12-.57-3.02-1.29-2.37-3.88.79-3.12-.69-6.28-3.61-7.68-1.82-.88-3.78-.97-6.56-.29-1.16.28-2.29.63-3.48,1-3.2,1-6.48,2.03-10.3,1.48,3.47,2.61,7.06,2.57,11.22,1.64,3.98-.91,6.78.08,8.33,2.94,1.91,3.53-.18,6.22-2.28,8.47l-.74.79-.48-.97c-1.25-2.51-2.58-3.94-4.08-4.38-1.4-.41-3.08-.01-5.16,1.23-1.93,1.15-2.7.08-3.2-.63-.08-.11-.15-.22-.24-.33-2.88-3.68-7.01-5.09-11.39-6.58-1.07-.37-2.16-.74-3.27-1.15.42,1.11.79,2.21,1.16,3.29,1.68,4.92,3.13,9.17,7.37,11.94,1.27.84.7,1.89.42,2.39l-.11.21c-2.49,4.95-1.85,7.01,2.98,9.59l.92.49-.76.72c-2.3,2.16-4.88,3.94-8.16,2.37-2.91-1.38-4-4.14-3.25-8.18l.14-.75c.33-1.8.65-3.5.52-5.25-.15-2.1-.82-3.84-2.02-5.25.32,3.16-.49,6.17-1.45,9.21l-.07.23c-.65,2.06-1.32,4.2-1.57,6.32-.29,2.45.44,4.74,2.01,6.28,1.44,1.42,3.4,2.04,5.51,1.75,2.45-.34,4.11-.32,4.98,2.94.28,1.07.96,1.92,1.95,2.45,1.3.69,3.05.77,4.68.21,2.31-.8,3.36-2.28,3.18-4.5-.75.96-1.75,1.81-3.46,1.46-1.62-.32-2.7-1.38-3.01-2.98-.4-1.97.33-3.76,2.17-5.33,1.4-1.21,3.12-1.76,5.12-1.65,4.29.26,7.74,2.4,10.23,6.37,1.2,1.91,1.86,3.04,1.46,4.04-.4.98-1.63,1.33-3.78,1.85-10.94,2.69-18.15,6.69-23.35,12.97-7.58,9.16-9.01,18.18-4.37,27.57,1.3,2.64,1.66,5.26,1.03,7.58-1.69,6.31-1.49,12.83-1.29,19.15.06,2.03.13,4.13.13,6.2.02,34.76.02,69.51.03,104.27s.01,69.51.03,104.27v4.85c-.02,36.17-.02,88.07-.03,139.65,0,51.79-.01,103.25-.03,138.09,0,2.07-.07,4.17-.13,6.2-.2,6.31-.4,12.84,1.29,19.15.79,2.93-.12,5.75-1.03,7.59-4.65,9.39-3.22,18.41,4.36,27.56,5.21,6.29,12.41,10.29,23.35,12.98,2.21.54,3.38.87,3.78,1.85.4.99-.26,2.12-1.46,4.03-2.51,3.97-5.95,6.11-10.23,6.36-1.99.11-3.72-.44-5.12-1.65-1.83-1.56-2.56-3.35-2.17-5.33.32-1.58,1.39-2.64,3.01-2.98,1.71-.34,2.71.51,3.47,1.46.18-2.22-.87-3.7-3.18-4.49-1.64-.57-3.39-.49-4.68.21-.99.53-1.67,1.38-1.95,2.45-.86,3.25-2.53,3.28-4.97,2.95-2.12-.29-4.07.33-5.51,1.74-1.57,1.54-2.31,3.83-2.01,6.28.24,2.12.92,4.26,1.57,6.32l.07.23c.96,3.04,1.77,6.05,1.45,9.21,1.2-1.4,1.87-3.14,2.02-5.24.12-1.76-.19-3.46-.52-5.26l-.14-.75c-.76-4.09.31-6.77,3.26-8.17,3.28-1.57,5.86.21,8.16,2.37l.76.72-.92.49c-4.83,2.57-5.46,4.63-2.97,9.6l.11.19c.28.5.86,1.55-.42,2.39-4.24,2.78-5.69,7.03-7.37,11.94-.37,1.07-.74,2.17-1.16,3.28,1.1-.41,2.2-.79,3.27-1.15,4.38-1.49,8.51-2.9,11.39-6.58.09-.11.17-.23.25-.33.51-.7,1.27-1.77,3.2-.62,2.07,1.23,3.76,1.63,5.16,1.22,1.5-.44,2.84-1.87,4.08-4.37l.48-.96.74.78c1.52,1.62,4.36,4.63,2.28,8.46-1.53,2.85-4.33,3.84-8.32,2.94-4.16-.95-7.74-.99-11.22,1.63.68-.12,1.4-.17,2.09-.17Zm523.25-8.72h0Zm-528.84-8.73h0ZM13.29,22.04h0Zm60.36,703.12c-3.78,0-7.45-1.2-10.95-3.61-9.44-6.49-14.4-15.68-14.75-27.31-.04-1.42.02-2.84.07-4.22.06-1.42.11-2.89.06-4.32-.11-3.25-1.12-4.27-4.32-4.39-1.43-.05-2.91,0-4.34.06-1.27.05-2.58.1-3.87.07-11.58-.2-20.83-5.05-27.49-14.42-3.78-5.32-4.75-11.12-2.88-17.23.7-2.32,1.83-4.04,3.47-5.25,1.65-1.22,3.33-1.27,4.85-.15,1.31.94,1.8,2.25,1.39,3.67-.56,1.89-2.02,2.79-4.11,2.55-.15-.02-.3-.03-.45-.04.04.1.09.18.15.26.19.23.45.34.63.34,1.46.06,2.45.43,3.04,1.13.89,1.06.68,2.58.46,4.2-.45,3.35.83,6.35,3.81,8.92,1.4,1.2,2.83,2.35,4.35,3.57.38.31.77.62,1.16.93-.12-1.94-.95-3.65-2.47-5.11-3.67-3.5-4.81-7.87-3.59-13.74,1.53-7.24.46-8.92-6.75-10.58-.49-.11-1.17-.33-1.49-.91-.32-.58-.1-1.18.08-1.66l.08-.21c1.32-3.85.87-7.81-1.33-11.78-2.38-4.29-3.48-9.12-3.46-15.22.1-71.25.08-209.8.02-278.33v-4.6c.07-84.36.07-148.86-.02-209.12-.01-6.09,1.09-10.92,3.46-15.21,2.2-3.96,2.65-7.92,1.33-11.77l-.07-.21c-.18-.49-.4-1.09-.08-1.67s1-.8,1.48-.91c7.22-1.66,8.29-3.34,6.75-10.57-1.23-5.87-.09-10.24,3.59-13.74,1.53-1.45,2.35-3.17,2.47-5.11-.36.29-.71.57-1.06.85-1.55,1.25-3.01,2.42-4.45,3.66-2.98,2.56-4.26,5.56-3.81,8.91.22,1.62.43,3.15-.46,4.21-.59.7-1.58,1.07-3.03,1.12-.18.01-.45.12-.64.35-.06.08-.11.16-.15.26.15-.01.3-.02.45-.04,2.09-.24,3.55.65,4.11,2.53.41,1.43-.08,2.74-1.39,3.68-1.52,1.11-3.19,1.06-4.84-.14-1.64-1.21-2.77-2.93-3.47-5.26-1.87-6.12-.9-11.92,2.88-17.24,6.66-9.37,15.91-14.22,27.49-14.42,1.25-.02,2.53.03,3.76.08,1.47.05,2.99.11,4.46.05,3.2-.12,4.21-1.14,4.32-4.38.05-1.43,0-2.91-.06-4.33-.05-1.38-.11-2.81-.07-4.22.35-11.64,5.31-20.82,14.74-27.3,5.52-3.79,11.44-4.6,17.62-2.41,2.55.89,4.24,2.29,5.14,4.26.67,1.43.4,2.96-.74,4.18-1,1.05-2.23,1.41-3.46,1-1.57-.52-2.44-1.7-2.51-3.39-.01-.3.04-.57.09-.82.02-.11.04-.19.05-.27-.68.43-1.03,1.11-1.07,2.06-.03.72-.15,1.61-.8,2.12-.68.53-1.62.39-2.59.19-4.2-.88-7.8.44-10.69,3.93-1.21,1.45-2.39,2.92-3.65,4.48l-.62.77c1.98-.19,3.51-.89,4.65-2.11,3.96-4.19,8.91-5.35,15.57-3.64,4.26,1.08,7.32-.24,8.63-3.71.34-.89.49-1.86.67-2.98.09-.54.18-1.1.29-1.69l.18-.94.87.4c5.28,2.44,10.04.98,15.57-1.98,2.94-1.58,6.19-2.29,10.52-2.29,37.35.03,115.35,0,115.35,0,7.26,0,177.73.03,213.72-.02h.1c6.05,0,10.85,1.1,15.12,3.46,3.98,2.19,7.94,2.64,11.78,1.33l.22-.08c.48-.17,1.08-.39,1.65-.08.58.31.8,1,.91,1.49,1.66,7.21,3.33,8.29,10.57,6.75,5.86-1.24,10.23-.1,13.74,3.59,1.46,1.53,3.17,2.35,5.11,2.47-.35-.43-.69-.85-1.03-1.27-1.18-1.47-2.3-2.86-3.48-4.23-2.56-2.99-5.56-4.27-8.92-3.81-1.61.22-3.14.43-4.2-.46-.71-.59-1.08-1.58-1.13-3.03-.01-.19-.11-.46-.34-.64-.08-.06-.17-.12-.26-.15.01.15.02.3.04.45.23,2.08-.67,3.54-2.54,4.1-1.42.41-2.73-.08-3.68-1.39-1.11-1.5-1.05-3.22.16-4.84,1.2-1.64,2.92-2.78,5.25-3.48,6.11-1.87,11.91-.9,17.23,2.88,9.37,6.66,14.22,15.91,14.42,27.49.02,1.26-.03,2.52-.08,3.75-.06,1.47-.11,2.99-.05,4.46.12,3.21,1.14,4.21,4.38,4.32,1.44.05,2.91,0,4.33-.06,1.38-.05,2.81-.11,4.22-.07,11.63.35,20.82,5.31,27.3,14.75,3.8,5.52,4.61,11.45,2.42,17.62-.91,2.56-2.31,4.24-4.27,5.14-1.45.66-2.97.39-4.18-.74-1.05-.99-1.4-2.22-.99-3.46.51-1.58,1.69-2.45,3.38-2.51.29-.01.57.04.82.09.1.02.19.04.26.05-.43-.69-1.11-1.04-2.04-1.07-.73-.03-1.62-.15-2.13-.8-.53-.69-.4-1.62-.19-2.59.88-4.21-.44-7.81-3.93-10.69-1.43-1.19-2.88-2.36-4.41-3.59l-.84-.68c.19,1.98.88,3.51,2.11,4.66,4.19,3.95,5.35,8.89,3.65,15.56-1.09,4.26.22,7.33,3.7,8.64.86.33,1.81.48,2.9.65.57.09,1.16.19,1.78.31l.93.19-.4.86c-2.44,5.29-.97,10.05,1.98,15.57,1.56,2.89,2.29,6.24,2.29,10.52-.05,71.92-.05,424.6,0,496.54,0,4.34-.71,7.58-2.29,10.53-2.56,4.77-4.56,9.96-1.98,15.56l.4.86-.93.19c-.61.12-1.19.22-1.75.31-1.11.18-2.06.34-2.93.67-3.48,1.3-4.79,4.37-3.7,8.63,1.7,6.68.54,11.62-3.65,15.56-1.22,1.15-1.92,2.68-2.11,4.65.34-.27.68-.55,1.01-.81,1.46-1.18,2.86-2.3,4.23-3.44,3.49-2.89,4.81-6.49,3.93-10.7-.2-.98-.34-1.91.19-2.59.51-.65,1.41-.77,2.13-.79.94-.04,1.61-.4,2.04-1.08-.08.01-.17.03-.28.05-.24.05-.5.1-.8.09-1.71-.08-2.88-.95-3.39-2.52-.41-1.25-.06-2.48.99-3.46,1.22-1.14,2.74-1.41,4.18-.74,1.96.89,3.36,2.57,4.27,5.14,2.19,6.17,1.38,12.09-2.42,17.61-6.47,9.43-15.66,14.39-27.3,14.74-1.43.04-2.88-.01-4.28-.07-1.41-.05-2.86-.11-4.27-.06h0c-3.24.12-4.26,1.13-4.38,4.33-.06,1.48,0,3,.05,4.46.05,1.22.09,2.49.08,3.74-.19,11.58-5.04,20.83-14.42,27.5-5.32,3.77-11.11,4.73-17.23,2.88-2.33-.71-4.05-1.85-5.25-3.48-1.21-1.62-1.26-3.34-.15-4.84.95-1.32,2.26-1.81,3.68-1.38,1.87.55,2.77,2.01,2.54,4.1-.02.15-.03.3-.04.45.09-.04.18-.09.26-.15.23-.19.34-.46.35-.63.06-1.46.43-2.45,1.13-3.04,1.05-.89,2.58-.68,4.2-.46,3.37.45,6.36-.83,8.92-3.81,1.22-1.42,2.39-2.88,3.63-4.42.29-.36.58-.72.87-1.08-1.95.12-3.66.94-5.11,2.46-3.52,3.69-7.89,4.83-13.74,3.59-7.24-1.53-8.92-.46-10.57,6.75-.11.49-.33,1.18-.91,1.49-.58.32-1.18.1-1.66-.08l-.21-.08c-3.85-1.32-7.81-.87-11.78,1.33-4.27,2.36-9.08,3.45-15.11,3.45h-.1c-38.58-.05-77.18-.06-109.85-.06h-2.51c-.21.03-.44.05-.69.05h-100.68c-.19,0-.4-.02-.63-.05h-2.65c-37.35,0-74.71.01-112.07.04-4.27,0-7.62-.72-10.52-2.28-5.52-2.96-10.29-4.44-15.57-1.99l-.87.4-.19-.94c-.12-.59-.21-1.15-.29-1.69-.18-1.12-.34-2.09-.67-2.98-1.31-3.47-4.37-4.79-8.63-3.71-6.67,1.71-11.62.55-15.57-3.64-1.15-1.22-2.68-1.92-4.65-2.11l.77.95c1.2,1.49,2.34,2.91,3.5,4.3,2.89,3.48,6.49,4.8,10.69,3.92.97-.2,1.91-.34,2.59.19.65.51.77,1.41.8,2.13.04.94.39,1.62,1.07,2.05-.01-.07-.03-.16-.05-.26-.05-.25-.1-.53-.09-.83.07-1.7.94-2.87,2.52-3.38,1.24-.41,2.47-.06,3.46.99,1.14,1.22,1.41,2.75.75,4.19-.91,1.97-2.59,3.36-5.14,4.25-2.27.86-4.5,1.26-6.68,1.26Zm-31.11-45.36c.43,0,.85.01,1.28.02,3.96.14,5.63,1.83,5.76,5.83.05,1.48,0,2.98-.06,4.43-.05,1.36-.11,2.76-.07,4.12.33,11.12,5.08,19.91,14.1,26.11,5.11,3.5,10.58,4.25,16.26,2.22,2.16-.75,3.55-1.89,4.28-3.47.42-.9.26-1.75-.48-2.53-.59-.62-1.21-.82-1.9-.59-.98.32-1.44.94-1.49,2.02-.01.12.03.29.06.47.1.52.27,1.38-.47,2.11l-.33.32-.44-.15c-1.7-.57-2.68-1.89-2.76-3.72-.04-.82-.19-.99-.23-1.01-.13-.1-.59-.07-1.36.09-4.72.99-8.92-.55-12.15-4.43-1.16-1.41-2.31-2.83-3.51-4.32l-2.75-3.4,1.52-.04c3.2-.08,5.62.77,7.38,2.63,3.58,3.8,7.94,4.79,14.11,3.22,4.95-1.26,8.84.47,10.41,4.63.39,1.03.56,2.12.75,3.27.04.24.08.48.12.73,5.84-2.28,11.15-.21,16.02,2.41,2.72,1.45,5.75,2.1,9.82,2.1,37.36-.03,74.72-.04,112.07-.04h2.81c.17.03.33.05.47.05l48.04-.03,52.63.03c.15,0,.32-.01.5-.04h.13s2.57-.01,2.57-.01c32.67,0,71.26.01,109.85.06h.1c5.85,0,10.29-1.01,14.38-3.27,4.35-2.41,8.73-2.89,13-1.43l.24.08c.13.05.33.12.43.14.04-.06.1-.2.16-.48,1.85-8.05,4.27-9.6,12.35-7.88,5.29,1.13,9.21.12,12.34-3.15,2.14-2.25,4.78-3.21,7.82-2.88l1.37.15-.87,1.07c-.62.76-1.23,1.51-1.82,2.25-1.25,1.55-2.42,3.01-3.66,4.45-2.87,3.35-6.42,4.84-10.26,4.32-1.34-.18-2.49-.34-3.03.12-.36.3-.56.95-.6,1.94-.02.65-.35,1.3-.9,1.75-.58.47-1.33.66-2.13.51l-.66-.12.07-1.1c.02-.32.03-.62.07-.93.15-1.38-.3-2.15-1.48-2.49-.8-.24-1.46.03-2.04.83-.73.99-.68,1.96.14,3.06,1.01,1.37,2.48,2.33,4.49,2.94,5.65,1.72,11.01.82,15.93-2.67,8.96-6.38,13.6-15.22,13.78-26.3.02-1.21-.03-2.46-.08-3.66-.06-1.49-.12-3.04-.05-4.58.14-3.95,1.83-5.63,5.82-5.77h0c1.47-.05,2.95.01,4.39.06,1.37.05,2.8.11,4.18.07,11.14-.33,19.92-5.08,26.11-14.09,3.51-5.1,4.26-10.57,2.24-16.25-.77-2.16-1.91-3.56-3.48-4.28-.9-.42-1.75-.26-2.53.47-.63.59-.82,1.21-.59,1.9.32.98.95,1.44,2.02,1.49.09,0,.27-.03.45-.07.52-.1,1.39-.28,2.13.46l.33.33-.15.44c-.57,1.71-1.89,2.69-3.72,2.77-.82.03-.99.19-1.01.22-.1.13-.07.58.09,1.36.99,4.73-.55,8.93-4.45,12.16-1.38,1.15-2.78,2.27-4.25,3.46-.74.59-1.5,1.2-2.28,1.84l-1.18.96-.04-1.52c-.09-3.22.77-5.63,2.63-7.38,3.8-3.57,4.8-7.92,3.23-14.1-1.27-4.96.46-8.85,4.62-10.41,1.01-.38,2.08-.56,3.21-.74.25-.04.52-.08.78-.13-2.28-5.85-.21-11.15,2.39-16.02,1.46-2.71,2.11-5.74,2.11-9.82-.05-71.94-.05-424.62,0-496.54,0-4.08-.65-7.11-2.11-9.81-2.61-4.88-4.67-10.18-2.4-16.03-.28-.05-.54-.09-.81-.13-1.13-.18-2.19-.35-3.19-.73-4.16-1.57-5.89-5.46-4.62-10.42,1.57-6.17.57-10.52-3.23-14.1-1.86-1.75-2.72-4.16-2.62-7.38l.04-1.52,3.29,2.66c1.53,1.23,2.99,2.41,4.42,3.61,3.89,3.21,5.43,7.42,4.44,12.15-.16.77-.19,1.23-.09,1.36.02.03.19.19,1.01.23,1.83.07,3.15,1.05,3.72,2.77l.15.44-.33.33c-.73.73-1.6.56-2.11.45-.18-.04-.35-.06-.46-.06-1.08.04-1.7.5-2.02,1.48-.23.69-.03,1.31.59,1.9.77.73,1.62.89,2.52.47,1.58-.72,2.72-2.12,3.49-4.28,2.02-5.69,1.27-11.16-2.24-16.26-6.19-9.02-14.98-13.76-26.1-14.1-1.37-.04-2.77.02-4.12.07-1.45.06-2.95.11-4.44.06-3.99-.13-5.68-1.8-5.82-5.76-.06-1.53,0-3.08.05-4.58.05-1.21.09-2.45.08-3.67-.19-11.08-4.82-19.92-13.78-26.29-4.92-3.5-10.28-4.39-15.93-2.66-2.01.6-3.48,1.56-4.49,2.94-.83,1.11-.88,2.08-.15,3.06.58.8,1.25,1.07,2.05.84,1.17-.35,1.63-1.12,1.47-2.5-.04-.31-.05-.61-.07-.92l-.07-1.1.66-.12c.81-.14,1.56.04,2.14.51.54.44.88,1.1.89,1.76.04.98.24,1.63.6,1.93.55.46,1.7.3,3.03.12,3.85-.52,7.39.97,10.26,4.32,1.19,1.38,2.31,2.78,3.51,4.26.64.8,1.3,1.61,1.97,2.44l.87,1.06-1.37.16c-3.03.35-5.67-.62-7.82-2.88-3.12-3.27-7.04-4.27-12.34-3.15-8.08,1.71-10.5.16-12.35-7.89-.06-.27-.12-.41-.16-.48-.11.02-.29.09-.43.14l-.25.09c-4.26,1.46-8.63.98-13-1.43-4.09-2.27-8.53-3.28-14.39-3.28h-.1c-36,.05-206.47.02-213.71.02-.02,0-78.02.03-115.37,0-4.07,0-7.1.65-9.81,2.11-4.88,2.61-10.19,4.68-16.02,2.4l-.12.72c-.19,1.16-.36,2.25-.75,3.28-1.57,4.16-5.46,5.89-10.41,4.63-6.17-1.58-10.52-.58-14.11,3.22-1.75,1.86-4.17,2.72-7.38,2.62l-1.52-.04,2.6-3.21c1.26-1.56,2.45-3.04,3.66-4.49,3.23-3.9,7.43-5.43,12.15-4.44.78.16,1.24.19,1.36.1.03-.02.19-.19.22-1,.08-1.84,1.06-3.16,2.76-3.73l.44-.15.33.33c.74.74.57,1.6.46,2.12-.04.18-.07.34-.06.46.05,1.08.51,1.7,1.49,2.03.68.23,1.3.03,1.9-.6.73-.78.89-1.63.47-2.52-.73-1.59-2.13-2.73-4.28-3.48-5.7-2.03-11.17-1.27-16.27,2.23-9.02,6.19-13.76,14.98-14.1,26.1-.04,1.36.02,2.77.07,4.12.06,1.45.11,2.95.06,4.44-.13,3.99-1.8,5.68-5.76,5.82-1.53.06-3.07,0-4.57-.05-1.21-.05-2.46-.09-3.68-.08-11.07.19-19.92,4.82-26.29,13.78-3.5,4.92-4.39,10.28-2.66,15.94.61,2.01,1.56,3.48,2.93,4.49,1.11.81,2.09.86,3.07.14,1.06-.76.98-1.53.83-2.05-.35-1.17-1.12-1.63-2.49-1.46-.26.03-.52.04-.78.06-.18.01-.37.02-.56.04l-.69.06-.12-.68c-.14-.8.04-1.55.5-2.13.44-.55,1.1-.89,1.76-.91.99-.04,1.64-.23,1.94-.59.46-.54.3-1.7.12-3.04-.52-3.84.98-7.38,4.31-10.25,1.45-1.25,2.92-2.44,4.49-3.69.73-.59,1.48-1.18,2.23-1.8l1.07-.87.15,1.37c.34,3.04-.63,5.67-2.89,7.82-3.26,3.11-4.26,7.03-3.15,12.34,1.71,8.07.16,10.5-7.89,12.34-.42.1-.52.19-.52.19.03,0,.13.25.19.42l.08.23c1.47,4.27.98,8.64-1.43,12.99-2.28,4.11-3.29,8.58-3.28,14.48.09,60.26.09,124.76.02,209.12v4.6c.06,68.53.08,207.07-.02,278.33-.01,5.91,1,10.37,3.28,14.49,2.41,4.35,2.9,8.73,1.43,13l-.09.24c-.05.13-.12.33-.14.44.06.04.2.1.48.16,8.05,1.85,9.6,4.27,7.88,12.35-1.11,5.31-.11,9.23,3.15,12.34,2.25,2.15,3.23,4.78,2.89,7.82l-.15,1.37-1.07-.87c-.79-.64-1.56-1.26-2.33-1.88-1.53-1.23-2.97-2.38-4.39-3.6-3.34-2.88-4.83-6.43-4.31-10.26.18-1.34.34-2.49-.12-3.04-.3-.36-.95-.56-1.94-.6-.65-.02-1.3-.35-1.75-.89-.47-.58-.65-1.34-.51-2.14l.12-.66,1.1.07c.32.02.63.03.93.07,1.37.16,2.14-.29,2.49-1.48.23-.8-.04-1.47-.83-2.04-.99-.72-1.96-.68-3.08.14-1.37,1.01-2.33,2.48-2.93,4.48-1.73,5.65-.83,11.01,2.66,15.93,6.37,8.96,15.21,13.6,26.29,13.79,1.25.02,2.54-.03,3.79-.07,1.13-.06,2.19-.1,3.26-.1Zm-17.81,33.26c-.53,0-.97-.12-1.31-.27-1.12-.48-1.96-1.6-2.38-3.14-.22-.79-.56-.93-1.31-1.21-.16-.06-.33-.13-.51-.2-1.62-.7-2.68-2.04-2.83-3.58-.14-1.37.47-2.63,1.65-3.46,1.96-1.35,3.54-.36,4.83.54.02-.54-.13-1.02-.36-1.55-.39-.91-.21-1.47.01-1.77.21-.29.63-.61,1.48-.54,1.65.16,3.28-.25,5.01-.67,1.09-.27,2.22-.55,3.45-.72l1.43-.2-.66,1.28c-1.47,2.85-1.63,5.58-1.81,8.46l-.07,1.19-.78-.08c-.6-.06-1.14-.23-1.62-.37-.55-.17-.96-.31-1.34-.28,1.05,1.29,1.46,2.49,1.25,3.59-.19.98-.87,1.78-2.01,2.4-.82.43-1.53.58-2.12.58Zm-4.73-11.02c-.35,0-.7.12-1.1.4-.73.51-1.1,1.26-1.02,2.07.1.99.82,1.87,1.94,2.35.15.07.3.12.45.18.84.32,1.8.69,2.22,2.22.3,1.09.84,1.86,1.53,2.16.6.26,1.31.17,2.12-.26.73-.39,1.15-.85,1.25-1.36.16-.82-.46-1.78-1.01-2.44-.21-.24-.32-.52-.41-.75-.03-.08-.06-.16-.1-.24l-.32-.64.62-.35c1.18-.67,2.27-.34,3.22-.05.19.06.38.11.57.17.15-2.36.35-4.79,1.34-7.29-.66.14-1.3.3-1.92.45-1.85.46-3.61.89-5.51.71h-.06c.02.06.04.13.08.22.41.93.75,2.09.19,3.65l-.32.88-.79-.51c-.27-.17-.53-.35-.78-.53-.93-.63-1.56-1.04-2.19-1.04Zm519.05,10.99c-1.22,0-2.35-.61-3.09-1.67-1.35-1.95-.36-3.54.54-4.83-.54-.02-1.02.13-1.55.37-.9.4-1.46.21-1.77-.01-.29-.21-.62-.63-.54-1.48.16-1.64-.25-3.28-.67-5-.27-1.1-.55-2.23-.72-3.47l-.2-1.43,1.28.66c2.87,1.47,5.61,1.65,8.52,1.83l1.14.07-.08.78c-.06.6-.22,1.14-.37,1.62-.17.55-.28.97-.28,1.35,1.29-1.04,2.5-1.46,3.59-1.25.97.19,1.78.86,2.39,2,.82,1.54.63,2.72.31,3.43-.49,1.12-1.6,1.96-3.14,2.37h0c-.8.22-.93.56-1.22,1.32-.06.16-.13.33-.2.51-.7,1.62-2.04,2.68-3.59,2.84-.11-.02-.23-.01-.35-.01Zm-2.63-8.01c.48,0,1.01.08,1.59.29l.89.32-.51.79c-.17.26-.35.52-.52.77-1,1.43-1.45,2.17-.67,3.31.5.73,1.25,1.09,2.07,1.02,1-.1,1.88-.82,2.36-1.94.07-.15.12-.3.18-.45.32-.85.69-1.81,2.22-2.23h0c1.09-.29,1.85-.83,2.15-1.52.26-.6.17-1.32-.26-2.13-.39-.72-.84-1.14-1.35-1.24-.82-.16-1.79.46-2.45,1.01-.25.21-.52.32-.74.41-.08.03-.16.07-.24.1l-.64.32-.35-.63c-.65-1.19-.33-2.27-.04-3.22.06-.19.11-.38.16-.57-2.36-.15-4.79-.36-7.29-1.35.14.66.3,1.31.45,1.94.46,1.85.89,3.61.71,5.5v.06c.06-.02.13-.04.22-.08.58-.25,1.25-.48,2.06-.48Zm-5.37-671.1l.2-1.43c.17-1.24.45-2.37.72-3.47.43-1.72.83-3.35.67-4.99h0c-.08-.85.25-1.28.55-1.49.32-.22.88-.4,1.77,0,.53.23,1.01.36,1.55.35-.9-1.29-1.89-2.88-.54-4.82.81-1.17,2.1-1.79,3.46-1.66,1.54.15,2.88,1.22,3.58,2.84.07.17.14.34.2.5.29.75.42,1.09,1.22,1.31,1.54.41,2.65,1.25,3.14,2.37.31.72.51,1.89-.31,3.43-.61,1.14-1.42,1.82-2.39,2.01-1.09.21-2.3-.2-3.59-1.24-.01.38.11.79.28,1.34.14.48.31,1.01.37,1.61l.08.77-1.24.08c-2.87.19-5.58.36-8.41,1.82l-1.31.67Zm3.09-10.03c.18,1.89-.25,3.64-.71,5.49-.16.63-.32,1.28-.45,1.94,2.5-1,4.93-1.2,7.29-1.35-.05-.19-.1-.37-.16-.56-.29-.96-.61-2.04.04-3.23l.35-.63.64.32c.08.04.15.07.23.1.22.1.5.21.75.42.66.55,1.61,1.16,2.44,1,.51-.1.97-.52,1.36-1.24.43-.81.52-1.53.26-2.13-.3-.69-1.06-1.23-2.15-1.52-1.53-.42-1.9-1.37-2.22-2.22-.06-.15-.11-.3-.18-.45-.48-1.12-1.36-1.84-2.35-1.94-.81-.08-1.57.29-2.07,1.02-.78,1.13-.34,1.87.66,3.29.18.25.36.51.53.77l.51.79-.89.32c-1.55.56-2.72.22-3.66-.19-.09-.04-.16-.07-.22-.08,0,.03,0,.05,0,.08h0ZM33.9,33.12l-1.43-.2c-1.23-.17-2.36-.45-3.46-.72-1.73-.43-3.36-.83-5-.68h0c-.85.07-1.27-.25-1.48-.54-.22-.31-.41-.86-.01-1.77.23-.52.38-1,.36-1.55-1.29.89-2.87,1.89-4.82.55-1.18-.81-1.79-2.11-1.66-3.46.16-1.55,1.22-2.89,2.84-3.58.17-.08.34-.14.51-.21.74-.29,1.08-.43,1.3-1.21.42-1.54,1.26-2.66,2.38-3.14.71-.31,1.88-.51,3.42.31,1.15.61,1.83,1.42,2.02,2.4.21,1.1-.21,2.31-1.25,3.58.37.01.8-.11,1.36-.28.47-.14,1.01-.31,1.6-.37l.78-.08.08,1.2c.18,2.89.35,5.62,1.81,8.46l.65,1.29Zm-9.15-3.13c1.57,0,3.06.37,4.62.75.63.15,1.27.31,1.93.45-1-2.49-1.19-4.92-1.34-7.29-.19.05-.37.11-.55.16-.96.29-2.05.62-3.24-.05l-.62-.35.32-.64c.04-.08.07-.16.1-.24.09-.22.2-.5.41-.75.55-.66,1.17-1.61,1.01-2.43-.1-.52-.52-.98-1.25-1.36-.81-.43-1.52-.51-2.12-.26-.69.3-1.24,1.07-1.53,2.16-.42,1.51-1.36,1.88-2.2,2.21-.15.06-.3.12-.46.19-1.12.48-1.84,1.36-1.94,2.35-.08.81.29,1.57,1.02,2.07,1.13.78,1.86.33,3.28-.66.26-.18.52-.36.78-.53l.79-.51.32.88c.57,1.57.22,2.73-.19,3.66-.04.09-.06.16-.08.21h.06c.3,0,.59-.02.88-.02Z"/>
        </g>
        <g>
          <path class="cls-2" d="m32.57,697.23c-1.61,3.13-1.73,6.15-1.92,9.17-1.56-.16-2.75-1.13-4.12-.36.14.28.22.61.42.84,1.52,1.82,1.86,3.7-.46,4.94-2.38,1.27-4.1-.04-4.73-2.36-.38-1.39-1.25-1.48-2.24-1.91-2.71-1.17-3.22-4.22-1.05-5.73,1.91-1.32,3.25.11,4.9,1.17.45-1.24.24-2.17-.17-3.1-.32-.74-.24-1.35.74-1.26,2.83.27,5.45-.96,8.63-1.4Z"/>
          <path class="cls-2" d="m24.73,713.06c-.53,0-.97-.12-1.31-.27-1.12-.48-1.96-1.6-2.38-3.14-.22-.79-.56-.93-1.31-1.21-.16-.06-.33-.13-.51-.2-1.62-.7-2.68-2.04-2.83-3.58-.14-1.37.47-2.63,1.65-3.46,1.96-1.35,3.54-.36,4.83.54.02-.54-.13-1.02-.36-1.55-.39-.91-.21-1.47.01-1.77.21-.29.63-.61,1.48-.54,1.65.16,3.28-.25,5.01-.67,1.09-.27,2.22-.55,3.45-.72l1.43-.2-.66,1.28c-1.47,2.85-1.63,5.58-1.81,8.46l-.07,1.19-.78-.08c-.6-.06-1.14-.23-1.62-.37-.55-.17-.96-.31-1.34-.28,1.05,1.29,1.46,2.49,1.25,3.59-.19.98-.87,1.78-2.01,2.4-.82.43-1.53.58-2.12.58Zm-4.73-11.02c-.35,0-.7.12-1.1.4-.73.51-1.1,1.26-1.02,2.07.1.99.82,1.87,1.94,2.35.15.07.3.12.45.18.84.32,1.8.69,2.22,2.22.3,1.09.84,1.86,1.53,2.16.6.26,1.31.17,2.12-.26.73-.39,1.15-.85,1.25-1.36.16-.82-.46-1.78-1.01-2.44-.21-.24-.32-.52-.41-.75-.03-.08-.06-.16-.1-.24l-.32-.64.62-.35c1.18-.67,2.27-.34,3.22-.05.19.06.38.11.57.17.15-2.36.35-4.79,1.34-7.29-.66.14-1.3.3-1.92.45-1.85.46-3.6.89-5.51.71h-.06c.02.06.04.13.08.22.41.93.75,2.09.19,3.65l-.32.88-.79-.51c-.27-.17-.53-.35-.78-.53-.93-.63-1.56-1.04-2.19-1.04Z"/>
        </g>
        <g>
          <path class="cls-2" d="m30.65,23.01c.19,3.02.31,6.05,1.92,9.17-3.18-.44-5.8-1.66-8.63-1.4-.98.09-1.06-.52-.74-1.26.41-.92.62-1.86.17-3.1-1.65,1.06-2.99,2.49-4.9,1.18-2.17-1.5-1.66-4.57,1.05-5.73.99-.44,1.86-.53,2.24-1.91.63-2.32,2.35-3.63,4.73-2.37,2.32,1.24,1.98,3.13.46,4.94-.2.24-.28.56-.42.84,1.37.77,2.56-.19,4.12-.36Z"/>
          <path class="cls-2" d="m33.9,33.12l-1.43-.2c-1.23-.17-2.36-.45-3.46-.72-1.73-.43-3.36-.83-5-.68-.84.08-1.27-.25-1.48-.54-.22-.31-.41-.86-.01-1.77.23-.52.38-1,.36-1.55-1.29.89-2.87,1.89-4.82.55-1.18-.81-1.79-2.1-1.66-3.46.16-1.55,1.22-2.89,2.84-3.58.17-.08.34-.14.51-.21.74-.29,1.08-.43,1.3-1.21.42-1.54,1.26-2.66,2.38-3.14.71-.31,1.89-.51,3.42.31,1.15.61,1.83,1.42,2.02,2.4.21,1.1-.21,2.31-1.25,3.58.37.01.8-.11,1.36-.28.47-.14,1.01-.31,1.6-.37l.78-.08.08,1.2c.18,2.89.35,5.62,1.81,8.46l.65,1.29Zm-9.15-3.13c1.57,0,3.06.37,4.62.75.63.15,1.27.31,1.93.45-1-2.49-1.19-4.92-1.34-7.29-.19.05-.37.11-.55.16-.96.29-2.05.62-3.24-.05l-.62-.35.32-.64c.04-.08.07-.16.1-.24.09-.22.2-.5.41-.75.55-.66,1.17-1.61,1.01-2.43-.1-.52-.52-.98-1.25-1.36-.81-.43-1.52-.51-2.12-.26-.69.3-1.24,1.07-1.53,2.16-.42,1.51-1.36,1.88-2.2,2.21-.15.06-.3.12-.46.19-1.12.48-1.84,1.36-1.94,2.35-.08.81.29,1.57,1.02,2.07,1.13.78,1.86.33,3.28-.66.26-.18.52-.36.78-.53l.79-.51.32.88c.57,1.57.22,2.73-.19,3.66-.04.09-.06.16-.08.21h.06c.3,0,.59-.02.88-.02Z"/>
        </g>
        <g>
          <path class="cls-2" d="m546.58,702.9c1.27,2.38-.04,4.11-2.36,4.73-1.39.38-1.48,1.25-1.91,2.25-1.17,2.71-4.23,3.22-5.73,1.05-1.32-1.91.11-3.26,1.18-4.91-1.25-.45-2.18-.23-3.11.18-.73.32-1.35.24-1.26-.74.27-2.83-.96-5.45-1.4-8.64,3.13,1.61,6.15,1.74,9.17,1.93-.16,1.56-1.12,2.74-.36,4.12.28-.14.6-.22.84-.42,1.82-1.51,3.7-1.86,4.94.45Z"/>
          <path class="cls-2" d="m539.05,713.03c-1.22,0-2.35-.61-3.09-1.67-1.35-1.95-.36-3.54.54-4.83-.54-.02-1.02.13-1.55.37-.9.4-1.46.21-1.77-.01-.29-.21-.62-.63-.54-1.48.16-1.64-.25-3.28-.67-5-.27-1.1-.55-2.23-.72-3.47l-.2-1.43,1.28.66c2.87,1.47,5.61,1.65,8.52,1.83l1.14.07-.08.78c-.06.6-.22,1.14-.37,1.62-.17.55-.28.97-.28,1.35,1.29-1.04,2.5-1.46,3.59-1.25.97.19,1.78.86,2.39,2h0c.82,1.54.63,2.72.31,3.43-.49,1.12-1.6,1.96-3.14,2.38-.79.22-.92.56-1.21,1.32-.06.16-.13.33-.2.51-.7,1.62-2.04,2.68-3.59,2.84-.12-.03-.24-.02-.36-.02Zm-2.63-8.01c.48,0,1.01.08,1.59.29l.89.32-.51.79c-.17.26-.35.52-.52.77-1,1.43-1.45,2.17-.67,3.31.5.73,1.25,1.09,2.07,1.02,1-.1,1.88-.82,2.36-1.94.07-.15.12-.3.18-.45.32-.85.69-1.81,2.22-2.23,1.09-.29,1.86-.83,2.16-1.52.26-.6.17-1.32-.26-2.13-.39-.72-.84-1.14-1.35-1.24-.82-.16-1.79.46-2.45,1.01-.25.21-.52.32-.74.41-.08.03-.16.07-.24.1l-.64.32-.35-.63c-.65-1.19-.33-2.27-.04-3.22.06-.19.11-.38.16-.57-2.36-.15-4.79-.36-7.29-1.35.14.66.3,1.31.45,1.94.46,1.85.89,3.61.71,5.5v.06c.06-.02.13-.04.22-.08.57-.25,1.24-.48,2.05-.48Z"/>
        </g>
        <g>
          <path class="cls-2" d="m531.99,32.59c.44-3.19,1.67-5.81,1.4-8.63-.09-.98.53-1.07,1.26-.74.93.4,1.86.62,3.11.17-1.07-1.65-2.5-2.99-1.18-4.9,1.5-2.17,4.56-1.67,5.73,1.05.43.99.52,1.86,1.91,2.24,2.32.62,3.63,2.35,2.36,4.73-1.24,2.31-3.12,1.97-4.94.46-.24-.2-.56-.29-.84-.43-.76,1.38.2,2.57.36,4.12-3.02.2-6.04.32-9.17,1.93Z"/>
          <path class="cls-2" d="m531.05,33.92l.2-1.43c.17-1.24.45-2.37.72-3.47.43-1.72.83-3.35.67-4.99-.08-.86.25-1.29.55-1.49.32-.22.88-.4,1.77,0,.53.23,1.01.36,1.55.35-.9-1.29-1.89-2.87-.54-4.82.81-1.17,2.1-1.79,3.46-1.66,1.54.15,2.88,1.22,3.58,2.84.07.17.14.34.2.5.29.75.42,1.09,1.22,1.31,1.54.41,2.65,1.25,3.14,2.37.31.72.51,1.89-.31,3.43-.61,1.14-1.42,1.82-2.39,2.01-1.09.21-2.3-.2-3.59-1.24-.01.38.11.79.28,1.34.14.48.31,1.01.37,1.61l.08.77-1.24.08c-2.87.19-5.58.36-8.41,1.82l-1.31.67Zm3.08-10.1v.07c.18,1.89-.25,3.64-.71,5.49-.16.63-.32,1.28-.45,1.94,2.5-1,4.93-1.2,7.29-1.35-.05-.18-.1-.37-.16-.56-.29-.96-.61-2.04.04-3.23l.35-.63.64.32c.08.04.15.07.23.1.22.09.5.21.75.42.66.55,1.61,1.16,2.44,1,.51-.1.97-.52,1.36-1.24.43-.81.52-1.53.26-2.13-.3-.69-1.07-1.23-2.15-1.52-1.53-.42-1.9-1.37-2.22-2.22-.06-.15-.11-.3-.18-.45-.48-1.12-1.36-1.84-2.35-1.94-.81-.08-1.57.29-2.07,1.02-.78,1.13-.34,1.87.66,3.29.18.25.36.51.53.77l.51.79-.89.32c-1.55.56-2.72.22-3.66-.19-.08-.02-.16-.05-.22-.07Z"/>
        </g>
        <g>
          <path class="cls-2" d="m553.93,684.84c3.14-.78,4.8-2.72,5.74-5.38.39-1.1.3-2.19-.84-2.84-1.3-.74-2.35-.11-3.09.92-1.51,2.11-1.6,4.59-1.81,7.3Z"/>
          <path class="cls-2" d="m553.1,685.82l.12-1.61c.19-2.56.38-4.98,1.91-7.11,1.12-1.56,2.6-1.97,4.07-1.14,1.32.75,1.75,2.11,1.18,3.74-1.12,3.17-3.16,5.09-6.26,5.86l-1.02.26Zm4.64-8.77c-.38,0-.86.2-1.39.93-1.19,1.66-1.41,3.59-1.59,5.82,2.05-.78,3.37-2.23,4.2-4.59.43-1.22-.04-1.67-.5-1.93-.15-.09-.4-.23-.72-.23Z"/>
        </g>
        <g>
          <path class="cls-2" d="m518.02,719.24c-4.18.23-7.18,1.97-6.91,4.03.17,1.28,1.04,1.82,2.29,1.81,2.12-.02,6.32-3.61,6.11-5.23-.14-1.04-.89-.65-1.49-.61Z"/>
          <path class="cls-2" d="m513.37,725.83c-1.7,0-2.79-.9-3-2.46-.11-.79.14-1.58.71-2.28,1.21-1.46,3.78-2.43,6.89-2.6.09-.01.19-.02.28-.04.4-.07.94-.16,1.42.19.32.23.51.61.58,1.12.1.74-.31,1.64-1.21,2.68-1.45,1.66-3.95,3.39-5.64,3.4-.01-.01-.02-.01-.03-.01Zm5.39-5.94c-.08.01-.17.02-.25.04-.15.03-.3.05-.44.06h-.01c-2.66.15-4.89.94-5.82,2.06-.31.37-.43.74-.38,1.12.08.57.32,1.16,1.51,1.16h.03c1.06-.01,3.21-1.38,4.52-2.88.72-.83.87-1.34.85-1.49-.01-.03-.01-.05-.01-.07Z"/>
        </g>
      </g>
    </g>
  </g>
</svg>