<?xml version="1.0" encoding="utf-8"?>
<!-- Generator: Adobe Illustrator 27.9.0, SVG Export Plug-In . SVG Version: 6.00 Build 0)  -->
<svg version="1.1" id="Layer_1" xmlns="http://www.w3.org/2000/svg" xmlns:xlink="http://www.w3.org/1999/xlink" x="0px" y="0px"
	 viewBox="0 0 365.3 64.97" style="enable-background:new 0 0 365.3 64.97;" xml:space="preserve">
<style type="text/css">
	.st0{fill:#197063;}
</style>
<g>
	<g>
		<path class="st0" d="M343.52,29.87c-1.57,0.09-3.21,0.1-4.87,0.03c-16.35-0.63-30.53-6.85-44.24-12.87
			c-6.31-2.77-12.84-5.64-19.57-7.92c-6.22-2.14-12.94-3.78-19.96-4.88l-0.25,0.96c5.79,2.1,13.51,5.08,21.72,8.38
			c3.88,1.57,7.93,3.49,11.84,5.34l0.38,0.18c5.75,2.75,11.7,5.58,17,7.2c4.57,1.4,18.46,5.68,28.22,5.68h0.18
			c3.23-0.02,6.49-0.39,9.69-1.11L343.52,29.87z M333.79,31.47c-9.61,0-23.49-4.25-28.07-5.66c-5.19-1.58-10.9-4.29-16.94-7.17
			c-4.05-1.92-8.23-3.91-12.24-5.53c-7.26-2.92-15.29-6.05-21.74-8.39c6.98,1.1,13.69,2.74,19.88,4.86
			c6.65,2.26,13.2,5.13,19.53,7.91c13.76,6.04,27.99,12.28,44.42,12.91c1.68,0.07,3.32,0.06,4.92-0.03
			c-2.89,0.65-6.11,1.08-9.58,1.1H333.79z M346.83,31.66c-4.27,1.19-8.59,1.8-12.84,1.82h-0.21c-9.05,0-20.85-3.3-28.93-5.78
			c-5.4-1.65-11.47-4.53-17.33-7.31c-4.18-2-8.25-3.91-12.09-5.46c-10.13-4.09-19.09-7.51-25.26-9.64l-3.77-1.3l3.33,2.19
			c10.31,6.78,20.16,12.27,30.1,16.78c18.78,8.47,34.85,12.65,48.82,12.65c2.8,0,5.51-0.17,8.14-0.5c3.73-0.48,7.21-1.32,10.35-2.5
			L346.83,31.66z M336.73,34.61c-15.71,1.99-34.25-1.98-56.69-12.11c-13.27-6.01-24.06-12.81-30.03-16.74
			c5.99,2.07,14.9,5.46,25.23,9.63c3.92,1.58,8.06,3.54,12.06,5.45c5.88,2.79,11.97,5.68,17.4,7.34c8.15,2.5,20,5.8,29.08,5.8h0.21
			c4.84-0.02,9.21-0.79,12.97-1.84C344.09,33.22,340.71,34.1,336.73,34.61z"/>
		<path class="st0" d="M343.52,29.87c-1.57,0.09-3.21,0.1-4.87,0.03c-16.35-0.63-30.53-6.85-44.24-12.87
			c-6.31-2.77-12.84-5.64-19.57-7.92c-6.22-2.14-12.94-3.78-19.96-4.88l-0.25,0.96c5.79,2.1,13.51,5.08,21.72,8.38
			c3.88,1.57,7.93,3.49,11.84,5.34l0.38,0.18c5.75,2.75,11.7,5.58,17,7.2c4.57,1.4,18.46,5.68,28.22,5.68h0.18
			c3.23-0.02,6.49-0.39,9.69-1.11L343.52,29.87z M276.73,12.65c-5.93-2.39-11.59-4.6-16.46-6.44c4.96,1.01,9.74,2.3,14.25,3.84
			c6.69,2.28,13.2,5.13,19.49,7.9c13.4,5.88,27.24,11.96,43.19,12.88c-1.08,0.09-2.16,0.13-3.23,0.14h-0.18
			c-9.61,0-23.39-4.24-27.92-5.64c-5.24-1.59-11.15-4.41-16.88-7.14l-0.37-0.18C284.69,16.15,280.63,14.22,276.73,12.65z
			 M346.83,31.66c-4.27,1.19-8.59,1.8-12.84,1.82h-0.21c-9.05,0-20.85-3.3-28.93-5.78c-5.4-1.65-11.47-4.53-17.33-7.31
			c-4.18-2-8.25-3.91-12.09-5.46c-10.13-4.09-19.09-7.51-25.26-9.64l-3.77-1.3l3.33,2.19c10.31,6.78,20.16,12.27,30.1,16.78
			c18.78,8.47,34.85,12.65,48.82,12.65c2.8,0,5.51-0.17,8.14-0.5c3.73-0.48,7.21-1.32,10.35-2.5L346.83,31.66z M280.25,22.04
			c-8.74-3.95-17.41-8.68-26.38-14.38c5.76,2.09,13.1,4.93,21.18,8.19c3.82,1.54,7.87,3.45,12.04,5.44c5.9,2.8,12,5.7,17.46,7.37
			c7.9,2.42,19.32,5.62,28.38,5.81C318.14,35.43,300.85,31.35,280.25,22.04z M343.52,29.87c-1.57,0.09-3.21,0.1-4.87,0.03
			c-16.35-0.63-30.53-6.85-44.24-12.87c-6.31-2.77-12.84-5.64-19.57-7.92c-6.22-2.14-12.94-3.78-19.96-4.88l-0.25,0.96
			c5.79,2.1,13.51,5.08,21.72,8.38c3.88,1.57,7.93,3.49,11.84,5.34l0.38,0.18c5.75,2.75,11.7,5.58,17,7.2
			c4.57,1.4,18.46,5.68,28.22,5.68h0.18c3.23-0.02,6.49-0.39,9.69-1.11L343.52,29.87z M276.73,12.65
			c-5.93-2.39-11.59-4.6-16.46-6.44c4.96,1.01,9.74,2.3,14.25,3.84c6.69,2.28,13.2,5.13,19.49,7.9
			c13.4,5.88,27.24,11.96,43.19,12.88c-1.08,0.09-2.16,0.13-3.23,0.14h-0.18c-9.61,0-23.39-4.24-27.92-5.64
			c-5.24-1.59-11.15-4.41-16.88-7.14l-0.37-0.18C284.69,16.15,280.63,14.22,276.73,12.65z M346.83,31.66
			c-4.27,1.19-8.59,1.8-12.84,1.82h-0.21c-9.05,0-20.85-3.3-28.93-5.78c-5.4-1.65-11.47-4.53-17.33-7.31
			c-4.18-2-8.25-3.91-12.09-5.46c-10.13-4.09-19.09-7.51-25.26-9.64l-3.77-1.3l3.33,2.19c10.31,6.78,20.16,12.27,30.1,16.78
			c18.78,8.47,34.85,12.65,48.82,12.65c2.8,0,5.51-0.17,8.14-0.5c3.73-0.48,7.21-1.32,10.35-2.5L346.83,31.66z M280.25,22.04
			c-8.74-3.95-17.41-8.68-26.38-14.38c5.76,2.09,13.1,4.93,21.18,8.19c3.82,1.54,7.87,3.45,12.04,5.44c5.9,2.8,12,5.7,17.46,7.37
			c7.9,2.42,19.32,5.62,28.38,5.81C318.14,35.43,300.85,31.35,280.25,22.04z M346.83,31.66c-4.27,1.19-8.59,1.8-12.84,1.82h-0.21
			c-9.05,0-20.85-3.3-28.93-5.78c-5.4-1.65-11.47-4.53-17.33-7.31c-4.18-2-8.25-3.91-12.09-5.46c-10.13-4.09-19.09-7.51-25.26-9.64
			l-3.77-1.3l3.33,2.19c10.31,6.78,20.16,12.27,30.1,16.78c18.78,8.47,34.85,12.65,48.82,12.65c2.8,0,5.51-0.17,8.14-0.5
			c3.73-0.48,7.21-1.32,10.35-2.5L346.83,31.66z M280.25,22.04c-8.74-3.95-17.41-8.68-26.38-14.38c5.76,2.09,13.1,4.93,21.18,8.19
			c3.82,1.54,7.87,3.45,12.04,5.44c5.9,2.8,12,5.7,17.46,7.37c7.9,2.42,19.32,5.62,28.38,5.81
			C318.14,35.43,300.85,31.35,280.25,22.04z M343.52,29.87c-1.57,0.09-3.21,0.1-4.87,0.03c-16.35-0.63-30.53-6.85-44.24-12.87
			c-6.31-2.77-12.84-5.64-19.57-7.92c-6.22-2.14-12.94-3.78-19.96-4.88l-0.25,0.96c5.79,2.1,13.51,5.08,21.72,8.38
			c3.88,1.57,7.93,3.49,11.84,5.34l0.38,0.18c5.75,2.75,11.7,5.58,17,7.2c4.57,1.4,18.46,5.68,28.22,5.68h0.18
			c3.23-0.02,6.49-0.39,9.69-1.11L343.52,29.87z M276.73,12.65c-5.93-2.39-11.59-4.6-16.46-6.44c4.96,1.01,9.74,2.3,14.25,3.84
			c6.69,2.28,13.2,5.13,19.49,7.9c13.4,5.88,27.24,11.96,43.19,12.88c-1.08,0.09-2.16,0.13-3.23,0.14h-0.18
			c-9.61,0-23.39-4.24-27.92-5.64c-5.24-1.59-11.15-4.41-16.88-7.14l-0.37-0.18C284.69,16.15,280.63,14.22,276.73,12.65z"/>
		<path class="st0" d="M365.07,16.54v-0.01c-0.53-2.71-2.46-5.3-5.03-6.76c-2.06-1.15-4.4-1.53-6.66-1.1l-0.2,0.02
			c-2.75,0.32-4.81,2.1-4.81,4.16c0,2.33,2.57,4.23,5.72,4.23c2.57,0,4.75-1.23,5.47-2.97c0.8,0.9,1.36,1.96,1.57,3.01
			c0.25,1.29,0.22,2.34-0.07,3.22c-0.18,0.54-0.47,1.01-0.9,1.51l-0.13,0.14c-0.12,0.13-0.23,0.25-0.35,0.36
			c-1.12,1.09-2.75,2.02-5,2.84c-4.58,1.69-9.92,2.43-15.89,2.2c-15.68-0.61-29.56-6.7-42.99-12.59l-0.11-0.05
			c-6.37-2.79-12.95-5.67-19.72-7.98c-11.31-3.86-24.28-6.17-37.49-6.68c0,0-2.74-0.07-2.93-0.07
			c-13.22-0.21-32.09,1.64-46.84,11.65c-2.27,1.54-4.31,3.36-6.06,5.41c-1.77-2.05-3.8-3.87-6.07-5.41
			c-14.57-9.89-33.14-11.82-46.33-11.66c-0.17,0-0.34,0.01-0.5,0.01c-0.17,0-2.95,0.07-2.95,0.07c-13.2,0.51-26.16,2.82-37.48,6.68
			c-6.77,2.31-13.34,5.19-19.71,7.98l-0.12,0.05C56.06,20.69,42.18,26.78,26.5,27.39c-5.96,0.23-11.31-0.51-15.89-2.2
			c-2.25-0.82-3.88-1.75-5-2.83c-0.11-0.12-0.23-0.24-0.35-0.37l-0.12-0.14c-0.01-0.01-0.01-0.01-0.01-0.01
			c-0.12-0.13-0.22-0.25-0.34-0.44c-0.06-0.07-0.11-0.14-0.17-0.24c-0.05-0.08-0.11-0.18-0.18-0.33c-0.07-0.12-0.2-0.49-0.21-0.49
			c-0.29-0.88-0.32-1.93-0.07-3.21c0.21-1.06,0.77-2.12,1.57-3.02c0.73,1.74,2.9,2.97,5.47,2.97c3.15,0,5.72-1.9,5.72-4.23
			c0-2.08-2.09-3.87-4.87-4.17v0.01L12,8.68C9.65,8.24,7.31,8.62,5.25,9.77c-2.57,1.46-4.5,4.05-5.03,6.77
			c-0.28,1.45-0.3,2.79-0.05,3.97c0.03,0.15,0.07,0.3,0.11,0.45c0.07,0.29,0.17,0.55,0.27,0.81v0.01c0.03,0.09,0.07,0.17,0.15,0.3
			c0.07,0.16,0.16,0.34,0.26,0.51c0.06,0.1,0.11,0.19,0.17,0.29c0.05,0.09,0.11,0.19,0.13,0.21c1.72,2.82,8.73,12.22,26.79,14.51
			c2.74,0.34,5.63,0.52,8.58,0.52c14.51,0,30.95-4.24,50.25-12.95c15.55-7.03,27.73-15.15,32.93-18.61c0,0,1.52-1.02,3.27-1.65
			c2.29-0.82,5.09-1.31,6.56-1.38c12.64-0.21,30.62,1.52,44.5,10.92c2.34,1.59,4.41,3.53,6.16,5.76
			c-6.75,10.31-6.78,23.49-0.07,33.05c-0.26,0.3-0.53,0.6-0.81,0.89c-3.45,3.61-8.95,6.15-15.1,6.97
			c-9.15,1.24-18.37-1.04-24.07-5.94c-5.92-5.09-7.57-12.95-3.93-18.7c2.06-3.26,5.66-5.76,9.88-6.86c1.19-0.31,2.43-0.46,3.66-0.46
			c-0.57,0.73-0.88,1.6-0.88,2.5c0,2.51,2.38,4.55,5.31,4.55c2.93,0,5.32-2.04,5.32-4.55c0-1.11-0.47-2.18-1.33-2.99
			c-0.07-0.08-0.16-0.17-0.24-0.23c-3.39-3.23-9.12-3.2-12.99-2.18c-5.19,1.35-9.64,4.45-12.22,8.5
			c-4.51,7.11-2.57,16.76,4.61,22.94c5.38,4.62,13.4,7.27,22,7.27c1.76,0,3.56-0.12,5.5-0.36c7.09-0.96,13.49-3.94,17.54-8.2
			c0.06-0.05,0.11-0.11,0.17-0.17c0.05,0.06,0.1,0.12,0.16,0.18c4.05,4.25,10.45,7.23,17.55,8.19c1.93,0.24,3.73,0.36,5.49,0.36
			c8.6,0,16.62-2.65,22-7.27c7.18-6.18,9.12-15.83,4.61-22.94c-2.58-4.05-7.03-7.15-12.22-8.5c-3.87-1.02-9.6-1.05-12.98,2.16
			c-0.09,0.08-0.18,0.17-0.25,0.24c-0.86,0.82-1.33,1.89-1.33,3c0,2.51,2.39,4.55,5.32,4.55s5.31-2.04,5.31-4.55
			c0-0.9-0.31-1.77-0.88-2.5c1.25,0.01,2.47,0.15,3.66,0.46c4.22,1.1,7.82,3.6,9.88,6.86c3.64,5.75,1.99,13.61-3.93,18.7
			c-5.7,4.9-14.92,7.17-24.07,5.94c-6.15-0.82-11.65-3.36-15.1-6.96c-0.28-0.3-0.55-0.6-0.81-0.9c6.71-9.56,6.68-22.74-0.07-33.05
			c1.75-2.23,3.81-4.17,6.16-5.76c13.88-9.4,31.86-11.13,44.49-10.92c1.52,0.07,3.9,0.29,6.22,1.13c1.66,0.6,3.63,1.9,3.63,1.9
			c5.2,3.47,17.37,11.58,32.92,18.61c19.3,8.71,35.74,12.95,50.25,12.95c2.95,0,5.84-0.18,8.58-0.52
			c18.06-2.29,25.07-11.69,26.74-14.45c0.07-0.08,0.13-0.18,0.18-0.26c0.06-0.1,0.11-0.19,0.16-0.29c0.11-0.18,0.2-0.35,0.3-0.57
			c0.04-0.09,0.09-0.17,0.13-0.27c0.09-0.25,0.19-0.51,0.26-0.8C365.37,19.67,365.39,18.18,365.07,16.54z M31.32,30.97
			c-1.07-0.01-2.15-0.05-3.23-0.14c15.95-0.92,29.79-7,43.19-12.88c6.29-2.77,12.8-5.62,19.49-7.9c4.52-1.54,9.29-2.83,14.25-3.84
			c-4.87,1.84-10.54,4.05-16.46,6.44c-3.9,1.57-7.97,3.5-11.9,5.37l-0.37,0.17c-5.72,2.73-11.64,5.55-16.87,7.14
			c-4.53,1.4-18.31,5.64-27.92,5.64H31.32z M98.14,15.51c-4.38,2.38-8.73,4.56-13.1,6.53c-20.6,9.31-37.89,13.39-52.68,12.43
			c9.06-0.19,20.48-3.39,28.38-5.81c5.46-1.67,11.56-4.57,17.47-7.37c4.16-1.99,8.21-3.9,12.03-5.44c8.08-3.26,15.42-6.1,21.18-8.19
			C106.93,10.51,102.53,13.12,98.14,15.51z M182.65,49.9c-4.62-7.74-4.62-17.82,0-26.14C187.26,32.08,187.26,42.16,182.65,49.9z
			 M254.88,4.23c7.02,1.1,13.74,2.74,19.96,4.88c6.73,2.28,13.26,5.15,19.57,7.92c13.71,6.02,27.89,12.24,44.24,12.87
			c1.66,0.07,3.3,0.06,4.87-0.03l0.14,0.99c-3.2,0.72-6.46,1.09-9.69,1.11h-0.18c-9.76,0-23.65-4.28-28.22-5.68
			c-5.3-1.62-11.25-4.45-17-7.2l-0.38-0.18c-3.91-1.85-7.96-3.77-11.84-5.34c-8.21-3.3-15.93-6.28-21.72-8.38L254.88,4.23z
			 M336.79,35.11c-2.63,0.33-5.34,0.5-8.14,0.5c-13.97,0-30.04-4.18-48.82-12.65c-9.94-4.51-19.79-10-30.1-16.78l-3.33-2.19
			l3.77,1.3c6.17,2.13,15.13,5.55,25.26,9.64c3.84,1.55,7.91,3.46,12.09,5.46c5.86,2.78,11.93,5.66,17.33,7.31
			c8.08,2.48,19.88,5.78,28.93,5.78h0.21c4.25-0.02,8.57-0.63,12.84-1.82l0.31,0.95C344,33.79,340.52,34.63,336.79,35.11z"/>
	</g>
</g>
</svg>
